<?xml version="1.0" encoding="UTF-8" standalone="no"?>
<svg
   width="48"
   height="48"
   viewBox="0 0 48 48"
   fill="none"
   version="1.1"
   id="svg8"
   sodipodi:docname="Property 1=Full, size=48.svg"
   inkscape:version="1.2.1 (9c6d41e, 2022-07-14)"
   xmlns:inkscape="http://www.inkscape.org/namespaces/inkscape"
   xmlns:sodipodi="http://sodipodi.sourceforge.net/DTD/sodipodi-0.dtd"
   xmlns="http://www.w3.org/2000/svg"
   xmlns:svg="http://www.w3.org/2000/svg">
  <defs
     id="defs12" />
  <sodipodi:namedview
     id="namedview10"
     pagecolor="#ffffff"
     bordercolor="#000000"
     borderopacity="0.25"
     inkscape:showpageshadow="2"
     inkscape:pageopacity="0.0"
     inkscape:pagecheckerboard="0"
     inkscape:deskcolor="#d1d1d1"
     showgrid="false"
     inkscape:zoom="21.395833"
     inkscape:cx="16.171373"
     inkscape:cy="24"
     inkscape:window-width="1390"
     inkscape:window-height="1205"
     inkscape:window-x="1762"
     inkscape:window-y="98"
     inkscape:window-maximized="0"
     inkscape:current-layer="svg8" />
  <path
     id="rect2"
     d="M 0.5 0.5 L 0.5 47.5 L 47.5 47.5 L 47.5 0.5 L 0.5 0.5 z M 24 6 C 25.242674 6 26.486213 6.6937576 26.976562 8.0820312 L 29.205078 14.396484 C 29.637778 15.621283 30.799789 16.452016 32.117188 16.478516 L 38.908203 16.613281 C 41.8945 16.673181 43.128244 20.407696 40.748047 22.183594 L 35.333984 26.222656 C 34.283885 27.006155 33.841157 28.350598 34.222656 29.591797 L 36.189453 35.988281 C 37.054452 38.801778 33.826698 41.110639 31.375 39.431641 L 25.798828 35.613281 C 24.717329 34.872682 23.282671 34.872682 22.201172 35.613281 L 16.625 39.431641 C 14.173302 41.110639 10.945548 38.801778 11.810547 35.988281 L 13.777344 29.591797 C 14.158943 28.350598 13.716015 27.006155 12.666016 26.222656 L 7.2519531 22.183594 C 4.8717255 20.407696 6.1054699 16.673181 9.0917969 16.613281 L 15.882812 16.478516 C 17.200211 16.452016 18.362222 15.621283 18.794922 14.396484 L 21.023438 8.0820312 C 21.513787 6.6937576 22.757326 6 24 6 z "
     style="fill:#333333" />
  <rect
     x="0.5"
     y="0.5"
     width="47"
     height="47"
     stroke="#343434"
     id="rect6" />
</svg>
