<svg width="88" height="89" viewBox="0 0 88 89" fill="none" xmlns="http://www.w3.org/2000/svg">
<path fill-rule="evenodd" clip-rule="evenodd" d="M88 44.75C88 69.0505 68.3005 88.75 44 88.75C41.9586 88.75 39.9496 88.611 37.9821 88.3419L56.494 56.2784C59.2911 53.2484 61 49.1988 61 44.75C61 38.4402 57.5624 32.9333 52.4579 30H85.4668C87.107 34.611 88 39.5762 88 44.75ZM0 44.75C0 66.2729 15.4534 84.1864 35.8699 88.0004L52.2599 59.612C49.8144 60.974 46.9978 61.75 44 61.75C36.7263 61.75 30.5196 57.1819 28.0922 50.7581L28.0893 50.7598L8.87993 18.2397C3.30598 25.6123 0 34.7951 0 44.75ZM10.2125 16.5631C18.2837 6.89865 30.4238 0.75 44 0.75C62.37 0.75 78.1107 12.0075 84.6996 28H46.921C45.972 27.8357 44.996 27.75 44 27.75C34.6112 27.75 27 35.3612 27 44.75C27 44.8288 27.0005 44.9074 27.0016 44.986L10.2125 16.5631ZM44 58.75C51.732 58.75 58 52.482 58 44.75C58 37.018 51.732 30.75 44 30.75C36.268 30.75 30 37.018 30 44.75C30 52.482 36.268 58.75 44 58.75Z" fill="#1A1A1A"/>
</svg>
