<svg width="88" height="89" viewBox="0 0 88 89" fill="none" xmlns="http://www.w3.org/2000/svg">
<path fill-rule="evenodd" clip-rule="evenodd" d="M87.8521 39.6157C87.7767 40.2581 87.7086 40.9683 87.6484 41.75C86.7867 52.953 76.1487 57.2476 70.1487 59.2476C64.1487 61.2476 47.7862 58.5337 51.1487 53.2476C54.6487 47.7454 54.9477 45.2305 54.6487 42.2454C54.6002 41.7611 54.4859 41.2626 54.3113 40.7613C53.5672 36.857 51.7071 32.0392 48.1414 28.0813C43.7556 23.2131 36.8564 19.7248 26.5489 20.7556C13.2315 22.0873 5.25216 28.9108 1.14609 35.39C5.43653 15.5859 23.0599 0.75 44.1484 0.75C66.7122 0.75 85.3091 17.7342 87.8521 39.6157ZM34.6898 38.1286C32.3389 39.6907 30.0374 42.1111 28.0231 45.7365C20.7061 58.9059 22.7342 71.8383 32.2738 79.4721C37.3605 83.5426 43.4193 85.3718 48.6804 86.1134C52.6083 86.6672 56.0523 86.609 58.2418 86.4445C67.4546 83.3315 75.3003 77.2508 80.6414 69.3398C80.6424 69.3241 80.6435 69.3083 80.6448 69.2923L80.6487 69.2461C81.1487 68.5794 81.8487 67.0461 80.6487 66.2461C79.4487 65.4461 77.8154 66.5794 77.1487 67.2461C75.1487 68.9122 68.1487 71.7443 56.1487 69.7443C44.1487 67.7443 36.482 57.5777 34.1487 52.7443C32.7985 49.7739 31.1086 42.8563 34.6898 38.1286ZM50.3745 35.7997C50.5361 35.9127 50.6939 36.0293 50.8479 36.1489C50.7519 35.9175 50.6518 35.6857 50.5475 35.4537L50.3745 35.7997ZM50.4765 35.2972C47.8024 33.9923 43.6558 33.0251 39.2247 34.0292C34.6852 35.058 29.9609 38.1307 26.2748 44.7651C18.5914 58.5941 20.5621 72.6617 31.0242 81.0336C36.4836 85.4024 42.9244 87.3218 48.4013 88.0939C49.05 88.1853 49.6863 88.2608 50.3069 88.3224C48.2945 88.6043 46.2385 88.75 44.1484 88.75C19.8479 88.75 0.148438 69.0505 0.148438 44.75C0.148438 43.8155 0.177573 42.8877 0.234985 41.9676C2.31977 35.2442 9.95222 24.4252 26.7479 22.7457C36.4405 21.7764 42.7079 25.0382 46.6555 29.42C48.2974 31.2425 49.5494 33.2723 50.4765 35.2972Z" fill="#1A1A1A"/>
</svg>
