<svg width="88" height="94" viewBox="0 0 88 94" fill="none" xmlns="http://www.w3.org/2000/svg">
<circle cx="43.9092" cy="50" r="22" stroke="#1A1A1A" stroke-width="2"/>
<path d="M18.9087 29C15.7087 26.2 15.9086 20.5 17.4085 17.5C10.4085 22.3333 -1.76129 38.7553 0.908561 57C3.90844 77.5 25.9091 93.5 43.4089 93.5C61.4159 93.5 88.9081 80.5 87.4085 44.5C86.9089 35 79.4085 24.5 76.4085 23.5C79.4085 29 79.7418 34 79.4085 37.5C77.4939 30.1608 68.6284 16 59.4092 8C56.1284 5 53.4092 2.5 52.9092 0C39.4092 11.5 42.7419 23.5 43.4085 29C55.4085 29.4 61.4085 36.5 62.9085 40C60.5085 36.8 54.9085 37 52.4085 37.5C62.9085 41.5 67.4085 69 46.9085 70.5C30.5085 71.7 25.4085 60.6667 24.9085 55C26.1085 48.2 35.0752 47.5 39.4085 48C41.4085 48 43.2419 44.3333 43.9085 42.5C34.7085 39.7 29.7419 34.3333 28.4085 32C27.2085 31.2 28.2419 25 28.9085 22C25.7085 22 20.9086 26.6667 18.9087 29Z" fill="#1A1A1A"/>
</svg>
