<svg width="97" height="36" viewBox="0 0 97 36" fill="none" xmlns="http://www.w3.org/2000/svg">
<path d="M1.824 17V5.168H4.296V17H1.824ZM3.072 3.56C2.592 3.56 2.184 3.408 1.848 3.104C1.528 2.784 1.368 2.376 1.368 1.88C1.368 1.384 1.528 0.984 1.848 0.68C2.184 0.359999 2.592 0.199999 3.072 0.199999C3.568 0.199999 3.976 0.359999 4.296 0.68C4.616 0.984 4.776 1.384 4.776 1.88C4.776 2.376 4.616 2.784 4.296 3.104C3.976 3.408 3.568 3.56 3.072 3.56ZM8.44463 17V5.168H10.8686V6.944H11.2526C11.4766 6.464 11.8766 6.016 12.4526 5.6C13.0286 5.184 13.8846 4.976 15.0206 4.976C15.9166 4.976 16.7086 5.176 17.3966 5.576C18.1006 5.976 18.6526 6.544 19.0526 7.28C19.4526 8 19.6526 8.872 19.6526 9.896V17H17.1806V10.088C17.1806 9.064 16.9246 8.312 16.4126 7.832C15.9006 7.336 15.1966 7.088 14.3006 7.088C13.2766 7.088 12.4526 7.424 11.8286 8.096C11.2206 8.768 10.9166 9.744 10.9166 11.024V17H8.44463ZM26.0747 17L22.0907 5.168H24.7067L27.8507 15.176H28.2347L31.3787 5.168H33.9947L30.0107 17H26.0747ZM36.8734 17V5.168H39.3454V17H36.8734ZM38.1214 3.56C37.6414 3.56 37.2334 3.408 36.8974 3.104C36.5774 2.784 36.4174 2.376 36.4174 1.88C36.4174 1.384 36.5774 0.984 36.8974 0.68C37.2334 0.359999 37.6414 0.199999 38.1214 0.199999C38.6174 0.199999 39.0254 0.359999 39.3454 0.68C39.6654 0.984 39.8254 1.384 39.8254 1.88C39.8254 2.376 39.6654 2.784 39.3454 3.104C39.0254 3.408 38.6174 3.56 38.1214 3.56ZM48.342 17.336C46.838 17.336 45.59 17 44.598 16.328C43.606 15.656 42.998 14.64 42.774 13.28L45.078 12.728C45.206 13.384 45.422 13.904 45.726 14.288C46.03 14.672 46.406 14.944 46.854 15.104C47.318 15.264 47.814 15.344 48.342 15.344C49.126 15.344 49.726 15.192 50.142 14.888C50.574 14.584 50.79 14.192 50.79 13.712C50.79 13.232 50.59 12.88 50.19 12.656C49.79 12.432 49.198 12.248 48.414 12.104L47.598 11.96C46.798 11.816 46.07 11.608 45.414 11.336C44.758 11.064 44.238 10.688 43.854 10.208C43.47 9.728 43.278 9.112 43.278 8.36C43.278 7.24 43.694 6.376 44.526 5.768C45.358 5.144 46.462 4.832 47.838 4.832C49.166 4.832 50.254 5.136 51.102 5.744C51.966 6.336 52.526 7.144 52.782 8.168L50.478 8.816C50.334 8.096 50.03 7.592 49.566 7.304C49.102 7 48.526 6.848 47.838 6.848C47.166 6.848 46.638 6.976 46.254 7.232C45.87 7.472 45.678 7.816 45.678 8.264C45.678 8.744 45.862 9.096 46.23 9.32C46.614 9.544 47.126 9.712 47.766 9.824L48.606 9.968C49.454 10.112 50.23 10.312 50.934 10.568C51.638 10.824 52.19 11.192 52.59 11.672C53.006 12.152 53.214 12.792 53.214 13.592C53.214 14.776 52.774 15.696 51.894 16.352C51.014 17.008 49.83 17.336 48.342 17.336ZM56.5834 17V5.168H59.0554V17H56.5834ZM57.8314 3.56C57.3514 3.56 56.9434 3.408 56.6074 3.104C56.2874 2.784 56.1274 2.376 56.1274 1.88C56.1274 1.384 56.2874 0.984 56.6074 0.68C56.9434 0.359999 57.3514 0.199999 57.8314 0.199999C58.3274 0.199999 58.7354 0.359999 59.0554 0.68C59.3754 0.984 59.5354 1.384 59.5354 1.88C59.5354 2.376 59.3754 2.784 59.0554 3.104C58.7354 3.408 58.3274 3.56 57.8314 3.56ZM70.044 17.336C68.892 17.336 68.004 17.128 67.38 16.712C66.772 16.296 66.316 15.832 66.012 15.32H65.628V17H63.204V0.199999H65.676V6.776H66.06C66.252 6.456 66.508 6.152 66.828 5.864C67.148 5.56 67.572 5.312 68.1 5.12C68.628 4.928 69.276 4.832 70.044 4.832C71.036 4.832 71.948 5.072 72.78 5.552C73.612 6.032 74.276 6.728 74.772 7.64C75.268 8.552 75.516 9.64 75.516 10.904V11.264C75.516 12.544 75.26 13.64 74.748 14.552C74.252 15.448 73.588 16.136 72.756 16.616C71.94 17.096 71.036 17.336 70.044 17.336ZM69.324 15.176C70.396 15.176 71.276 14.832 71.964 14.144C72.668 13.456 73.02 12.472 73.02 11.192V10.976C73.02 9.712 72.676 8.736 71.988 8.048C71.3 7.36 70.412 7.016 69.324 7.016C68.268 7.016 67.388 7.36 66.684 8.048C65.996 8.736 65.652 9.712 65.652 10.976V11.192C65.652 12.472 65.996 13.456 66.684 14.144C67.388 14.832 68.268 15.176 69.324 15.176ZM79.059 17V0.199999H81.531V17H79.059ZM91.1036 17.336C89.9036 17.336 88.8556 17.088 87.9596 16.592C87.0636 16.08 86.3596 15.368 85.8476 14.456C85.3516 13.528 85.1036 12.456 85.1036 11.24V10.952C85.1036 9.72 85.3516 8.648 85.8476 7.736C86.3436 6.808 87.0316 6.096 87.9116 5.6C88.8076 5.088 89.8396 4.832 91.0076 4.832C92.1436 4.832 93.1356 5.088 93.9836 5.6C94.8476 6.096 95.5196 6.792 95.9996 7.688C96.4796 8.584 96.7196 9.632 96.7196 10.832V11.768H87.6236C87.6556 12.808 87.9996 13.64 88.6556 14.264C89.3276 14.872 90.1596 15.176 91.1516 15.176C92.0796 15.176 92.7756 14.968 93.2396 14.552C93.7196 14.136 94.0876 13.656 94.3436 13.112L96.3836 14.168C96.1596 14.616 95.8316 15.088 95.3996 15.584C94.9836 16.08 94.4316 16.496 93.7436 16.832C93.0556 17.168 92.1756 17.336 91.1036 17.336ZM87.6476 9.872H94.1996C94.1356 8.976 93.8156 8.28 93.2396 7.784C92.6636 7.272 91.9116 7.016 90.9836 7.016C90.0556 7.016 89.2956 7.272 88.7036 7.784C88.1276 8.28 87.7756 8.976 87.6476 9.872ZM4.56 35L0.576 23.168H3.192L6.336 33.176H6.72L9.864 23.168H12.48L8.496 35H4.56ZM20.4808 35.336C19.2968 35.336 18.2408 35.096 17.3128 34.616C16.4008 34.12 15.6808 33.416 15.1528 32.504C14.6248 31.592 14.3608 30.512 14.3608 29.264V28.904C14.3608 27.656 14.6248 26.584 15.1528 25.688C15.6808 24.776 16.4008 24.072 17.3128 23.576C18.2408 23.08 19.2968 22.832 20.4808 22.832C21.6648 22.832 22.7208 23.08 23.6488 23.576C24.5768 24.072 25.3048 24.776 25.8328 25.688C26.3608 26.584 26.6248 27.656 26.6248 28.904V29.264C26.6248 30.512 26.3608 31.592 25.8328 32.504C25.3048 33.416 24.5768 34.12 23.6488 34.616C22.7208 35.096 21.6648 35.336 20.4808 35.336ZM20.4808 33.128C21.5688 33.128 22.4488 32.784 23.1208 32.096C23.8088 31.392 24.1528 30.424 24.1528 29.192V28.976C24.1528 27.744 23.8168 26.784 23.1448 26.096C22.4728 25.392 21.5848 25.04 20.4808 25.04C19.4088 25.04 18.5288 25.392 17.8408 26.096C17.1688 26.784 16.8328 27.744 16.8328 28.976V29.192C16.8328 30.424 17.1688 31.392 17.8408 32.096C18.5288 32.784 19.4088 33.128 20.4808 33.128ZM30.1824 35V23.168H32.6544V35H30.1824ZM31.4304 21.56C30.9504 21.56 30.5424 21.408 30.2064 21.104C29.8864 20.784 29.7264 20.376 29.7264 19.88C29.7264 19.384 29.8864 18.984 30.2064 18.68C30.5424 18.36 30.9504 18.2 31.4304 18.2C31.9264 18.2 32.3344 18.36 32.6544 18.68C32.9744 18.984 33.1344 19.384 33.1344 19.88C33.1344 20.376 32.9744 20.784 32.6544 21.104C32.3344 21.408 31.9264 21.56 31.4304 21.56ZM42.2991 35.336C41.1631 35.336 40.1311 35.096 39.2031 34.616C38.2911 34.136 37.5631 33.44 37.0191 32.528C36.4911 31.616 36.2271 30.52 36.2271 29.24V28.928C36.2271 27.648 36.4911 26.56 37.0191 25.664C37.5631 24.752 38.2911 24.056 39.2031 23.576C40.1311 23.08 41.1631 22.832 42.2991 22.832C43.4351 22.832 44.4031 23.04 45.2031 23.456C46.0031 23.872 46.6431 24.424 47.1231 25.112C47.6191 25.8 47.9391 26.56 48.0831 27.392L45.6831 27.896C45.6031 27.368 45.4351 26.888 45.1791 26.456C44.9231 26.024 44.5631 25.68 44.0991 25.424C43.6351 25.168 43.0511 25.04 42.3471 25.04C41.6591 25.04 41.0351 25.2 40.4751 25.52C39.9311 25.824 39.4991 26.272 39.1791 26.864C38.8591 27.44 38.6991 28.144 38.6991 28.976V29.192C38.6991 30.024 38.8591 30.736 39.1791 31.328C39.4991 31.92 39.9311 32.368 40.4751 32.672C41.0351 32.976 41.6591 33.128 42.3471 33.128C43.3871 33.128 44.1791 32.864 44.7231 32.336C45.2671 31.792 45.6111 31.104 45.7551 30.272L48.1551 30.824C47.9631 31.64 47.6191 32.392 47.1231 33.08C46.6431 33.768 46.0031 34.32 45.2031 34.736C44.4031 35.136 43.4351 35.336 42.2991 35.336ZM56.9102 35.336C55.7102 35.336 54.6622 35.088 53.7662 34.592C52.8702 34.08 52.1662 33.368 51.6542 32.456C51.1582 31.528 50.9102 30.456 50.9102 29.24V28.952C50.9102 27.72 51.1582 26.648 51.6542 25.736C52.1502 24.808 52.8382 24.096 53.7182 23.6C54.6142 23.088 55.6462 22.832 56.8142 22.832C57.9502 22.832 58.9422 23.088 59.7902 23.6C60.6542 24.096 61.3262 24.792 61.8062 25.688C62.2862 26.584 62.5262 27.632 62.5262 28.832V29.768H53.4302C53.4622 30.808 53.8062 31.64 54.4622 32.264C55.1342 32.872 55.9662 33.176 56.9582 33.176C57.8862 33.176 58.5822 32.968 59.0462 32.552C59.5262 32.136 59.8942 31.656 60.1502 31.112L62.1902 32.168C61.9662 32.616 61.6382 33.088 61.2062 33.584C60.7902 34.08 60.2382 34.496 59.5502 34.832C58.8622 35.168 57.9822 35.336 56.9102 35.336ZM53.4542 27.872H60.0062C59.9422 26.976 59.6222 26.28 59.0462 25.784C58.4702 25.272 57.7182 25.016 56.7902 25.016C55.8622 25.016 55.1022 25.272 54.5102 25.784C53.9342 26.28 53.5822 26.976 53.4542 27.872Z" fill="white"/>
</svg>
