<svg width="40" height="40" viewBox="0 0 40 40" fill="none" xmlns="http://www.w3.org/2000/svg">
<path d="M17.6782 12.2551H22.3985V31.6021C22.3985 32.9378 21.3418 34.0205 20.0383 34.0205C18.7349 34.0205 17.6782 32.9378 17.6782 31.6021V12.2551Z" fill="#1A1A1A"/>
<path d="M17.6782 7.41838C17.6782 6.08274 18.7349 5 20.0383 5C21.3418 5 22.3985 6.08274 22.3985 7.41838C22.3985 8.75401 21.3418 9.83675 20.0383 9.83675C18.7349 9.83675 17.6782 8.75401 17.6782 7.41838Z" fill="#1A1A1A"/>
<path d="M7.5 22.1746L9.16888 20.4646C10.0906 19.5201 11.585 19.5201 12.5067 20.4646L23.3544 31.5799L20.0166 35L7.5 22.1746Z" fill="#1A1A1A"/>
<path d="M27.4934 20.4646C28.4151 19.5201 29.9094 19.5201 30.8311 20.4646L32.5 22.1746L19.9834 35L16.6456 31.5799L27.4934 20.4646Z" fill="#1A1A1A"/>
</svg>
