<svg width="158" height="40" viewBox="0 0 158 40" fill="none" xmlns="http://www.w3.org/2000/svg">
<path d="M17.6782 12.2551H22.3985V31.6021C22.3985 32.9378 21.3418 34.0205 20.0383 34.0205C18.7349 34.0205 17.6782 32.9378 17.6782 31.6021V12.2551Z" fill="#1A1A1A"/>
<path d="M17.6782 7.41838C17.6782 6.08274 18.7349 5 20.0383 5C21.3418 5 22.3985 6.08274 22.3985 7.41838C22.3985 8.75401 21.3418 9.83675 20.0383 9.83675C18.7349 9.83675 17.6782 8.75401 17.6782 7.41838Z" fill="#1A1A1A"/>
<path d="M7.5 22.1746L9.16888 20.4646C10.0906 19.5201 11.585 19.5201 12.5067 20.4646L23.3544 31.5799L20.0166 35L7.5 22.1746Z" fill="#1A1A1A"/>
<path d="M27.4934 20.4646C28.415 19.5201 29.9094 19.5201 30.8311 20.4646L32.5 22.1746L19.9834 35L16.6456 31.5799L27.4934 20.4646Z" fill="#1A1A1A"/>
<path d="M49.3727 18.4597V0H52.2236V18.4597H49.3727Z" fill="#1A1A1A"/>
<path d="M57.2103 18.4597V5.4588H59.8765V7.41026H60.2988C60.5452 6.88284 60.9852 6.39058 61.6187 5.93348C62.2523 5.47638 63.1938 5.24783 64.4433 5.24783C65.4288 5.24783 66.2999 5.46759 67.0567 5.90711C67.831 6.34662 68.4381 6.97074 68.8781 7.77945C69.3181 8.57058 69.538 9.52873 69.538 10.6539V18.4597H66.8191V10.8649C66.8191 9.7397 66.5375 8.9134 65.9744 8.38598C65.4112 7.84098 64.6369 7.56848 63.6514 7.56848C62.5251 7.56848 61.6187 7.93768 60.9324 8.67606C60.2637 9.41445 59.9293 10.4869 59.9293 11.8933V18.4597H57.2103Z" fill="#1A1A1A"/>
<path d="M77.1296 18.4597L72.7476 5.4588H75.625L79.0831 16.4555H79.5054L82.9635 5.4588H85.8409L81.4589 18.4597H77.1296Z" fill="#1A1A1A"/>
<path d="M89.5351 18.4597V5.4588H92.2541V18.4597H89.5351ZM90.9078 3.69194C90.3798 3.69194 89.9311 3.52493 89.5615 3.19089C89.2095 2.83928 89.0336 2.39097 89.0336 1.84597C89.0336 1.30097 89.2095 0.861454 89.5615 0.527421C89.9311 0.175807 90.3798 0 90.9078 0C91.4533 0 91.9021 0.175807 92.2541 0.527421C92.606 0.861454 92.782 1.30097 92.782 1.84597C92.782 2.39097 92.606 2.83928 92.2541 3.19089C91.9021 3.52493 91.4533 3.69194 90.9078 3.69194Z" fill="#1A1A1A"/>
<path d="M102.677 18.8289C101.023 18.8289 99.6505 18.4597 98.5594 17.7213C97.4683 16.9829 96.7996 15.8666 96.5532 14.3722L99.0874 13.7657C99.2282 14.4865 99.4657 15.0578 99.8001 15.4798C100.134 15.9017 100.548 16.2006 101.041 16.3764C101.551 16.5522 102.097 16.6401 102.677 16.6401C103.54 16.6401 104.2 16.4731 104.657 16.1391C105.132 15.805 105.37 15.3743 105.37 14.8469C105.37 14.3195 105.15 13.9327 104.71 13.6866C104.27 13.4404 103.619 13.2383 102.757 13.08L101.859 12.9218C100.979 12.7636 100.178 12.535 99.4569 12.2362C98.7354 11.9373 98.1634 11.5241 97.7411 10.9967C97.3187 10.4693 97.1075 9.79244 97.1075 8.96615C97.1075 7.7355 97.5651 6.78614 98.4802 6.11808C99.3953 5.43243 100.61 5.08961 102.123 5.08961C103.584 5.08961 104.78 5.42364 105.713 6.09171C106.664 6.74219 107.279 7.63001 107.561 8.75518L105.027 9.46719C104.868 8.67606 104.534 8.12227 104.024 7.80582C103.513 7.47179 102.88 7.30477 102.123 7.30477C101.384 7.30477 100.803 7.44542 100.381 7.72671C99.9585 7.99042 99.7473 8.3684 99.7473 8.86066C99.7473 9.38808 99.9497 9.77486 100.354 10.021C100.777 10.2671 101.34 10.4517 102.044 10.5748L102.968 10.733C103.901 10.8912 104.754 11.111 105.528 11.3923C106.303 11.6736 106.91 12.0779 107.35 12.6053C107.807 13.1328 108.036 13.836 108.036 14.715C108.036 16.016 107.552 17.0269 106.584 17.7477C105.616 18.4685 104.314 18.8289 102.677 18.8289Z" fill="#1A1A1A"/>
<path d="M112.27 18.4597V5.4588H114.989V18.4597H112.27ZM113.643 3.69194C113.115 3.69194 112.666 3.52493 112.297 3.19089C111.945 2.83928 111.769 2.39097 111.769 1.84597C111.769 1.30097 111.945 0.861454 112.297 0.527421C112.666 0.175807 113.115 0 113.643 0C114.188 0 114.637 0.175807 114.989 0.527421C115.341 0.861454 115.517 1.30097 115.517 1.84597C115.517 2.39097 115.341 2.83928 114.989 3.19089C114.637 3.52493 114.188 3.69194 113.643 3.69194Z" fill="#1A1A1A"/>
<path d="M127.603 18.8289C126.336 18.8289 125.36 18.6004 124.673 18.1433C124.005 17.6862 123.503 17.1763 123.169 16.6137H122.746V18.4597H120.08V0H122.799V7.22566H123.221C123.433 6.87404 123.714 6.54001 124.066 6.22356C124.418 5.88953 124.885 5.61703 125.465 5.40606C126.046 5.19509 126.759 5.08961 127.603 5.08961C128.695 5.08961 129.698 5.35332 130.613 5.88074C131.528 6.40816 132.258 7.17292 132.804 8.17502C133.349 9.17711 133.622 10.3726 133.622 11.7615V12.157C133.622 13.5635 133.341 14.7678 132.777 15.7699C132.232 16.7544 131.502 17.5104 130.586 18.0378C129.689 18.5652 128.695 18.8289 127.603 18.8289ZM126.812 16.4555C127.991 16.4555 128.959 16.0775 129.715 15.3216C130.49 14.5656 130.877 13.4844 130.877 12.0779V11.8406C130.877 10.4517 130.498 9.37929 129.742 8.62332C128.985 7.86735 128.008 7.48937 126.812 7.48937C125.65 7.48937 124.682 7.86735 123.908 8.62332C123.151 9.37929 122.773 10.4517 122.773 11.8406V12.0779C122.773 13.4844 123.151 14.5656 123.908 15.3216C124.682 16.0775 125.65 16.4555 126.812 16.4555Z" fill="#1A1A1A"/>
<path d="M138.047 18.4597V0H140.766V18.4597H138.047Z" fill="#1A1A1A"/>
<path d="M151.823 18.8289C150.503 18.8289 149.35 18.5564 148.365 18.0114C147.379 17.4488 146.605 16.6665 146.042 15.6644C145.496 14.6447 145.224 13.4668 145.224 12.1307V11.8142C145.224 10.4605 145.496 9.2826 146.042 8.2805C146.587 7.26082 147.344 6.47848 148.312 5.93348C149.298 5.3709 150.433 5.08961 151.717 5.08961C152.967 5.08961 154.058 5.3709 154.991 5.93348C155.941 6.47848 156.68 7.24324 157.208 8.22776C157.736 9.21228 158 10.3638 158 11.6824V12.7108H147.995C148.03 13.8536 148.409 14.7678 149.13 15.4534C149.87 16.1215 150.785 16.4555 151.876 16.4555C152.896 16.4555 153.662 16.227 154.172 15.7699C154.7 15.3128 155.105 14.7853 155.387 14.1876L157.63 15.3479C157.384 15.8402 157.023 16.3588 156.548 16.9038C156.091 17.4488 155.483 17.9059 154.727 18.2751C153.97 18.6443 153.002 18.8289 151.823 18.8289ZM148.022 10.6275H155.228C155.158 9.643 154.806 8.87824 154.172 8.33324C153.539 7.77066 152.712 7.48937 151.691 7.48937C150.67 7.48937 149.834 7.77066 149.183 8.33324C148.55 8.87824 148.162 9.643 148.022 10.6275Z" fill="#1A1A1A"/>
<path d="M53.1475 39.6308L48 21.1711H50.9565L55.4441 37.8376H55.7873L60.2485 21.1711H63.2051L58.0839 39.6308H53.1475Z" fill="#1A1A1A"/>
<path d="M72.073 40C70.7708 40 69.6093 39.7363 68.5885 39.2089C67.5854 38.6639 66.7935 37.8903 66.2128 36.8882C65.632 35.8861 65.3416 34.6994 65.3416 33.3281V32.9326C65.3416 31.5613 65.632 30.3834 66.2128 29.3989C66.7935 28.3968 67.5854 27.6232 68.5885 27.0782C69.6093 26.5332 70.7708 26.2607 72.073 26.2607C73.3753 26.2607 74.5368 26.5332 75.5575 27.0782C76.5782 27.6232 77.379 28.3968 77.9597 29.3989C78.5405 30.3834 78.8309 31.5613 78.8309 32.9326V33.3281C78.8309 34.6994 78.5405 35.8861 77.9597 36.8882C77.379 37.8903 76.5782 38.6639 75.5575 39.2089C74.5368 39.7363 73.3753 40 72.073 40ZM72.073 37.5739C73.2697 37.5739 74.2377 37.1959 74.9768 36.4399C75.7335 35.6664 76.1119 34.6027 76.1119 33.249V33.0117C76.1119 31.658 75.7423 30.6031 75.0032 29.8472C74.2641 29.0736 73.2873 28.6868 72.073 28.6868C70.8939 28.6868 69.926 29.0736 69.1693 29.8472C68.4302 30.6031 68.0606 31.658 68.0606 33.0117V33.249C68.0606 34.6027 68.4302 35.6664 69.1693 36.4399C69.926 37.1959 70.8939 37.5739 72.073 37.5739Z" fill="#1A1A1A"/>
<path d="M83.2719 39.6308V26.6299H85.9908V39.6308H83.2719ZM84.6445 24.863C84.1166 24.863 83.6678 24.696 83.2982 24.362C82.9463 24.0104 82.7703 23.5621 82.7703 23.0171C82.7703 22.4721 82.9463 22.0325 83.2982 21.6985C83.6678 21.3469 84.1166 21.1711 84.6445 21.1711C85.1901 21.1711 85.6388 21.3469 85.9908 21.6985C86.3428 22.0325 86.5188 22.4721 86.5188 23.0171C86.5188 23.5621 86.3428 24.0104 85.9908 24.362C85.6388 24.696 85.1901 24.863 84.6445 24.863Z" fill="#1A1A1A"/>
<path d="M97.1269 40C95.8774 40 94.7423 39.7363 93.7216 39.2089C92.7185 38.6815 91.9178 37.9167 91.3194 36.9146C90.7387 35.9125 90.4483 34.7082 90.4483 33.3018V32.9589C90.4483 31.5525 90.7387 30.357 91.3194 29.3725C91.9178 28.3704 92.7185 27.6056 93.7216 27.0782C94.7423 26.5332 95.8774 26.2607 97.1269 26.2607C98.3764 26.2607 99.4411 26.4893 100.321 26.9463C101.201 27.4034 101.905 28.01 102.433 28.7659C102.978 29.5219 103.33 30.357 103.489 31.2712L100.849 31.825C100.761 31.2448 100.576 30.7174 100.295 30.2427C100.013 29.768 99.6171 29.3901 99.1068 29.1088C98.5964 28.8275 97.9541 28.6868 97.1797 28.6868C96.423 28.6868 95.7366 28.8626 95.1207 29.2143C94.5224 29.5483 94.0472 30.0405 93.6952 30.691C93.3433 31.3239 93.1673 32.0975 93.1673 33.0117V33.249C93.1673 34.1632 93.3433 34.9456 93.6952 35.596C94.0472 36.2465 94.5224 36.7388 95.1207 37.0728C95.7366 37.4069 96.423 37.5739 97.1797 37.5739C98.3236 37.5739 99.1947 37.2838 99.7931 36.7036C100.391 36.1059 100.77 35.3499 100.928 34.4357L103.568 35.0422C103.357 35.9389 102.978 36.7652 102.433 37.5211C101.905 38.2771 101.201 38.8836 100.321 39.3407C99.4411 39.7802 98.3764 40 97.1269 40Z" fill="#1A1A1A"/>
<path d="M113.726 40C112.406 40 111.253 39.7275 110.268 39.1825C109.282 38.6199 108.508 37.8376 107.945 36.8355C107.399 35.8158 107.126 34.6379 107.126 33.3018V32.9853C107.126 31.6316 107.399 30.4537 107.945 29.4516C108.49 28.4319 109.247 27.6496 110.215 27.1046C111.2 26.542 112.335 26.2607 113.62 26.2607C114.87 26.2607 115.961 26.542 116.893 27.1046C117.844 27.6496 118.583 28.4143 119.111 29.3989C119.639 30.3834 119.903 31.5349 119.903 32.8535V33.8819H109.898C109.933 35.0247 110.312 35.9389 111.033 36.6245C111.772 37.2926 112.687 37.6266 113.779 37.6266C114.799 37.6266 115.565 37.3981 116.075 36.941C116.603 36.4839 117.008 35.9564 117.289 35.3587L119.533 36.519C119.287 37.0113 118.926 37.5299 118.451 38.0749C117.993 38.6199 117.386 39.077 116.629 39.4462C115.873 39.8154 114.905 40 113.726 40ZM109.924 31.7986H117.131C117.061 30.8141 116.709 30.0493 116.075 29.5043C115.442 28.9418 114.614 28.6605 113.594 28.6605C112.573 28.6605 111.737 28.9418 111.086 29.5043C110.452 30.0493 110.065 30.8141 109.924 31.7986Z" fill="#1A1A1A"/>
</svg>
