<svg width="200" height="200" viewBox="0 0 200 200" fill="none" xmlns="http://www.w3.org/2000/svg">
<rect width="200" height="200" fill="#DDDDDD"/>
<path d="M60 60C60 37.9086 77.9086 20 100 20C122.091 20 140 37.9086 140 60V80H60V60Z" fill="#1A1A1A"/>
<rect x="38.5" y="78.5" width="126" height="93" rx="11.5" fill="#1A1A1A" stroke="#DDDDDD" stroke-width="3"/>
<path d="M80 60C80 48.9543 88.9543 40 100 40C111.046 40 120 48.9543 120 60V80H80V60Z" fill="#DDDDDD"/>
<mask id="path-4-outside-1_1019_8637" maskUnits="userSpaceOnUse" x="88" y="108" width="24" height="34" fill="black">
<rect fill="white" x="88" y="108" width="24" height="34"/>
<path fill-rule="evenodd" clip-rule="evenodd" d="M105 128.662C107.989 126.933 110 123.701 110 120C110 114.477 105.523 110 100 110C94.4772 110 90 114.477 90 120C90 123.701 92.011 126.933 95 128.662V140H105V128.662Z"/>
</mask>
<path d="M105 128.662L103.999 126.931L103 127.509V128.662H105ZM95 128.662H97V127.509L96.0015 126.931L95 128.662ZM95 140H93V142H95V140ZM105 140V142H107V140H105ZM108 120C108 122.959 106.395 125.545 103.999 126.931L106.001 130.393C109.583 128.322 112 124.444 112 120H108ZM100 112C104.418 112 108 115.582 108 120H112C112 113.373 106.627 108 100 108V112ZM92 120C92 115.582 95.5817 112 100 112V108C93.3726 108 88 113.373 88 120H92ZM96.0015 126.931C93.605 125.545 92 122.959 92 120H88C88 124.444 90.417 128.322 93.9985 130.393L96.0015 126.931ZM97 140V128.662H93V140H97ZM105 138H95V142H105V138ZM103 128.662V140H107V128.662H103Z" fill="#DDDDDD" mask="url(#path-4-outside-1_1019_8637)"/>
</svg>
