<svg width="64" height="64" viewBox="0 0 64 64" fill="none" xmlns="http://www.w3.org/2000/svg">
<rect width="64" height="64" fill="#DDDDDD"/>
<path fill-rule="evenodd" clip-rule="evenodd" d="M34.1332 8.5332H8.5332V55.4665H34.1332V42.5341C33.6932 42.5342 33.2532 42.67 32.8793 42.9416L25.6517 48.1928C23.9798 49.4075 21.7302 47.7731 22.3688 45.8076L25.1295 37.311C25.4151 36.432 25.1023 35.4691 24.3546 34.9259L17.1269 29.6747C15.455 28.46 16.3143 25.8155 18.3809 25.8155H27.3147C28.2389 25.8155 29.058 25.2203 29.3436 24.3414L32.1043 15.8448C32.4236 14.8621 33.2784 14.3707 34.1332 14.3707V8.5332Z" fill="#1A1A1A"/>
<path d="M42.6149 48.2225L35.3872 42.9713C35.0134 42.6997 34.5733 42.5639 34.1333 42.5639V14.4004C34.9881 14.4004 35.8429 14.8918 36.1622 15.8745L38.9229 24.3711C39.2085 25.2501 40.0276 25.8452 40.9518 25.8452H49.8857C51.9523 25.8452 52.8116 28.4897 51.1396 29.7044L43.912 34.9556C43.1643 35.4988 42.8514 36.4618 43.137 37.3407L45.8977 45.8373C46.5363 47.8028 44.2868 49.4372 42.6149 48.2225Z" fill="#1A1A1A"/>
</svg>
