<svg width="200" height="200" viewBox="0 0 200 200" fill="none" xmlns="http://www.w3.org/2000/svg">
<rect width="200" height="200" fill="#DDDDDD"/>
<rect x="20" y="20" width="160" height="160" fill="#1A1A1A"/>
<path d="M90 65.2066V40H40V90H64.7934" stroke="#DDDDDD" stroke-width="2" stroke-miterlimit="10"/>
<path d="M65.2066 110L40 110L40 160L90 160L90 135.207" stroke="#DDDDDD" stroke-width="2" stroke-miterlimit="10"/>
<path d="M50 50L69.1322 69.1322" stroke="#DDDDDD" stroke-width="2" stroke-miterlimit="10"/>
<path d="M79.8018 49.8672L49.8018 79.8672" stroke="#DDDDDD" stroke-width="2" stroke-miterlimit="10"/>
<path d="M129.167 168.586L73 112.419V73H112.419L168.586 129.167L129.167 168.586Z" fill="#DDDDDD" stroke="#DDDDDD" stroke-width="2"/>
<path d="M129.167 167.278L74.1777 112.289H92.1444L137.878 158.567L129.167 167.278Z" fill="#1A1A1A"/>
<path d="M167.278 129.169L112.289 74.1797L112.289 91.0575L159.111 137.335L167.278 129.169Z" fill="#1A1A1A"/>
<path d="M111.5 93.5H94.3223V112.288L138.967 157.477L158.022 138.422L111.5 93.5Z" fill="#1A1A1A"/>
<path d="M74.1777 87.2464V74.1797H87.2444L74.1777 87.2464Z" fill="#1A1A1A"/>
</svg>
