<svg width="64" height="64" viewBox="0 0 64 64" fill="none" xmlns="http://www.w3.org/2000/svg">
<g clip-path="url(#clip0_892_18265)">
<rect width="64" height="64" fill="#DDDDDD"/>
<rect width="64" height="64" fill="#DDDDDD"/>
<path d="M21.3335 8.5332C27.2245 8.5332 32.0002 13.3088 32.0002 19.1999V21.3332C26.1091 21.3332 21.3335 16.5576 21.3335 10.6665V8.5332Z" fill="#1A1A1A"/>
<path d="M21.3335 21.332C27.2245 21.332 32.0002 26.1077 32.0002 31.9987V34.132C26.1091 34.132 21.3335 29.3564 21.3335 23.4654V21.332Z" fill="#1A1A1A"/>
<path d="M32 19.1999C32 13.3088 36.7756 8.5332 42.6667 8.5332V10.6665C42.6667 16.5576 37.891 21.3332 32 21.3332V19.1999Z" fill="#1A1A1A"/>
<rect x="8.53345" y="34.1328" width="46.9333" height="21.3333" fill="#1A1A1A"/>
<path d="M32 31.9987C32 26.1077 36.7756 21.332 42.6667 21.332V23.4654C42.6667 29.3564 37.891 34.132 32 34.132V31.9987Z" fill="#1A1A1A"/>
<circle cx="32.0001" cy="44.8004" r="6.4" fill="#DDDDDD"/>
<line x1="32.0001" y1="18.1328" x2="32.0001" y2="34.1328" stroke="#1A1A1A" stroke-width="0.533333"/>
<line x1="32.0001" y1="34.1328" x2="32.0001" y2="38.3995" stroke="#DDDDDD" stroke-width="0.533333"/>
</g>
<defs>
<clipPath id="clip0_892_18265">
<rect width="64" height="64" fill="white"/>
</clipPath>
</defs>
</svg>
