<svg width="200" height="200" viewBox="0 0 200 200" fill="none" xmlns="http://www.w3.org/2000/svg">
<rect width="200" height="200" fill="#DDDDDD"/>
<path d="M100 140L120 160L100 180L80 160L100 140Z" fill="#1A1A1A"/>
<path fill-rule="evenodd" clip-rule="evenodd" d="M30 30C24.4772 30 20 34.4772 20 40V150C20 155.523 24.4772 160 30 160H170C175.523 160 180 155.523 180 150V40C180 34.4772 175.523 30 170 30H30ZM93.62 128.388L100 133.999L106.38 128.388C129.04 108.538 144 95.4032 144 79.3781C144 66.2435 133.352 55.9994 119.8 55.9994C112.144 55.9994 104.796 59.4424 100 64.8408C95.204 59.4424 87.856 55.9994 80.2 55.9994C66.648 55.9994 56 66.2435 56 79.3781C56 95.4032 70.96 108.538 93.62 128.388Z" fill="#1A1A1A"/>
</svg>
