<svg width="200" height="200" viewBox="0 0 200 200" fill="none" xmlns="http://www.w3.org/2000/svg">
<g clip-path="url(#clip0_1061_8236)">
<path d="M200 0H0V200H200V0Z" fill="#DDDDDD"/>
<path fill-rule="evenodd" clip-rule="evenodd" d="M173.333 26.668H26.6665V173.335H173.333V26.668ZM100.663 135.728C125.6 135.728 145.81 115.813 145.81 91.2485V91.2316C145.81 66.6838 125.6 46.772 100.663 46.772C94.7093 46.7208 88.8043 47.8333 83.289 50.0455C77.7735 52.2578 72.7568 55.5258 68.5285 59.6611C64.3002 63.7965 60.9438 68.717 58.6533 74.1388C56.363 79.5606 55.1837 85.3763 55.1837 91.2503C55.1837 97.1241 56.363 102.94 58.6533 108.362C60.9438 113.783 64.3002 118.704 68.5285 122.839C72.7568 126.975 77.7735 130.243 83.289 132.455C88.8043 134.667 94.7093 135.78 100.663 135.728ZM48.6665 91.2485C48.6665 62.9403 71.9488 40.0013 100.663 40.0013C129.384 40.0013 152.667 62.9438 152.667 91.2485C152.667 119.553 129.377 142.496 100.663 142.496C71.9488 142.496 48.6665 119.557 48.6665 91.2485ZM152.56 153.278H48.773V160.001H152.56V153.278ZM148.316 150.128C148.731 150.402 149.219 150.549 149.718 150.549C150.053 150.561 150.387 150.505 150.699 150.384C151.011 150.263 151.295 150.08 151.532 149.846C151.769 149.613 151.955 149.333 152.078 149.026C152.201 148.718 152.258 148.389 152.247 148.058C152.247 147.566 152.099 147.084 151.822 146.675C151.544 146.265 151.15 145.946 150.689 145.757C150.228 145.568 149.72 145.519 149.23 145.615C148.741 145.711 148.291 145.948 147.938 146.296C147.584 146.644 147.344 147.087 147.246 147.57C147.148 148.053 147.197 148.554 147.388 149.009C147.579 149.464 147.902 149.854 148.316 150.128ZM148.439 146.743C148.772 146.389 149.23 146.173 149.718 146.137V146.131C150.208 146.166 150.666 146.383 151 146.737C151.335 147.092 151.52 147.559 151.52 148.043C151.52 148.527 151.335 148.994 151 149.349C150.666 149.703 150.208 149.92 149.718 149.955C149.23 149.92 148.772 149.704 148.439 149.35C148.105 148.996 147.92 148.53 147.92 148.046C147.92 147.563 148.105 147.097 148.439 146.743ZM148.717 149.382H149.295V148.265H149.57L150.19 149.382H150.878L150.19 148.211C150.281 148.214 150.372 148.198 150.457 148.163C150.541 148.128 150.617 148.076 150.679 148.009C150.741 147.943 150.788 147.864 150.816 147.778C150.844 147.692 150.854 147.602 150.843 147.512C150.843 146.901 150.417 146.704 149.729 146.704H148.717V149.382ZM150.224 147.464C150.224 147.749 150.069 147.804 149.811 147.804L149.295 147.814V147.169H149.705C149.925 147.169 150.224 147.179 150.224 147.464ZM100.434 62.0003H78.9058V120.493H107.582C119.385 120.493 125.622 112.301 125.622 103.704C125.622 96.4955 121.635 91.089 114.318 89.616V89.4498C119.805 87.2403 123.125 82.5738 123.125 76.3495C123.167 73.8846 122.542 71.4533 121.316 69.3058C120.089 67.1583 118.304 65.3723 116.145 64.1316C112.57 62.0003 105.673 62.0003 100.434 62.0003ZM102.601 87.1453H86.7973V68.5538H102.601C109.419 68.5538 115.233 69.6975 115.233 77.8055C115.233 83.9516 111.573 87.1453 102.601 87.1453ZM106.588 113.926H86.7973V93.6955H104.837C111.49 93.6955 117.727 95.8268 117.727 103.446C117.727 109.83 113.399 113.926 106.588 113.926Z" fill="#1A1A1A"/>
</g>
<defs>
<clipPath id="clip0_1061_8236">
<rect width="200" height="200" fill="white"/>
</clipPath>
</defs>
</svg>
