<svg width="120" height="120" viewBox="0 0 120 120" fill="none" xmlns="http://www.w3.org/2000/svg">
<path fill-rule="evenodd" clip-rule="evenodd" d="M24.0003 43.8624C24.0748 59.4146 36.7049 71.9992 52.2744 72H52.2758H53H54V71L54 49.2609C54 39.1757 45.8243 31 35.7391 31C30.0383 31 25.2866 35.0636 24.2226 40.4522C24.0813 41.5698 24.0059 42.7078 24.0003 43.8624ZM55 49.2609L55 72L80 72L80 44C80 28.536 67.4639 16 52 16C39.5556 16 29.0074 24.1182 25.3624 35.3475C27.6724 32.1105 31.4593 30 35.7391 30C46.3766 30 55 38.6234 55 49.2609ZM36 48C38.2091 48 40 46.2091 40 44C40 41.7909 38.2091 40 36 40C33.7909 40 32 41.7909 32 44C32 46.2091 33.7909 48 36 48Z" fill="#1A1A1A"/>
<path d="M16 73H84C95.0457 73 104 81.9543 104 93V104H16V73Z" fill="#1A1A1A"/>
</svg>
