<svg width="88" height="88" viewBox="0 0 88 88" fill="none" xmlns="http://www.w3.org/2000/svg">
<path fill-rule="evenodd" clip-rule="evenodd" d="M24 0H32V8H48H68C79.0457 8 88 16.9543 88 28V64V72H0V68C0 65.7909 1.79086 64 4 64H48V24H40V40H24V48H17V56H16V48H8V40V24V16C8 11.5817 11.5817 8 16 8H24V0ZM88 73H0V88H88V73ZM72 40C76.4183 40 80 36.4183 80 32C80 27.5817 76.4183 24 72 24C67.5817 24 64 27.5817 64 32C64 36.4183 67.5817 40 72 40ZM64 44C64 46.2091 62.2091 48 60 48C57.7909 48 56 46.2091 56 44C56 41.7909 57.7909 40 60 40C62.2091 40 64 41.7909 64 44ZM57 60C57 58.3431 58.3431 57 60 57H76C77.6569 57 79 58.3431 79 60C79 61.6569 77.6569 63 76 63H60C58.3431 63 57 61.6569 57 60ZM56 60C56 57.7909 57.7909 56 60 56H76C78.2091 56 80 57.7909 80 60C80 62.2091 78.2091 64 76 64H60C57.7909 64 56 62.2091 56 60Z" fill="#1A1A1A"/>
</svg>
