<svg width="64" height="64" viewBox="0 0 64 64" fill="none" xmlns="http://www.w3.org/2000/svg">
<rect width="64" height="64" fill="#DDDDDD"/>
<line x1="21.504" y1="21.1272" x2="47.104" y2="42.4605" stroke="#1A1A1A" stroke-width="0.533333"/>
<line x1="21.5963" y1="21.3759" x2="17.3296" y2="46.9759" stroke="#1A1A1A" stroke-width="0.533333"/>
<line x1="46.6694" y1="42.6303" x2="50.936" y2="12.7636" stroke="#1A1A1A" stroke-width="0.533333"/>
<mask id="path-4-inside-1_892_18292" fill="white">
<path d="M34.1333 21.3332C34.1333 28.4024 28.4026 34.1332 21.3333 34.1332C14.2641 34.1332 8.53333 28.4024 8.53333 21.3332C8.53333 14.264 14.2641 8.5332 21.3333 8.5332C28.4026 8.5332 34.1333 14.264 34.1333 21.3332Z"/>
</mask>
<path d="M34.1333 21.3332C34.1333 28.4024 28.4026 34.1332 21.3333 34.1332C14.2641 34.1332 8.53333 28.4024 8.53333 21.3332C8.53333 14.264 14.2641 8.5332 21.3333 8.5332C28.4026 8.5332 34.1333 14.264 34.1333 21.3332Z" fill="#1A1A1A"/>
<path d="M33.6 21.3332C33.6 28.1079 28.108 33.5999 21.3333 33.5999V34.6665C28.6971 34.6665 34.6667 28.697 34.6667 21.3332H33.6ZM21.3333 33.5999C14.5586 33.5999 9.06666 28.1079 9.06666 21.3332H7.99999C7.99999 28.697 13.9695 34.6665 21.3333 34.6665V33.5999ZM9.06666 21.3332C9.06666 14.5585 14.5586 9.06654 21.3333 9.06654V7.99987C13.9695 7.99987 7.99999 13.9694 7.99999 21.3332H9.06666ZM21.3333 9.06654C28.108 9.06654 33.6 14.5585 33.6 21.3332H34.6667C34.6667 13.9694 28.6971 7.99987 21.3333 7.99987V9.06654Z" fill="#DDDDDD" mask="url(#path-4-inside-1_892_18292)"/>
<mask id="path-6-inside-2_892_18292" fill="white">
<path d="M55.4667 42.6681C55.4667 47.3809 51.6462 51.2014 46.9334 51.2014C42.2205 51.2014 38.4 47.3809 38.4 42.6681C38.4 37.9553 42.2205 34.1348 46.9334 34.1348C51.6462 34.1348 55.4667 37.9553 55.4667 42.6681Z"/>
</mask>
<path d="M55.4667 42.6681C55.4667 47.3809 51.6462 51.2014 46.9334 51.2014C42.2205 51.2014 38.4 47.3809 38.4 42.6681C38.4 37.9553 42.2205 34.1348 46.9334 34.1348C51.6462 34.1348 55.4667 37.9553 55.4667 42.6681Z" fill="#1A1A1A"/>
<path d="M54.9334 42.6681C54.9334 47.0864 51.3516 50.6681 46.9334 50.6681V51.7348C51.9407 51.7348 56 47.6755 56 42.6681H54.9334ZM46.9334 50.6681C42.5151 50.6681 38.9334 47.0864 38.9334 42.6681H37.8667C37.8667 47.6755 41.926 51.7348 46.9334 51.7348V50.6681ZM38.9334 42.6681C38.9334 38.2498 42.5151 34.6681 46.9334 34.6681V33.6014C41.926 33.6014 37.8667 37.6607 37.8667 42.6681H38.9334ZM46.9334 34.6681C51.3516 34.6681 54.9334 38.2498 54.9334 42.6681H56C56 37.6607 51.9407 33.6014 46.9334 33.6014V34.6681Z" fill="#DDDDDD" mask="url(#path-6-inside-2_892_18292)"/>
<mask id="path-8-inside-3_892_18292" fill="white">
<path d="M25.6 46.9337C25.6 51.6466 21.7795 55.4671 17.0667 55.4671C12.3538 55.4671 8.53333 51.6466 8.53333 46.9337C8.53333 42.2209 12.3538 38.4004 17.0667 38.4004C21.7795 38.4004 25.6 42.2209 25.6 46.9337Z"/>
</mask>
<path d="M25.6 46.9337C25.6 51.6466 21.7795 55.4671 17.0667 55.4671C12.3538 55.4671 8.53333 51.6466 8.53333 46.9337C8.53333 42.2209 12.3538 38.4004 17.0667 38.4004C21.7795 38.4004 25.6 42.2209 25.6 46.9337Z" fill="#DDDDDD"/>
<path d="M25.0667 46.9337C25.0667 51.352 21.4849 54.9337 17.0667 54.9337V56.0004C22.074 56.0004 26.1333 51.9411 26.1333 46.9337H25.0667ZM17.0667 54.9337C12.6484 54.9337 9.06666 51.352 9.06666 46.9337H7.99999C7.99999 51.9411 12.0593 56.0004 17.0667 56.0004V54.9337ZM9.06666 46.9337C9.06666 42.5154 12.6484 38.9337 17.0667 38.9337V37.8671C12.0593 37.8671 7.99999 41.9263 7.99999 46.9337H9.06666ZM17.0667 38.9337C21.4849 38.9337 25.0667 42.5154 25.0667 46.9337H26.1333C26.1333 41.9263 22.074 37.8671 17.0667 37.8671V38.9337Z" fill="#1A1A1A" mask="url(#path-8-inside-3_892_18292)"/>
<mask id="path-10-inside-4_892_18292" fill="white">
<path d="M55.4666 12.7999C55.4666 15.1563 53.5563 17.0665 51.1999 17.0665C48.8435 17.0665 46.9332 15.1563 46.9332 12.7999C46.9332 10.4435 48.8435 8.5332 51.1999 8.5332C53.5563 8.5332 55.4666 10.4435 55.4666 12.7999Z"/>
</mask>
<path d="M55.4666 12.7999C55.4666 15.1563 53.5563 17.0665 51.1999 17.0665C48.8435 17.0665 46.9332 15.1563 46.9332 12.7999C46.9332 10.4435 48.8435 8.5332 51.1999 8.5332C53.5563 8.5332 55.4666 10.4435 55.4666 12.7999Z" fill="#DDDDDD"/>
<path d="M54.9332 12.7999C54.9332 14.8617 53.2618 16.5332 51.1999 16.5332V17.5999C53.8509 17.5999 55.9999 15.4508 55.9999 12.7999H54.9332ZM51.1999 16.5332C49.138 16.5332 47.4666 14.8617 47.4666 12.7999H46.3999C46.3999 15.4508 48.5489 17.5999 51.1999 17.5999V16.5332ZM47.4666 12.7999C47.4666 10.738 49.138 9.06654 51.1999 9.06654V7.99987C48.5489 7.99987 46.3999 10.1489 46.3999 12.7999H47.4666ZM51.1999 9.06654C53.2618 9.06654 54.9332 10.738 54.9332 12.7999H55.9999C55.9999 10.1489 53.8509 7.99987 51.1999 7.99987V9.06654Z" fill="#1A1A1A" mask="url(#path-10-inside-4_892_18292)"/>
</svg>
