<svg width="200" height="200" viewBox="0 0 200 200" fill="none" xmlns="http://www.w3.org/2000/svg">
<g clip-path="url(#clip0_1061_14799)">
<path d="M200 0H0V200H200V0Z" fill="#DDDDDD"/>
<path fill-rule="evenodd" clip-rule="evenodd" d="M40 26.668H80V80.0013H113.333C139.107 80.0013 160 100.895 160 126.668V173.335H80H40V26.668ZM53.3333 66.668H66.6667V80.0013H53.3333V66.668ZM66.6667 40.0013H53.3333V53.3346H66.6667V40.0013ZM53.3333 93.3346H66.6667V106.668H53.3333V93.3346ZM66.6667 120.001H53.3333V133.335H66.6667V120.001ZM53.3333 146.668H66.6667V160.001H53.3333V146.668ZM80 100.001H133.333V98.3346H80V100.001ZM106.667 126.668H80V125.001H106.667V126.668ZM120 125.001V126.668H146.667V125.001H120ZM120 153.335H80V151.668H120V153.335ZM133.333 153.335H146.667V151.668H133.333V153.335Z" fill="#1A1A1A"/>
</g>
<defs>
<clipPath id="clip0_1061_14799">
<rect width="200" height="200" fill="white"/>
</clipPath>
</defs>
</svg>
