<svg width="90" height="90" viewBox="0 0 90 90" fill="none" xmlns="http://www.w3.org/2000/svg">
<path fill-rule="evenodd" clip-rule="evenodd" d="M44.8859 0.998988L0.920369 0.919221L1.00014 44.8848C1.0442 69.1663 20.764 88.8861 45.0455 88.9301L88.5977 89.0092L80.8105 81.2219L80.8104 81.222L71.8519 72.2635L71.8226 72.234L71.7991 72.2106L71.7948 72.2149L65.393 65.8131C56.2157 56.6358 41.3363 56.6358 32.159 65.8131L25.1048 72.8673L24.3977 72.1602L31.4519 65.106C39.3116 57.2463 51.1827 55.8431 60.4747 60.8963L57.1496 57.5711C56.9865 57.4081 56.8255 57.2437 56.6666 57.078L47.7739 48.1854L47.7693 48.19L33.8507 34.2713C26.866 27.2867 15.5415 27.2867 8.55685 34.2713L7.84975 33.5642C13.726 27.688 22.5111 26.4937 29.5698 29.9812L14.9065 15.318L15.6136 14.6109L52.1626 51.1598C44.7624 38.6895 46.4248 22.334 57.1496 11.6092L59.8784 8.88039L60.5855 9.5875L57.8567 12.3163C45.7157 24.4573 45.5572 44.0432 57.3813 56.3785L68.9467 67.944C66.8899 63.0387 67.8583 57.1653 71.8519 53.1717L74.5119 50.5117L75.219 51.2188L72.559 53.8788C67.6901 58.7477 67.6775 66.6339 72.5212 71.5184L89.0092 88.0065L88.9313 45.0443C88.8872 20.7628 69.1675 1.04304 44.8859 0.998988Z" fill="#1A1A1A"/>
</svg>
