<svg width="200" height="200" viewBox="0 0 200 200" fill="none" xmlns="http://www.w3.org/2000/svg">
<rect width="200" height="200" fill="#DDDDDD"/>
<rect x="20" y="20" width="160" height="160" fill="#1A1A1A"/>
<ellipse cx="43.4359" cy="88.0047" rx="2.5" ry="20" transform="rotate(-33.1241 43.4359 88.0047)" fill="#DDDDDD"/>
<path d="M75.3307 101.905C64.3015 102.507 55.4215 104.112 55.4967 105.491C55.572 106.87 64.5739 107.499 75.6032 106.897C86.6325 106.295 95.5125 104.69 95.4373 103.311C95.362 101.932 86.36 101.303 75.3307 101.905Z" fill="#DDDDDD"/>
<path d="M43.3109 122.794C48.3042 112.941 53.3505 105.46 54.5821 106.084C55.8137 106.708 52.7642 115.201 47.7709 125.054C42.7776 134.907 37.7313 142.388 36.4997 141.764C35.2681 141.139 38.3176 132.646 43.3109 122.794Z" fill="#DDDDDD"/>
<path d="M53.7324 105.5C53.7324 104.672 54.404 104 55.2324 104C56.0608 104 56.7324 104.672 56.7324 105.5V180H53.7324V105.5Z" fill="#DDDDDD"/>
<ellipse cx="105.765" cy="45.4382" rx="2.5" ry="20" transform="rotate(15 105.765 45.4382)" fill="#DDDDDD"/>
<path d="M116.706 78.4636C108.896 70.6532 101.773 65.113 100.796 66.0893C99.8199 67.0656 105.36 74.1887 113.171 81.9992C120.981 89.8097 128.104 95.3499 129.08 94.3735C130.057 93.3972 124.517 86.2741 116.706 78.4636Z" fill="#DDDDDD"/>
<path d="M79.7764 68.5693C90.4457 65.7105 99.3846 64.4741 99.7419 65.8078C100.099 67.1414 91.7398 70.5401 81.0704 73.399C70.4011 76.2578 61.4622 77.4942 61.1049 76.1605C60.7475 74.8269 69.107 71.4282 79.7764 68.5693Z" fill="#DDDDDD"/>
<path d="M99 65.5C99 64.6716 99.6716 64 100.5 64C101.328 64 102 64.6716 102 65.5V180H99V65.5Z" fill="#DDDDDD"/>
<ellipse cx="160.235" cy="91.0544" rx="2.5" ry="20" transform="rotate(45 160.235 91.0544)" fill="#DDDDDD"/>
<path d="M153.197 125.127C150.338 114.458 146.939 106.098 145.606 106.456C144.272 106.813 145.509 115.752 148.367 126.421C151.226 137.09 154.625 145.45 155.959 145.093C157.292 144.735 156.056 135.796 153.197 125.127Z" fill="#DDDDDD"/>
<path d="M126.163 98.0925C136.832 100.951 145.191 104.35 144.834 105.684C144.477 107.017 135.538 105.781 124.868 102.922C114.199 100.063 105.84 96.6646 106.197 95.331C106.554 93.9973 115.493 95.2337 126.163 98.0925Z" fill="#DDDDDD"/>
<path d="M143.733 105.5C143.733 104.672 144.404 104 145.233 104C146.061 104 146.733 104.672 146.733 105.5V180H143.733V105.5Z" fill="#DDDDDD"/>
</svg>
