<svg width="200" height="200" viewBox="0 0 200 200" fill="none" xmlns="http://www.w3.org/2000/svg">
<g clip-path="url(#clip0_1061_8275)">
<rect width="200" height="200" fill="#DDDDDD"/>
<mask id="mask0_1061_8275" style="mask-type:luminance" maskUnits="userSpaceOnUse" x="0" y="0" width="200" height="200">
<path d="M200 0H0V200H200V0Z" fill="white"/>
</mask>
<g mask="url(#mask0_1061_8275)">
<path fill-rule="evenodd" clip-rule="evenodd" d="M99.81 26.6642L26.5342 26.5312L26.667 99.8073C26.7405 140.276 59.6068 173.143 100.076 173.216L172.663 173.348L159.684 160.369L144.753 145.438L144.705 145.389L144.665 145.35L144.658 145.357L133.989 134.688C118.693 119.392 93.894 119.392 78.5985 134.688L66.8415 146.445L65.663 145.266L77.42 133.509C90.5195 120.41 110.305 118.071 125.791 126.493L120.25 120.951C119.978 120.679 119.709 120.405 119.445 120.129L104.623 105.308L104.616 105.316L81.418 82.1181C69.7768 70.4771 50.9027 70.4771 39.2617 82.1181L38.083 80.9396C47.8768 71.1459 62.5187 69.1554 74.2832 74.9679L49.8443 50.5293L51.0228 49.3508L111.938 110.266C99.6042 89.4817 102.375 62.2226 120.25 44.3479L124.798 39.7999L125.976 40.9784L121.428 45.5264C101.193 65.7614 100.929 98.4046 120.636 118.963L139.911 138.239C136.483 130.064 138.097 120.275 144.753 113.619L149.187 109.185L150.365 110.364L145.932 114.797C137.817 122.912 137.796 136.056 145.869 144.197L173.349 171.676L173.219 100.073C173.145 59.6039 140.279 26.7376 99.81 26.6642Z" fill="#1A1A1A"/>
</g>
</g>
<defs>
<clipPath id="clip0_1061_8275">
<rect width="200" height="200" fill="white"/>
</clipPath>
</defs>
</svg>
