<svg width="200" height="200" viewBox="0 0 200 200" fill="none" xmlns="http://www.w3.org/2000/svg">
<rect width="200" height="200" fill="#DDDDDD"/>
<path d="M150 70V60H80C64 60 60 73.3333 60 80V140C60 156 73.3333 160 80 160H150V150H80C72 150 70 143.333 70 140V80C70 72 76.6667 70 80 70H150Z" fill="#1A1A1A"/>
<path d="M50 30H32C30.8954 30 30 30.8954 30 32V40M30 40V48C30 49.1046 30.8954 50 32 50H48C49.1046 50 50 49.1046 50 48V42C50 40.8954 49.1046 40 48 40H30Z" stroke="#1A1A1A" stroke-width="1.67"/>
<rect x="19.165" y="19.165" width="161.67" height="161.67" rx="1.835" stroke="#1A1A1A" stroke-width="1.67"/>
</svg>
