<svg width="77" height="88" viewBox="0 0 77 88" fill="none" xmlns="http://www.w3.org/2000/svg">
<path d="M22.6234 16.4492H38.2312C42.0296 16.4492 47.0301 16.4492 49.6215 17.9944C51.1869 18.8939 52.4809 20.1888 53.3704 21.7458C54.2599 23.3027 54.7126 25.0654 54.6819 26.8524C54.6819 31.3651 52.2751 34.7483 48.2971 36.3501V36.4707C53.602 37.5386 56.4926 41.4582 56.4926 46.6844C56.4926 52.917 51.9708 58.8567 43.4138 58.8567H22.6234V16.4492ZM28.3448 34.6794H39.8024C46.3069 34.6794 48.9605 32.364 48.9605 27.908C48.9605 22.0297 44.7456 21.2005 39.8024 21.2005H28.3448V34.6794ZM28.3448 54.0956H42.693C47.6312 54.0956 50.7687 51.1257 50.7687 46.4974C50.7687 40.9735 46.247 39.4283 41.4235 39.4283H28.3448V54.0956Z" fill="#1A1A1A"/>
<path d="M71.1293 37.6543C71.1293 55.4637 56.4768 69.9022 38.3975 69.9022C34.0811 69.9394 29.8 69.1328 25.8013 67.5289C21.8026 65.925 18.1655 63.5557 15.0999 60.5576C12.0344 57.5595 9.60108 53.9921 7.94051 50.0613C6.27993 46.1304 5.42497 41.914 5.42497 37.6555C5.42497 33.3969 6.27993 29.1805 7.94051 25.2497C9.60108 21.3189 12.0344 17.7515 15.0999 14.7534C18.1655 11.7553 21.8026 9.38595 25.8013 7.78208C29.8 6.17821 34.0811 5.37159 38.3975 5.40879C56.4768 5.40879 71.1293 19.8448 71.1293 37.6419M38.3975 0.5C17.5797 0.5 0.699951 17.1308 0.699951 37.6543C0.699951 58.1777 17.5797 74.8085 38.3975 74.8085C59.2153 74.8085 76.1 58.1752 76.1 37.6543C76.1 17.1333 59.2202 0.5 38.3975 0.5ZM0.777267 82.6257H76.0226V87.5H0.777267V82.6257ZM73.9626 80.6474C73.6006 80.6469 73.2469 80.5406 72.9462 80.3418C72.6455 80.1431 72.4112 79.8608 72.2731 79.5308C72.1349 79.2007 72.099 78.8377 72.1699 78.4875C72.2408 78.1373 72.4154 77.8157 72.6715 77.5634C72.9276 77.3111 73.2538 77.1393 73.6088 77.0698C73.9639 77.0003 74.3318 77.0362 74.6662 77.173C75.0005 77.3098 75.2863 77.5413 75.4873 77.8382C75.6884 78.1352 75.7957 78.4842 75.7957 78.8413C75.8041 79.081 75.7623 79.3197 75.6731 79.5427C75.584 79.7657 75.4492 79.9682 75.2772 80.1377C75.1053 80.3071 74.8998 80.4398 74.6736 80.5275C74.4475 80.6151 74.2054 80.656 73.9626 80.6474ZM73.9626 77.4487C73.6082 77.4742 73.2767 77.6311 73.0348 77.8879C72.7929 78.1446 72.6584 78.4822 72.6584 78.8327C72.6584 79.1833 72.7929 79.5208 73.0348 79.7776C73.2767 80.0343 73.6082 80.1912 73.9626 80.2168C74.3176 80.1912 74.6496 80.034 74.892 79.7768C75.1344 79.5196 75.2691 79.1814 75.2691 78.8303C75.2691 78.4791 75.1344 78.1409 74.892 77.8837C74.6496 77.6265 74.3176 77.4693 73.9626 77.4437V77.4487ZM73.6558 79.801H73.2368V77.8596H73.97C74.4688 77.8596 74.7781 78.0023 74.7781 78.4452C74.7857 78.5102 74.7789 78.5761 74.7584 78.6383C74.7378 78.7005 74.7039 78.7576 74.6589 78.8057C74.6139 78.8538 74.5589 78.8918 74.4977 78.9171C74.4365 78.9423 74.3705 78.9543 74.3042 78.9521L74.803 79.801H74.3042L73.8553 78.9914H73.6558V79.801ZM74.0299 78.6568C74.2169 78.6568 74.3292 78.6174 74.3292 78.4108C74.3292 78.2041 74.1122 78.1967 73.9526 78.1967H73.6558V78.6642L74.0299 78.6568Z" fill="#1A1A1A"/>
</svg>
