<svg width="208" height="208" viewBox="0 0 208 208" fill="none" xmlns="http://www.w3.org/2000/svg">
<g clip-path="url(#clip0_1061_8940)" filter="url(#filter0_d_1061_8940)">
<rect width="200" height="200" transform="translate(4)" fill="#DDDDDD"/>
<path d="M184 60C184 70.5058 181.931 80.9086 177.91 90.6147C173.89 100.321 167.997 109.14 160.569 116.569C153.14 123.997 144.321 129.89 134.615 133.91C124.909 137.931 114.506 140 104 140C93.4942 140 83.0914 137.931 73.3853 133.91C63.6793 129.89 54.8601 123.997 47.4315 116.569C40.0028 109.14 34.11 100.321 30.0896 90.6147C26.0693 80.9086 24 70.5057 24 60L104 60H184Z" fill="#1A1A1A"/>
<mask id="path-2-inside-1_1061_8940" fill="white">
<path d="M184 60C184 70.5058 181.931 80.9086 177.91 90.6147C173.89 100.321 167.997 109.14 160.569 116.569C153.14 123.997 144.321 129.89 134.615 133.91C124.909 137.931 114.506 140 104 140C93.4942 140 83.0914 137.931 73.3853 133.91C63.6793 129.89 54.8601 123.997 47.4315 116.569C40.0028 109.14 34.11 100.321 30.0896 90.6147C26.0693 80.9086 24 70.5057 24 60H56.0087C56.0087 66.3023 57.25 72.5429 59.6618 78.3655C62.0736 84.188 65.6086 89.4786 70.065 93.935C74.5214 98.3914 79.812 101.926 85.6345 104.338C91.4571 106.75 97.6977 107.991 104 107.991C110.302 107.991 116.543 106.75 122.365 104.338C128.188 101.926 133.479 98.3914 137.935 93.935C142.391 89.4786 145.926 84.188 148.338 78.3655C150.75 72.5429 151.991 66.3023 151.991 60H184Z"/>
</mask>
<path d="M184 60C184 70.5058 181.931 80.9086 177.91 90.6147C173.89 100.321 167.997 109.14 160.569 116.569C153.14 123.997 144.321 129.89 134.615 133.91C124.909 137.931 114.506 140 104 140C93.4942 140 83.0914 137.931 73.3853 133.91C63.6793 129.89 54.8601 123.997 47.4315 116.569C40.0028 109.14 34.11 100.321 30.0896 90.6147C26.0693 80.9086 24 70.5057 24 60H56.0087C56.0087 66.3023 57.25 72.5429 59.6618 78.3655C62.0736 84.188 65.6086 89.4786 70.065 93.935C74.5214 98.3914 79.812 101.926 85.6345 104.338C91.4571 106.75 97.6977 107.991 104 107.991C110.302 107.991 116.543 106.75 122.365 104.338C128.188 101.926 133.479 98.3914 137.935 93.935C142.391 89.4786 145.926 84.188 148.338 78.3655C150.75 72.5429 151.991 66.3023 151.991 60H184Z" fill="#DDDDDD" stroke="#1A1A1A" stroke-width="3.34" mask="url(#path-2-inside-1_1061_8940)"/>
<path d="M104 150C80.1305 150 57.2387 140.518 40.3604 123.64L104 60L104 150Z" fill="#DDDDDD" stroke="#1A1A1A" stroke-width="1.67"/>
<path d="M104 150C115.819 150 127.522 147.672 138.442 143.149C149.361 138.626 159.282 131.997 167.64 123.64L104 60L104 150Z" fill="#DDDDDD" stroke="#1A1A1A" stroke-width="1.67"/>
<path d="M104 97.9384L94.5002 59.9392C94.508 58.7123 94.7535 57.4984 95.2231 56.3645C95.7006 55.2119 96.4003 54.1646 97.2825 53.2825C98.1646 52.4003 99.2119 51.7006 100.365 51.2231C101.517 50.7457 102.752 50.5 104 50.5C105.248 50.5 106.483 50.7457 107.635 51.2231C108.788 51.7006 109.835 52.4003 110.718 53.2825C111.6 54.1646 112.299 55.2119 112.777 56.3645C113.247 57.4984 113.492 58.7123 113.5 59.9392L104 97.9384Z" fill="#1A1A1A" stroke="#1A1A1A"/>
<path d="M84 37H94C96.7614 37 99 39.2386 99 42V52" stroke="#1A1A1A"/>
<path d="M84 37H94C96.7614 37 99 39.2386 99 42V52" stroke="#1A1A1A" stroke-width="1.67"/>
<path d="M124 37H114C111.239 37 109 39.2386 109 42V52" stroke="#1A1A1A" stroke-width="1.67"/>
<circle cx="165.5" cy="78.5" r="8.335" stroke="#1A1A1A" stroke-width="1.67"/>
<circle cx="42.5" cy="78.5" r="8.335" stroke="#1A1A1A" stroke-width="1.67"/>
<circle cx="129" cy="120" r="10.835" stroke="#1A1A1A" stroke-width="1.67"/>
<circle cx="79" cy="120" r="10.835" stroke="#1A1A1A" stroke-width="1.67"/>
</g>
<defs>
<filter id="filter0_d_1061_8940" x="0" y="0" width="208" height="208" filterUnits="userSpaceOnUse" color-interpolation-filters="sRGB">
<feFlood flood-opacity="0" result="BackgroundImageFix"/>
<feColorMatrix in="SourceAlpha" type="matrix" values="0 0 0 0 0 0 0 0 0 0 0 0 0 0 0 0 0 0 127 0" result="hardAlpha"/>
<feOffset dy="4"/>
<feGaussianBlur stdDeviation="2"/>
<feComposite in2="hardAlpha" operator="out"/>
<feColorMatrix type="matrix" values="0 0 0 0 0 0 0 0 0 0 0 0 0 0 0 0 0 0 0.25 0"/>
<feBlend mode="normal" in2="BackgroundImageFix" result="effect1_dropShadow_1061_8940"/>
<feBlend mode="normal" in="SourceGraphic" in2="effect1_dropShadow_1061_8940" result="shape"/>
</filter>
<clipPath id="clip0_1061_8940">
<rect width="200" height="200" fill="white" transform="translate(4)"/>
</clipPath>
</defs>
</svg>
