<svg width="200" height="200" viewBox="0 0 200 200" fill="none" xmlns="http://www.w3.org/2000/svg">
<g clip-path="url(#clip0_1061_8342)">
<path d="M200 0H0V200H200V0Z" fill="#DDDDDD"/>
<path d="M30 150C30 144.477 34.4772 140 40 140H170V170H30V150Z" fill="#1A1A1A"/>
<line x1="30" y1="150" x2="170" y2="150" stroke="#DDDDDD" stroke-width="2"/>
<path d="M40 60C40 48.9543 48.9543 40 60 40H150C161.046 40 170 48.9543 170 60V140H40V60Z" fill="#1A1A1A"/>
<path d="M70 75C70 72.2386 72.2386 70 75 70H95C97.7614 70 100 72.2386 100 75V140H70V75Z" fill="#DDDDDD"/>
<path d="M40 120H100V140H40V120Z" fill="#DDDDDD"/>
<line x1="50" y1="120" x2="50" y2="130" stroke="#1A1A1A" stroke-width="2"/>
<circle cx="140" cy="80" r="10" fill="#D9D9D9"/>
<circle cx="125" cy="105" r="5" fill="#D9D9D9"/>
<path d="M71 35C71 32.2386 73.2386 30 76 30H95C97.7614 30 100 32.2386 100 35V40H71V35Z" fill="#1A1A1A"/>
<path d="M120 130C120 127.239 122.239 125 125 125H145C147.761 125 150 127.239 150 130V130C150 132.761 147.761 135 145 135H125C122.239 135 120 132.761 120 130V130Z" stroke="#DDDDDD" stroke-width="2"/>
</g>
<defs>
<clipPath id="clip0_1061_8342">
<rect width="200" height="200" fill="white"/>
</clipPath>
</defs>
</svg>
