<svg width="200" height="200" viewBox="0 0 200 200" fill="none" xmlns="http://www.w3.org/2000/svg">
<g clip-path="url(#clip0_1061_8577)">
<rect width="200" height="200" fill="#DDDDDD"/>
<rect x="91.8248" y="184.325" width="138.33" height="68.33" transform="rotate(-105 91.8248 184.325)" fill="#DDDDDD" stroke="#1A1A1A" stroke-width="1.67"/>
<path fill-rule="evenodd" clip-rule="evenodd" d="M70.3344 53.2551L110.903 42.3847C111.904 46.1189 115.742 48.335 119.476 47.3344L148.464 155.518C144.73 156.519 142.514 160.357 143.514 164.091L102.946 174.962C101.945 171.227 98.1066 169.011 94.3723 170.012L65.3846 61.8283C69.1189 60.8277 71.335 56.9893 70.3344 53.2551Z" fill="#1A1A1A"/>
<circle cx="106.924" cy="108.675" r="21" transform="rotate(-105 106.924 108.675)" fill="#DDDDDD"/>
<circle cx="119.606" cy="156.005" r="7" transform="rotate(-105 119.606 156.005)" fill="#DDDDDD"/>
<circle cx="94.2422" cy="61.3448" r="7" transform="rotate(-105 94.2422 61.3448)" fill="#DDDDDD"/>
<rect x="50.835" y="199.165" width="138.33" height="68.33" transform="rotate(-90 50.835 199.165)" fill="#DDDDDD" stroke="#1A1A1A" stroke-width="1.67"/>
<path fill-rule="evenodd" clip-rule="evenodd" d="M64 67L106 67C106 70.866 109.134 74 113 74L113 186C109.134 186 106 189.134 106 193L64 193C64 189.134 60.866 186 57 186L57 74C60.866 74 64 70.866 64 67Z" fill="#1A1A1A"/>
<circle cx="85" cy="130" r="21" transform="rotate(-90 85 130)" fill="#DDDDDD"/>
<circle cx="85" cy="179" r="7" transform="rotate(-90 85 179)" fill="#DDDDDD"/>
<circle cx="85" cy="81" r="7" transform="rotate(-90 85 81)" fill="#DDDDDD"/>
<rect x="46.1406" y="171.937" width="138.33" height="68.33" transform="rotate(-60 46.1406 171.937)" fill="#DDDDDD" stroke="#1A1A1A" stroke-width="1.67"/>
<path fill-rule="evenodd" clip-rule="evenodd" d="M123.624 64.0605L159.997 85.0605C158.064 88.4085 159.211 92.6897 162.559 94.6227L106.559 191.618C103.211 189.685 98.9303 190.832 96.9973 194.18L60.6242 173.18C62.5572 169.832 61.4101 165.551 58.062 163.618L114.062 66.6227C117.41 68.5557 121.691 67.4085 123.624 64.0605Z" fill="#1A1A1A"/>
<circle cx="110.311" cy="129.122" r="21" transform="rotate(-60 110.311 129.122)" fill="#DDDDDD"/>
<circle cx="85.8107" cy="171.555" r="7" transform="rotate(-60 85.8107 171.555)" fill="#DDDDDD"/>
<circle cx="134.811" cy="86.6839" r="7" transform="rotate(-60 134.811 86.6839)" fill="#DDDDDD"/>
<mask id="path-16-inside-1_1061_8577" fill="white">
<path d="M20 140H180V200H20V140Z"/>
</mask>
<path d="M20 140H180V200H20V140Z" fill="#DDDDDD"/>
<path d="M20 141.67H180V138.33H20V141.67Z" fill="#1A1A1A" mask="url(#path-16-inside-1_1061_8577)"/>
</g>
<defs>
<clipPath id="clip0_1061_8577">
<rect width="200" height="200" fill="white"/>
</clipPath>
</defs>
</svg>
