<svg width="200" height="200" viewBox="0 0 200 200" fill="none" xmlns="http://www.w3.org/2000/svg">
<g clip-path="url(#clip0_1061_8324)">
<path d="M200 0H0V200H200V0Z" fill="#DDDDDD"/>
<path fill-rule="evenodd" clip-rule="evenodd" d="M40.0005 73.1053C40.1247 99.0256 61.1748 120 87.124 120.001H87.1265H88.3333H90V118.335V82.1028C90 65.2941 76.3738 51.668 59.5652 51.668C50.0638 51.668 42.1445 58.4406 40.371 67.4216C40.1355 69.2843 40.0098 71.181 40.0005 73.1053ZM91.6667 82.1028V120.001H133.333V73.3346C133.333 47.5613 112.44 26.668 86.6667 26.668C65.9262 26.668 48.3458 40.1983 42.2708 58.9138C46.1207 53.5188 52.4322 50.0013 59.5652 50.0013C77.2943 50.0013 91.6667 64.3736 91.6667 82.1028ZM60 80.0013C63.682 80.0013 66.6667 77.0165 66.6667 73.3346C66.6667 69.6528 63.682 66.668 60 66.668C56.3182 66.668 53.3333 69.6528 53.3333 73.3346C53.3333 77.0165 56.3182 80.0013 60 80.0013Z" fill="#1A1A1A"/>
<path d="M26.6665 121.668H140C158.409 121.668 173.333 136.592 173.333 155.001V173.335H26.6665V121.668Z" fill="#1A1A1A"/>
</g>
<defs>
<clipPath id="clip0_1061_8324">
<rect width="200" height="200" fill="white"/>
</clipPath>
</defs>
</svg>
