<svg width="200" height="200" viewBox="0 0 200 200" fill="none" xmlns="http://www.w3.org/2000/svg">
<rect width="200" height="200" fill="#DDDDDD"/>
<rect x="61.5" y="32.5" width="76" height="136" rx="7.5" stroke="#1A1A1A" stroke-width="5"/>
<rect x="70" y="141" width="60" height="29" stroke="#1A1A1A" stroke-width="1.67"/>
<rect x="70.835" y="80.835" width="18.33" height="18.33" fill="#1A1A1A" stroke="#1A1A1A" stroke-width="1.67"/>
<rect x="70.835" y="110.835" width="18.33" height="18.33" stroke="#1A1A1A" stroke-width="1.67"/>
<line x1="100" y1="96.5" x2="130" y2="96.5" stroke="#1A1A1A"/>
<line x1="100" y1="91.5" x2="130" y2="91.5" stroke="#1A1A1A"/>
<line x1="100" y1="86.5" x2="130" y2="86.5" stroke="#1A1A1A"/>
<rect x="100" y="80" width="20" height="2" fill="#1A1A1A"/>
<line x1="100" y1="126.5" x2="130" y2="126.5" stroke="#1A1A1A"/>
<line x1="100" y1="121.5" x2="130" y2="121.5" stroke="#1A1A1A"/>
<line x1="100" y1="116.5" x2="130" y2="116.5" stroke="#1A1A1A"/>
<rect x="100" y="110" width="10" height="2" fill="#1A1A1A"/>
<rect x="83.0713" y="86" width="2" height="10" transform="rotate(45 83.0713 86)" fill="#DDDDDD"/>
<rect width="2" height="10" transform="matrix(-0.707107 0.707107 0.707107 0.707107 77.4146 86)" fill="#DDDDDD"/>
<path d="M84.1331 115.758L85.5473 117.172L78.4762 124.243L77.062 122.829L84.1331 115.758Z" fill="#1A1A1A"/>
<path d="M76.3522 119.295L74.938 120.709L78.4735 124.244L79.8877 122.83L76.3522 119.295Z" fill="#1A1A1A"/>
<rect x="70.835" y="30.835" width="58.33" height="38.33" stroke="#1A1A1A" stroke-width="1.67"/>
<path fill-rule="evenodd" clip-rule="evenodd" d="M82.6753 30C80.9735 32.9418 79.9995 36.3574 79.9995 40.0004C79.9995 51.0463 88.954 60.0007 99.9999 60.0007C111.046 60.0007 120 51.0463 120 40.0004C120 36.3574 119.026 32.9418 117.324 30H82.6753Z" fill="#1A1A1A"/>
<rect x="98" y="35" width="4" height="9" fill="#DDDDDD"/>
<rect x="98" y="48" width="4" height="4" fill="#DDDDDD"/>
</svg>
