<svg width="200" height="200" viewBox="0 0 200 200" fill="none" xmlns="http://www.w3.org/2000/svg">
<rect width="200" height="200" fill="#DDDDDD"/>
<circle cx="65" cy="65" r="44.165" stroke="#1A1A1A" stroke-width="1.67"/>
<rect x="64.165" y="64.165" width="85.67" height="86.67" fill="#DDDDDD" stroke="#1A1A1A" stroke-width="1.67"/>
<mask id="path-3-outside-1_1061_8554" maskUnits="userSpaceOnUse" x="142.343" y="143.338" width="32.5269" height="32.5269" fill="black">
<rect fill="white" x="142.343" y="143.338" width="32.5269" height="32.5269"/>
<path fill-rule="evenodd" clip-rule="evenodd" d="M167.792 159.609L152.593 153.595L158.607 168.794L162.139 165.262L165.674 168.798L167.796 166.676L164.26 163.141L167.792 159.609Z"/>
</mask>
<path fill-rule="evenodd" clip-rule="evenodd" d="M167.792 159.609L152.593 153.595L158.607 168.794L162.139 165.262L165.674 168.798L167.796 166.676L164.26 163.141L167.792 159.609Z" fill="#DDDDDD"/>
<path d="M152.593 153.595L153.207 152.042L149.621 150.623L151.04 154.209L152.593 153.595ZM167.792 159.609L168.973 160.789L170.771 158.991L168.407 158.056L167.792 159.609ZM158.607 168.794L157.054 169.409L157.989 171.773L159.787 169.975L158.607 168.794ZM162.139 165.262L163.32 164.081L162.139 162.9L160.958 164.081L162.139 165.262ZM165.674 168.798L164.493 169.978L165.674 171.159L166.855 169.978L165.674 168.798ZM167.796 166.676L168.976 167.857L170.157 166.676L168.976 165.495L167.796 166.676ZM164.26 163.141L163.079 161.96L161.898 163.141L163.079 164.322L164.26 163.141ZM151.978 155.148L167.178 161.161L168.407 158.056L153.207 152.042L151.978 155.148ZM160.159 168.18L154.146 152.98L151.04 154.209L157.054 169.409L160.159 168.18ZM160.958 164.081L157.426 167.613L159.787 169.975L163.32 166.443L160.958 164.081ZM166.855 167.617L163.32 164.081L160.958 166.443L164.493 169.978L166.855 167.617ZM166.615 165.495L164.493 167.617L166.855 169.978L168.976 167.857L166.615 165.495ZM163.079 164.322L166.615 167.857L168.976 165.495L165.441 161.96L163.079 164.322ZM166.611 158.428L163.079 161.96L165.441 164.322L168.973 160.789L166.611 158.428Z" fill="#1A1A1A" mask="url(#path-3-outside-1_1061_8554)"/>
<path d="M65 110.001C89.8528 110.001 110 89.8537 110 65.0009L65 65V110.001Z" fill="#1A1A1A"/>
<circle cx="105" cy="125" r="15" fill="#1A1A1A"/>
<circle cx="165" cy="35" r="14.165" stroke="#1A1A1A" stroke-width="1.67"/>
</svg>
