<svg width="200" height="200" viewBox="0 0 200 200" fill="none" xmlns="http://www.w3.org/2000/svg">
<g clip-path="url(#clip0_1061_8368)">
<path d="M200 0H0V200H200V0Z" fill="#DDDDDD"/>
<path d="M26.6665 173.335C63.4855 173.335 93.3332 140.502 93.3332 100.001C93.3332 59.5005 63.4855 26.668 26.6665 26.668V173.335Z" fill="#1A1A1A"/>
<path d="M100 66.668C111.046 66.668 120 57.7137 120 46.668C120 35.6223 111.046 26.668 100 26.668C88.9543 26.668 80 35.6223 80 46.668C80 57.7137 88.9543 66.668 100 66.668Z" fill="#1A1A1A"/>
<path d="M120 106.667C127.364 106.667 133.333 100.697 133.333 93.3333C133.333 85.9695 127.364 80 120 80C112.636 80 106.667 85.9695 106.667 93.3333C106.667 100.697 112.636 106.667 120 106.667Z" fill="#1A1A1A"/>
<path d="M86.6667 160.001C90.3486 160.001 93.3333 157.017 93.3333 153.335C93.3333 149.653 90.3486 146.668 86.6667 146.668C82.9848 146.668 80 149.653 80 153.335C80 157.017 82.9848 160.001 86.6667 160.001Z" fill="#1A1A1A"/>
<path d="M146.667 65.832C153.57 65.832 159.167 60.2356 159.167 53.332C159.167 46.4285 153.57 40.832 146.667 40.832C139.763 40.832 134.167 46.4285 134.167 53.332C134.167 60.2356 139.763 65.832 146.667 65.832Z" stroke="#1A1A1A" stroke-width="1.67"/>
<path d="M166.667 172.499C169.888 172.499 172.5 169.887 172.5 166.665C172.5 163.444 169.888 160.832 166.667 160.832C163.445 160.832 160.833 163.444 160.833 166.665C160.833 169.887 163.445 172.499 166.667 172.499Z" stroke="#1A1A1A" stroke-width="1.67"/>
<path d="M153.333 105.835C156.555 105.835 159.167 103.223 159.167 100.001C159.167 96.7796 156.555 94.168 153.333 94.168C150.112 94.168 147.5 96.7796 147.5 100.001C147.5 103.223 150.112 105.835 153.333 105.835Z" stroke="#1A1A1A" stroke-width="1.67"/>
<path d="M120 159.168C126.904 159.168 132.5 153.572 132.5 146.668C132.5 139.764 126.904 134.168 120 134.168C113.096 134.168 107.5 139.764 107.5 146.668C107.5 153.572 113.096 159.168 120 159.168Z" stroke="#1A1A1A" stroke-width="1.67"/>
</g>
<defs>
<clipPath id="clip0_1061_8368">
<rect width="200" height="200" fill="white"/>
</clipPath>
</defs>
</svg>
