<svg width="120" height="120" viewBox="0 0 120 120" fill="none" xmlns="http://www.w3.org/2000/svg">
<ellipse cx="56" cy="60" rx="40" ry="44" fill="#1A1A1A"/>
<path d="M103.5 60C103.5 72.0378 99.3675 82.9295 93.2045 90.8046C87.0352 98.6879 78.8747 103.5 70.8316 103.5H70.7841H70.7367H70.6892H70.6418H70.5945H70.5471H70.4998H70.4525H70.4053H70.3581H70.3109H70.2638H70.2167H70.1697H70.1226H70.0756H70.0287H69.9818H69.9349H69.888H69.8412H69.7944H69.7477H69.701H69.6543H69.6077H69.5611H69.5146H69.4681H69.4216H69.3752H69.3288H69.2824H69.2361H69.1898H69.1436H69.0974H69.0512H69.0051H68.959H68.913H68.867H68.8211H68.7752H68.7293H68.6835H68.6377H68.592H68.5463H68.5006H68.455H68.4094H68.3639H68.3184H68.273H68.2276H68.1823H68.137H68.0918H68.0466H68.0014H67.9563H67.9112H67.8662H67.8212H67.7763H67.7314H67.6866H67.6418H67.5971H67.5524H67.5078H67.4632H67.4187H67.3742H67.3297H67.2853H67.241H67.1967H67.1525H67.1083H67.0642H67.0201H66.976H66.9321H66.8881H66.8443H66.8004H66.7567H66.7129H66.6693H66.6257H66.5821H66.5386H66.4952H66.4518H66.4084H66.3651H66.3219H66.2787H66.2356H66.1926H66.1495H66.1066H66.0637H66.0209H65.9781H65.9354H65.8927H65.8501H65.8075H65.765H65.7226H65.6802H65.6379H65.5957H65.5535H65.5113H65.4692H65.4272H65.3853H65.3434H65.3015H65.2598H65.218H65.1764H65.1348H65.0933H65.0518H65.0104H64.9691H64.9278H64.8866H64.8454H64.8043H64.7633H64.7223H64.6814H64.6406H64.5999H64.5592H64.5185H64.4779H64.4374H64.397H64.3566H64.3163H64.2761H64.2359H64.1958H64.1558H64.1158H64.0759H64.0361H63.9963H63.9566H63.917H63.8774H63.8379H63.7985H63.7592H63.7199H63.6807H63.6416H63.6025H63.5635H63.5246H63.4857H63.4469H63.4082H63.3696H63.331H63.2925H63.2541H63.2158H63.1775H63.1393H63.1012H63.0631H63.0252H62.9873H62.9494H62.9117H62.874H62.8364H62.7989H62.7614H62.7241H62.6868H62.6496H62.6124H62.5754H62.5384H62.5015H62.4646H62.4279H62.3912H62.3546H62.3181H62.2817H62.2453H62.209H62.1728H62.1367H62.1007H62.0647H62.0288H61.9931H61.9573H61.9217H61.8862H61.8507H61.8153H61.78H61.7448H61.7097H61.6746H61.6396H61.6047H61.5699H61.5352H61.5006H61.466H61.4316H61.3972H61.3629H61.3287H61.2946H61.2605H61.2266H61.1927H61.159H61.1253H61.0917H61.0581H61.0247H60.9914H60.9581H60.925H60.8919H60.8589H60.826H60.7932H60.7605H60.7279H60.6953H60.6629H60.6305H60.5983H60.5661H60.534H60.502H60.4701H60.4383H60.4066H60.375H60.3435H60.312H60.2807H60.2495H60.2183H60.1872H60.1563H60.1254H60.0946H60.0639H60.0334H60.0029H59.9725H59.9422H59.912H59.8819H59.8519H59.8219H59.7921H59.7624H59.7328H59.7033H59.6738H59.6445H59.6153H59.5861H59.5571H59.5282H59.4994H59.4706H59.442H59.4135H59.385H59.3567H59.3285H59.3003H59.2723H59.2444H59.2166H59.1888H59.1612H59.1337H59.1063H59.079H59.0518H59.0247H58.9977H58.9708H58.944H58.9173H58.8907H58.8642H58.8378H58.8116H58.7854H58.7594H58.7334H58.7076H58.6818H58.6562H58.6307H58.6053H58.58H58.5548H58.5297H58.5047H58.4798H58.455H58.4304H58.4058H58.3814H58.3571H58.3328H58.3087H58.2847H58.2608H58.2371H58.2134H58.1899H58.1664H58.1431H58.1199H58.0968H58.0738H58.0509H58.0281H58.0055H57.9829H57.9605H57.9382H57.916H57.8939H57.8719H57.8501H57.8283H57.8067H57.7852H57.7638H57.7425H57.7214H57.7003H57.6794H57.6586H57.6379H57.6173H57.5969H57.5765H57.5563H57.5362H57.5162H57.4964H57.4766H57.457H57.4375H57.4181H57.3988H57.3797H57.3607H57.3418H57.323H57.3043H57.2858H57.2674H57.2491H57.2309H57.2129H57.1949H57.1771H57.1595H57.1419H57.1245H57.1072H57.09H57.0729H57.056H57.0392H57.0225H57.0059H56.9895H56.9732H56.957H56.941H56.925H56.9092H56.8936H56.878H56.8626H56.8473H56.8321H56.8171H56.8022H56.7874H56.7728H56.7583H56.7439H56.7296H56.7155H56.7015H56.6876H56.6739H56.6603H56.6468H56.6334H56.6202H56.6071H56.5942H56.5814H56.5687H56.5561H56.5437H56.5314H56.5193H56.5073H56.5V103.498V103.472V103.445V103.417V103.389V103.36V103.331V103.301V103.27V103.239V103.207V103.175V103.142V103.108V103.074V103.039V103.004V102.967V102.931V102.893V102.856V102.817V102.778V102.738V102.698V102.657V102.616V102.574V102.531V102.488V102.444V102.4V102.355V102.31V102.264V102.217V102.17V102.123V102.074V102.026V101.976V101.927V101.876V101.825V101.774V101.722V101.669V101.616V101.562V101.508V101.454V101.398V101.343V101.287V101.23V101.173V101.115V101.056V100.998V100.938V100.879V100.818V100.757V100.696V100.634V100.572V100.509V100.446V100.382V100.318V100.253V100.188V100.122V100.056V99.9896V99.9226V99.855V99.787V99.7185V99.6496V99.5802V99.5103V99.44V99.3693V99.298V99.2264V99.1543V99.0818V99.0088V98.9354V98.8615V98.7872V98.7125V98.6374V98.5618V98.4858V98.4094V98.3326V98.2553V98.1776V98.0996V98.0211V97.9422V97.8629V97.7832V97.7031V97.6226V97.5416V97.4604V97.3787V97.2966V97.2141V97.1313V97.048V96.9644V96.8804V96.7961V96.7113V96.6262V96.5407V96.4549V96.3687V96.2821V96.1952V96.1079V96.0202V95.9322V95.8439V95.7552V95.6661V95.5767V95.487V95.3969V95.3065V95.2158V95.1247V95.0333V94.9416V94.8495V94.7571V94.6644V94.5714V94.4781V94.3844V94.2904V94.1962V94.1016V94.0067V93.9115V93.816V93.7202V93.6241V93.5277V93.431V93.3341V93.2368V93.1393V93.0415V92.9434V92.845V92.7463V92.6474V92.5482V92.4488V92.349V92.249V92.1488V92.0482V91.9475V91.8464V91.7452V91.6436V91.5418V91.4398V91.3375V91.235V91.1323V91.0293V90.926V90.8226V90.7189V90.615V90.5108V90.4065V90.3019V90.1971V90.0921V89.9868V89.8814V89.7757V89.6699V89.5638V89.4575V89.351V89.2444V89.1375V89.0304V88.9232V88.8157V88.7081V88.6003V88.4923V88.3841V88.2758V88.1672V88.0585V87.9497V87.8406V87.7314V87.622V87.5125V87.4028V87.293V87.183V87.0728V86.9625V86.852V86.7414V86.6307V86.5198V86.4088V86.2976V86.1863V86.0749V85.9633V85.8516V85.7398V85.6279V85.5158V85.4036V85.2914V85.179V85.0664V84.9538V84.8411V84.7282V84.6153V84.5023V84.3891V84.2759V84.1625V84.0491V83.9356V83.822V83.7083V83.5946V83.4807V83.3668V83.2528V83.1387V83.0246V82.9104V82.7961V82.6818V82.5674V82.4529V82.3384V82.2238V82.1092V81.9946V81.8798V81.7651V81.6503V81.5354V81.4205V81.3056V81.1906V81.0756V80.9606V80.8456V80.7305V80.6154V80.5003V80.3851V80.27V80.1548V80.0396V79.9245V79.8093V79.6941V79.5789V79.4637V79.3485V79.2333V79.1181V79.0029V78.8877V78.7726V78.6574V78.5423V78.4272V78.3121V78.1971V78.0821V77.9671V77.8521V77.7372V77.6223V77.5074V77.3926V77.2779V77.1631V77.0485V76.9338V76.8193V76.7047V76.5903V76.4759V76.3615V76.2472V76.133V76.0189V75.9048V75.7908V75.6769V75.563V75.4493V75.3356V75.222V75.1085V74.995V74.8817V74.7685V74.6553V74.5423V74.4293V74.3165V74.2037V74.0911V73.9786V73.8661V73.7538V73.6417V73.5296V73.4176V73.3058V73.1941V73.0826V72.9711V72.8598V72.7486V72.6376V72.5267V72.4159V72.3053V72.1948V72.0845V71.9744V71.8643V71.7545V71.6448V71.5352V71.4258V71.3166V71.2076V71.0987V70.99V70.8814V70.773V70.6649V70.5568V70.449V70.3414V70.2339V70.1266V70.0196V69.9127V69.806V69.6995V69.5932V69.4871V69.3813V69.2756V69.1701V69.0649V68.9598V68.855V68.7504V68.646V68.5419V68.4379V68.3342V68.2307V68.1275V68.0245V67.9217V67.8192V67.7169V67.6148V67.513V67.4115V67.3102V67.2091V67.1083V67.0078V66.9075V66.8075V66.7077V66.6082V66.509V66.4101V66.3114V66.213V66.1149V66.017V65.9195V65.8222V65.7252V65.6285V65.5321V65.436V65.3402V65.2447V65.1494V65.0545V64.9599V64.8656V64.7716V64.6779V64.5846V64.4915V64.3988V64.3064V64.2143V64.1225V64.0311V63.94V63.8492V63.7588V63.6687V63.5789V63.4895V63.4004V63.3117V63.2233V63.1353V63.0476V62.9603V62.8733V62.7867V62.7005V62.6146V62.5291V62.444V62.3592V62.2748V62.1908V62.1071V62.0239V61.941V61.8585V61.7764V61.6947V61.6133V61.5324V61.4519V61.3717V61.292V61.2127V61.1337V61.0552V60.9771V60.8994V60.8221V60.7453V60.6688V60.5928V60.5172V60.442V60.3672V60.2929V60.219V60.1456V60.0726V60V59.9318V59.8632V59.7941V59.7245V59.6544V59.5839V59.5129V59.4415V59.3696V59.2972V59.2244V59.1512V59.0775V59.0033V58.9288V58.8537V58.7783V58.7023V58.626V58.5492V58.472V58.3944V58.3164V58.2379V58.159V58.0797V58V57.9198V57.8393V57.7584V57.677V57.5952V57.5131V57.4305V57.3476V57.2642V57.1805V57.0964V57.0119V56.927V56.8417V56.756V56.67V56.5836V56.4968V56.4097V56.3222V56.2343V56.1461V56.0575V55.9685V55.8792V55.7895V55.6995V55.6092V55.5185V55.4274V55.336V55.2443V55.1522V55.0598V54.9671V54.874V54.7807V54.6869V54.5929V54.4986V54.4039V54.3089V54.2136V54.118V54.0221V53.9259V53.8294V53.7326V53.6354V53.538V53.4403V53.3423V53.244V53.1455V53.0466V52.9475V52.8481V52.7484V52.6484V52.5482V52.4477V52.3469V52.2458V52.1445V52.043V51.9412V51.8391V51.7368V51.6342V51.5314V51.4283V51.325V51.2214V51.1176V51.0136V50.9094V50.8049V50.7001V50.5952V50.49V50.3846V50.279V50.1732V50.0671V49.9609V49.8544V49.7477V49.6408V49.5338V49.4265V49.319V49.2113V49.1035V48.9954V48.8871V48.7787V48.6701V48.5613V48.4523V48.3431V48.2338V48.1243V48.0146V47.9048V47.7948V47.6846V47.5743V47.4638V47.3532V47.2424V47.1314V47.0204V46.9091V46.7977V46.6862V46.5746V46.4628V46.3508V46.2388V46.1266V46.0143V45.9018V45.7893V45.6766V45.5638V45.4509V45.3379V45.2247V45.1115V44.9981V44.8847V44.7711V44.6575V44.5437V44.4299V44.316V44.2019V44.0878V43.9737V43.8594V43.745V43.6306V43.5161V43.4015V43.2869V43.1722V43.0574V42.9426V42.8277V42.7127V42.5977V42.4827V42.3676V42.2524V42.1372V42.0219V41.9067V41.7913V41.676V41.5606V41.4451V41.3297V41.2142V41.0987V40.9831V40.8676V40.752V40.6364V40.5208V40.4052V40.2896V40.174V40.0584V39.9428V39.8271V39.7115V39.5959V39.4803V39.3647V39.2491V39.1336V39.018V38.9025V38.787V38.6716V38.5561V38.4407V38.3253V38.21V38.0947V37.9794V37.8642V37.749V37.6339V37.5188V37.4037V37.2888V37.1738V37.059V36.9442V36.8294V36.7148V36.6002V36.4856V36.3712V36.2568V36.1425V36.0282V35.9141V35.8V35.6861V35.5722V35.4584V35.3447V35.2311V35.1176V35.0042V34.8909V34.7777V34.6647V34.5517V34.4389V34.3261V34.2135V34.101V33.9886V33.8764V33.7643V33.6523V33.5404V33.4287V33.3171V33.2057V33.0944V32.9832V32.8722V32.7613V32.6506V32.5401V32.4297V32.3194V32.2094V32.0994V31.9897V31.8801V31.7707V31.6615V31.5524V31.4435V31.3348V31.2263V31.118V31.0098V30.9019V30.7941V30.6865V30.5792V30.472V30.365V30.2582V30.1517V30.0453V29.9392V29.8332V29.7275V29.622V29.5168V29.4117V29.3069V29.2023V29.0979V28.9938V28.8899V28.7862V28.6828V28.5796V28.4767V28.374V28.2715V28.1694V28.0674V27.9657V27.8643V27.7632V27.6623V27.5616V27.4613V27.3612V27.2614V27.1618V27.0626V26.9636V26.8649V26.7665V26.6683V26.5705V26.473V26.3757V26.2787V26.1821V26.0857V25.9897V25.8939V25.7985V25.7034V25.6086V25.5141V25.4199V25.326V25.2325V25.1393V25.0464V24.9539V24.8616V24.7698V24.6782V24.587V24.4961V24.4056V24.3155V24.2256V24.1362V24.047V23.9583V23.8699V23.7818V23.6942V23.6068V23.5199V23.4333V23.3471V23.2613V23.1759V23.0908V23.0061V22.9218V22.8379V22.7544V22.6712V22.5885V22.5062V22.4242V22.3427V22.2615V22.1808V22.1005V22.0206V21.9411V21.862V21.7833V21.7051V21.6273V21.5499V21.4729V21.3964V21.3203V21.2446V21.1694V21.0946V21.0202V20.9463V20.8729V20.7999V20.7273V20.6552V20.5835V20.5124V20.4416V20.3714V20.3016V20.2322V20.1634V20.095V20.0271V19.9596V19.8927V19.8262V19.7602V19.6947V19.6297V19.5652V19.5012V19.4376V19.3746V19.3121V19.2501V19.1885V19.1275V19.067V19.007V18.9476V18.8886V18.8302V18.7723V18.7149V18.658V18.6017V18.5459V18.4907V18.4359V18.3818V18.3281V18.275V18.2225V18.1705V18.119V18.0681V18.0178V17.968V17.9188V17.8701V17.8221V17.7745V17.7276V17.6812V17.6354V17.5902V17.5455V17.5015V17.458V17.4151V17.3728V17.3311V17.29V17.2494V17.2095V17.1702V17.1315V17.0934V17.0559V17.019V16.9827V16.947V16.912V16.8776V16.8438V16.8106V16.7781V16.7461V16.7149V16.6842V16.6542V16.6248V16.5961V16.568V16.5406V16.5138V16.5H57.1051H60.183H70.8315C78.8746 16.5 87.0351 21.3121 93.2045 29.1955C99.3674 37.0705 103.5 47.9622 103.5 60Z" stroke="#1A1A1A"/>
<rect x="70" y="19" width="12" height="1" fill="#1A1A1A"/>
<rect x="75" y="22" width="12" height="1" rx="0.5" fill="#1A1A1A"/>
<rect x="78" y="25" width="12" height="1" fill="#1A1A1A"/>
<path d="M81 28H92.5C92.7761 28 93 28.2239 93 28.5V29H81V28Z" fill="#1A1A1A"/>
<path d="M83 31H94.5C94.7761 31 95 31.2239 95 31.5V32H83V31Z" fill="#1A1A1A"/>
<path d="M85 34H96.5C96.7761 34 97 34.2239 97 34.5V35H85V34Z" fill="#1A1A1A"/>
<path d="M86.5 37H98C98.2761 37 98.5 37.2239 98.5 37.5V38H86.5V37Z" fill="#1A1A1A"/>
<path d="M90 40H99.5C99.7761 40 100 40.2239 100 40.5V41H90V40Z" fill="#1A1A1A"/>
<path d="M91 43H100.5C100.776 43 101 43.2239 101 43.5V44H91V43Z" fill="#1A1A1A"/>
<path d="M92 46H101.5C101.776 46 102 46.2239 102 46.5V47H92V46Z" fill="#1A1A1A"/>
<path d="M92.5 49H102C102.276 49 102.5 49.2239 102.5 49.5V50H92.5V49Z" fill="#1A1A1A"/>
<path d="M93 52H102.5C102.776 52 103 52.2239 103 52.5V53H93V52Z" fill="#1A1A1A"/>
<path d="M93.5 55H103C103.276 55 103.5 55.2239 103.5 55.5V56H93.5V55Z" fill="#1A1A1A"/>
<path d="M93.5 58H103C103.276 58 103.5 58.2239 103.5 58.5V59H93.5V58Z" fill="#1A1A1A"/>
<path d="M93.5 61H103C103.276 61 103.5 61.2239 103.5 61.5V62H93.5V61Z" fill="#1A1A1A"/>
<path d="M93.5 64H103C103.276 64 103.5 64.2239 103.5 64.5V65H93.5V64Z" fill="#1A1A1A"/>
<path d="M93 67H102.5C102.776 67 103 67.2239 103 67.5V68H93V67Z" fill="#1A1A1A"/>
<path d="M92.5 70H102C102.276 70 102.5 70.2239 102.5 70.5V71H92.5V70Z" fill="#1A1A1A"/>
<path d="M92 73H101.5C101.776 73 102 73.2239 102 73.5V74H92V73Z" fill="#1A1A1A"/>
<path d="M91 76H100.5C100.776 76 101 76.2239 101 76.5V77H91V76Z" fill="#1A1A1A"/>
<path d="M90 79H99.5C99.7761 79 100 79.2239 100 79.5V80H90V79Z" fill="#1A1A1A"/>
<path d="M88.5 82H98C98.2761 82 98.5 82.2239 98.5 82.5V83H88.5V82Z" fill="#1A1A1A"/>
<path d="M87 85H96.5C96.7761 85 97 85.2239 97 85.5V86H87V85Z" fill="#1A1A1A"/>
<path d="M85 88H94.5C94.7761 88 95 88.2239 95 88.5V89H85V88Z" fill="#1A1A1A"/>
<path d="M83 91H92.6667C92.8508 91 93 91.1492 93 91.3333C93 91.7015 92.7015 92 92.3333 92H83V91Z" fill="#1A1A1A"/>
<path d="M80 94H90V95H80V94Z" fill="#1A1A1A"/>
<path d="M76 97H86.6667C86.8508 97 87 97.1492 87 97.3333C87 97.7015 86.7015 98 86.3333 98H76V97Z" fill="#1A1A1A"/>
<path d="M70 100H82V101H70V100Z" fill="#1A1A1A"/>
<path d="M89.5 60C89.5 80.7644 74.4507 97.5 56 97.5C37.5493 97.5 22.5 80.7644 22.5 60C22.5 39.2356 37.5493 22.5 56 22.5C74.4507 22.5 89.5 39.2356 89.5 60Z" stroke="white"/>
</svg>
