<svg width="88" height="89" viewBox="0 0 88 89" fill="none" xmlns="http://www.w3.org/2000/svg">
<path fill-rule="evenodd" clip-rule="evenodd" d="M44 88.75C68.3005 88.75 88 69.0505 88 44.75C88 20.4495 68.3005 0.75 44 0.75C19.6995 0.75 0 20.4495 0 44.75C0 69.0505 19.6995 88.75 44 88.75ZM44 4.75C44.3344 4.75 44.6678 4.7541 45.0003 4.76226L44.9512 6.76166L44.9021 8.76105C44.6024 8.7537 44.3017 8.75 44 8.75C43.6983 8.75 43.3976 8.7537 43.0979 8.76105L43.0488 6.76166L42.9997 4.76226C43.3322 4.7541 43.6656 4.75 44 4.75ZM51.5341 7.49643L51.9284 5.53568C52.5826 5.66723 53.2311 5.81475 53.8734 5.97781L53.3813 7.91632L52.8891 9.85482C52.3115 9.70819 51.7283 9.57552 51.1398 9.45718L51.5341 7.49643ZM59.6323 10.1035L60.4559 8.28097C61.063 8.55531 61.6619 8.84436 62.2524 9.14767L61.3385 10.9267L60.4246 12.7057C59.8934 12.4328 59.3546 12.1728 58.8086 11.926L59.6323 10.1035ZM66.9443 14.456L68.1531 12.8626C68.6832 13.2648 69.2029 13.6798 69.7118 14.1073L68.4255 15.6387L67.1391 17.1702C66.6808 16.7852 66.2128 16.4115 65.7355 16.0494L66.9443 14.456ZM73.1113 20.3245L74.6427 19.0382C75.0702 19.5471 75.4852 20.0668 75.8874 20.5969L74.294 21.8057L72.7006 23.0145C72.3385 22.5372 71.9648 22.0692 71.5798 21.6109L73.1113 20.3245ZM77.8233 27.4115L79.6023 26.4976C79.9056 27.0881 80.1947 27.687 80.469 28.2941L78.6465 29.1177L76.824 29.9414C76.5772 29.3954 76.3172 28.8566 76.0443 28.3254L77.8233 27.4115ZM80.8337 35.3687L82.7722 34.8766C82.9352 35.5189 83.0828 36.1674 83.2143 36.8216L81.2536 37.2159L79.2928 37.6102C79.1745 37.0217 79.0418 36.4385 78.8952 35.8609L80.8337 35.3687ZM81.9883 43.7988L83.9877 43.7497C83.9959 44.0822 84 44.4156 84 44.75C84 45.0844 83.9959 45.4178 83.9877 45.7503L81.9883 45.7012L79.9889 45.6521C79.9963 45.3524 80 45.0517 80 44.75C80 44.4483 79.9963 44.1476 79.9889 43.8479L81.9883 43.7988ZM81.2536 52.2841L83.2143 52.6784C83.0828 53.3326 82.9352 53.9811 82.7722 54.6234L80.8337 54.1313L78.8952 53.6391C79.0418 53.0615 79.1745 52.4783 79.2928 51.8898L81.2536 52.2841ZM78.6465 60.3823L80.469 61.2059C80.1947 61.813 79.9056 62.4119 79.6023 63.0023L77.8233 62.0885L76.0443 61.1746C76.3172 60.6434 76.5772 60.1046 76.824 59.5586L78.6465 60.3823ZM74.294 67.6943L75.8874 68.9031C75.4852 69.4332 75.0702 69.9529 74.6427 70.4618L73.1113 69.1755L71.5798 67.8891C71.9648 67.4308 72.3385 66.9628 72.7006 66.4855L74.294 67.6943ZM68.4255 73.8613L69.7118 75.3927C69.2029 75.8202 68.6832 76.2352 68.1531 76.6374L66.9443 75.044L65.7355 73.4506C66.2128 73.0885 66.6808 72.7148 67.1391 72.3298L68.4255 73.8613ZM61.3385 78.5733L62.2524 80.3523C61.6619 80.6556 61.063 80.9447 60.4559 81.219L59.6323 79.3965L58.8086 77.574C59.3546 77.3272 59.8934 77.0672 60.4246 76.7943L61.3385 78.5733ZM53.3813 81.5837L53.8734 83.5222C53.2311 83.6852 52.5826 83.8328 51.9284 83.9643L51.5341 82.0036L51.1398 80.0428C51.7283 79.9245 52.3115 79.7918 52.8891 79.6452L53.3813 81.5837ZM44 84.75C44.3344 84.75 44.6678 84.7459 45.0003 84.7377L44.9512 82.7383L44.9021 80.7389C44.6024 80.7463 44.3017 80.75 44 80.75C43.6983 80.75 43.3976 80.7463 43.0979 80.7389L43.0488 82.7383L42.9997 84.7377C43.3322 84.7459 43.6656 84.75 44 84.75ZM36.4659 82.0036L36.0716 83.9643C35.4174 83.8328 34.7689 83.6852 34.1266 83.5222L34.6187 81.5837L35.1109 79.6452C35.6885 79.7918 36.2717 79.9245 36.8602 80.0428L36.4659 82.0036ZM28.3677 79.3965L27.5441 81.219C26.937 80.9447 26.3381 80.6556 25.7476 80.3523L26.6615 78.5733L27.5754 76.7943C28.1066 77.0672 28.6454 77.3272 29.1914 77.574L28.3677 79.3965ZM21.0557 75.044L19.8469 76.6374C19.3168 76.2352 18.7971 75.8202 18.2882 75.3927L19.5745 73.8613L20.8609 72.3298C21.3192 72.7148 21.7872 73.0885 22.2645 73.4506L21.0557 75.044ZM14.8887 69.1755L13.3573 70.4618C12.9298 69.9529 12.5148 69.4332 12.1126 68.9031L13.706 67.6943L15.2994 66.4855C15.6615 66.9628 16.0352 67.4308 16.4202 67.8891L14.8887 69.1755ZM10.1767 62.0885L8.39767 63.0024C8.09436 62.4119 7.80531 61.813 7.53097 61.2059L9.35349 60.3823L11.176 59.5586C11.4228 60.1046 11.6828 60.6434 11.9557 61.1746L10.1767 62.0885ZM7.16632 54.1313L5.22781 54.6234C5.06475 53.9811 4.91723 53.3326 4.78567 52.6784L6.74643 52.2841L8.70718 51.8898C8.82551 52.4783 8.95819 53.0615 9.10482 53.6391L7.16632 54.1313ZM6.01166 45.7012L4.01226 45.7503C4.0041 45.4178 4 45.0844 4 44.75C4 44.4156 4.0041 44.0822 4.01226 43.7497L6.01166 43.7988L8.01106 43.8479C8.0037 44.1476 8 44.4483 8 44.75C8 45.0517 8.0037 45.3524 8.01106 45.6521L6.01166 45.7012ZM6.74643 37.2159L4.78567 36.8216C4.91723 36.1674 5.06475 35.5189 5.22781 34.8766L7.16632 35.3687L9.10482 35.8609C8.95819 36.4385 8.82551 37.0217 8.70718 37.6102L6.74643 37.2159ZM9.35349 29.1177L7.53097 28.2941C7.80531 27.687 8.09436 27.0881 8.39767 26.4976L10.1767 27.4115L11.9557 28.3254C11.6828 28.8566 11.4228 29.3954 11.176 29.9414L9.35349 29.1177ZM13.706 21.8057L12.1126 20.5969C12.5148 20.0668 12.9298 19.5471 13.3573 19.0382L14.8887 20.3245L16.4202 21.6109C16.0352 22.0692 15.6615 22.5372 15.2994 23.0145L13.706 21.8057ZM19.5745 15.6387L18.2882 14.1073C18.7971 13.6798 19.3168 13.2648 19.8469 12.8626L21.0557 14.456L22.2645 16.0494C21.7872 16.4115 21.3192 16.7852 20.8609 17.1702L19.5745 15.6387ZM26.6615 10.9267L25.7476 9.14767C26.3381 8.84437 26.937 8.55531 27.5441 8.28097L28.3677 10.1035L29.1914 11.926C28.6454 12.1728 28.1066 12.4328 27.5754 12.7057L26.6615 10.9267ZM34.6187 7.91632L34.1266 5.97781C34.7689 5.81475 35.4174 5.66723 36.0716 5.53568L36.4659 7.49643L36.8602 9.45718C36.2717 9.57552 35.6885 9.70819 35.1109 9.85482L34.6187 7.91632ZM39.2833 40.038L40.9457 38.8721L66.0621 21.2566L70.8699 17.8846L67.4979 22.6924L49.8824 47.8088L48.7165 49.4712L17.1298 71.6247L39.2833 40.038ZM62.6901 26.0644L42.3816 40.3079L48.4466 46.3729L62.6901 26.0644Z" fill="#1A1A1A"/>
</svg>
