<svg width="145" height="145" viewBox="0 0 145 145" fill="none" xmlns="http://www.w3.org/2000/svg">
<path d="M18.5 81.502C8.55888 81.502 0.5 89.5608 0.5 99.502V108.502C0.5 118.443 8.55888 126.502 18.5 126.502H126.5C136.441 126.502 144.5 118.443 144.5 108.502V99.502C144.5 89.5608 136.441 81.502 126.5 81.502H18.5ZM23 108.502C20.5147 108.502 18.5 106.487 18.5 104.002C18.5 101.517 20.5147 99.502 23 99.502C25.4853 99.502 27.5 101.517 27.5 104.002C27.5 106.487 25.4853 108.502 23 108.502ZM41 108.502C38.5147 108.502 36.5 106.487 36.5 104.002C36.5 101.517 38.5147 99.502 41 99.502C43.4853 99.502 45.5 101.517 45.5 104.002C45.5 106.487 43.4853 108.502 41 108.502Z" fill="#1A1A1A"/>
<path d="M18.5 18.502C8.55888 18.502 0.5 26.5608 0.5 36.502V45.502C0.5 55.4431 8.55888 63.502 18.5 63.502H126.5C136.441 63.502 144.5 55.4431 144.5 45.502V36.502C144.5 26.5608 136.441 18.502 126.5 18.502H18.5ZM23 45.502C20.5147 45.502 18.5 43.4872 18.5 41.002C18.5 38.5167 20.5147 36.502 23 36.502C25.4853 36.502 27.5 38.5167 27.5 41.002C27.5 43.4872 25.4853 45.502 23 45.502ZM41 45.502C38.5147 45.502 36.5 43.4872 36.5 41.002C36.5 38.5167 38.5147 36.502 41 36.502C43.4853 36.502 45.5 38.5167 45.5 41.002C45.5 43.4872 43.4853 45.502 41 45.502Z" fill="#1A1A1A"/>
</svg>
