<svg width="145" height="145" viewBox="0 0 145 145" fill="none" xmlns="http://www.w3.org/2000/svg">
<path d="M72.5 0.5C32.7355 0.5 0.5 32.7355 0.5 72.5C0.5 112.264 32.7355 144.5 72.5 144.5C112.264 144.5 144.5 112.264 144.5 72.5C144.5 32.7355 112.264 0.5 72.5 0.5ZM44.4397 16.0786C44.5403 17.0225 44.9495 17.9495 45.7001 18.7001C47.8155 20.8155 47.2368 24.3816 44.561 25.7195L41.9424 27.0288C41.3182 27.3409 40.7484 27.7516 40.2549 28.2451L35.9331 32.5669C33.5227 34.9773 29.9571 35.819 26.7231 34.741L26.5507 34.6836C25.1649 34.2216 23.7424 34.1154 22.3849 34.3175C28.2176 26.6738 35.7593 20.4041 44.4397 16.0786ZM17.4398 103.14L25.1828 101.204C29.1893 100.203 32 96.6028 32 92.473V90.8167C32 87.8075 33.5039 84.9974 36.0077 83.3282L36.3656 83.0896C41.0911 79.9393 41.7532 73.2532 37.7372 69.2372L28.5919 60.0919C27.8928 59.3928 27.5 58.4445 27.5 57.4558C27.5 54.3839 31.0071 52.6303 33.4647 54.4735L43.2751 61.8313C44.6387 62.854 46.463 63.0185 47.9875 62.2562C50.9796 60.7602 54.5 62.9359 54.5 66.2812V70.372C54.5 71.7596 54.9107 73.1161 55.6804 74.2706L62.8314 84.9972C63.2752 85.6628 63.6282 86.3845 63.8811 87.1434L70.4487 106.846C71.6737 110.521 75.113 113 78.9868 113H79.5132C83.387 113 86.8263 110.521 88.0513 106.846L94.6189 87.1434C94.8718 86.3845 95.2248 85.6627 95.6686 84.9972L102.787 74.3194C103.545 73.1827 104.821 72.5 106.187 72.5C107.622 72.5 108.944 73.2516 109.715 74.4622C114.729 82.3359 124.384 95 131 95C131.125 95 131.247 94.9957 131.368 94.9874C122.314 118.676 99.3715 135.5 72.5 135.5C48.8279 135.5 28.2051 122.444 17.4398 103.14Z" fill="#1A1A1A"/>
</svg>
