<svg width="40" height="40" viewBox="0 0 40 40" fill="none" xmlns="http://www.w3.org/2000/svg">
<path d="M14.1406 9.76758H19.9367C21.3473 9.76758 23.2043 9.76758 24.1666 10.3414C24.7479 10.6754 25.2284 11.1563 25.5588 11.7345C25.8891 12.3127 26.0572 12.9673 26.0458 13.6309C26.0458 15.3067 25.152 16.5631 23.6748 17.1579V17.2027C25.6448 17.5993 26.7182 19.0549 26.7182 20.9957C26.7182 23.3102 25.039 25.5159 21.8613 25.5159H14.1406V9.76758ZM16.2653 16.5375H20.5202C22.9357 16.5375 23.9211 15.6777 23.9211 14.0229C23.9211 11.8399 22.3559 11.532 20.5202 11.532H16.2653V16.5375ZM16.2653 23.7479H21.5936C23.4275 23.7479 24.5926 22.645 24.5926 20.9262C24.5926 18.8749 22.9134 18.301 21.1222 18.301H16.2653V23.7479Z" fill="#343434"/>
<path d="M32.1545 17.6432C32.1545 24.2569 26.7132 29.6188 19.9993 29.6188C18.3963 29.6326 16.8065 29.333 15.3216 28.7374C13.8366 28.1418 12.486 27.2619 11.3475 26.1486C10.2091 25.0352 9.3055 23.7104 8.68884 22.2507C8.07217 20.7909 7.75467 19.2251 7.75467 17.6437C7.75467 16.0622 8.07217 14.4964 8.68884 13.0367C9.3055 11.577 10.2091 10.2522 11.3475 9.13881C12.486 8.02545 13.8366 7.14557 15.3216 6.54996C16.8065 5.95435 18.3963 5.65481 19.9993 5.66862C26.7132 5.66862 32.1545 11.0296 32.1545 17.6387M19.9993 3.8457C12.2684 3.8457 6 10.0217 6 17.6432C6 25.2648 12.2684 31.4408 19.9993 31.4408C27.7301 31.4408 34.0004 25.2639 34.0004 17.6432C34.0004 10.0226 27.732 3.8457 19.9993 3.8457ZM6.02871 34.3437H33.9717V36.1538H6.02871V34.3437ZM33.2067 33.6091C33.0722 33.6089 32.9409 33.5694 32.8292 33.4956C32.7175 33.4218 32.6306 33.317 32.5792 33.1944C32.5279 33.0718 32.5146 32.937 32.5409 32.807C32.5673 32.6769 32.6321 32.5575 32.7272 32.4638C32.8223 32.3701 32.9434 32.3063 33.0753 32.2805C33.2071 32.2547 33.3438 32.268 33.4679 32.3188C33.5921 32.3696 33.6982 32.4556 33.7729 32.5659C33.8475 32.6761 33.8874 32.8058 33.8874 32.9384C33.8905 33.0274 33.875 33.116 33.8419 33.1988C33.8088 33.2817 33.7587 33.3569 33.6949 33.4198C33.631 33.4827 33.5547 33.532 33.4707 33.5645C33.3867 33.5971 33.2968 33.6123 33.2067 33.6091V33.6091ZM33.2067 32.4212C33.0751 32.4307 32.952 32.489 32.8621 32.5843C32.7723 32.6797 32.7224 32.805 32.7224 32.9352C32.7224 33.0654 32.7723 33.1907 32.8621 33.2861C32.952 33.3814 33.0751 33.4397 33.2067 33.4492C33.3385 33.4397 33.4618 33.3813 33.5518 33.2858C33.6418 33.1903 33.6918 33.0647 33.6918 32.9343C33.6918 32.8039 33.6418 32.6783 33.5518 32.5828C33.4618 32.4872 33.3385 32.4289 33.2067 32.4194V32.4212ZM33.0927 33.2947H32.9371V32.5738H33.2094C33.3947 32.5738 33.5095 32.6268 33.5095 32.7913C33.5123 32.8154 33.5098 32.8399 33.5022 32.863C33.4945 32.8861 33.4819 32.9073 33.4652 32.9252C33.4485 32.943 33.4281 32.9571 33.4054 32.9665C33.3827 32.9759 33.3582 32.9803 33.3335 32.9795L33.5188 33.2947H33.3335L33.1668 32.9941H33.0927V33.2947ZM33.2317 32.8699C33.3011 32.8699 33.3428 32.8552 33.3428 32.7785C33.3428 32.7017 33.2622 32.699 33.2029 32.699H33.0927V32.8726L33.2317 32.8699Z" fill="#343434"/>
</svg>
