<svg width="48" height="80" viewBox="0 0 48 80" fill="none" xmlns="http://www.w3.org/2000/svg">
<path d="M14.5232 23.0645H24.2922C26.6685 23.0645 29.8026 23.0645 31.421 24.0508C33.1958 25.1108 34.5893 27.0394 34.5893 29.6943C34.5893 32.57 33.0834 34.7293 30.5898 35.75V35.8285C33.9097 36.5107 35.7188 39.0085 35.7188 42.3406C35.7188 46.3156 32.8878 50.1041 27.5339 50.1041H14.5232V23.0645ZM18.1071 34.6851H25.2799C29.3528 34.6851 31.0152 33.208 31.0152 30.3666C31.0152 26.6174 28.3749 26.0874 25.2799 26.0874H18.1071V34.6851ZM18.1071 47.0664H27.089C30.1791 47.0664 32.1446 45.1722 32.1446 42.2228C32.1446 38.6993 29.3136 37.7179 26.2969 37.7179H18.1071V47.0664Z" fill="#1A1A1A"/>
<path d="M44.8854 36.5893C44.8854 47.9449 35.7128 57.1512 24.3939 57.1512C13.0798 57.1512 3.90726 47.9449 3.90726 36.5893C3.90726 25.2336 13.0798 16.0274 24.3939 16.0274C35.7128 16.0323 44.8854 25.2385 44.8854 36.5893ZM24.3988 12.8965C11.3685 12.8965 0.80249 23.5013 0.80249 36.5795C0.80249 49.6576 11.3685 60.2624 24.3988 60.2624C37.4339 60.2624 47.9999 49.6576 47.9999 36.5795C47.9999 23.5013 37.4339 12.8965 24.3988 12.8965Z" fill="#1A1A1A"/>
<path d="M47.9461 65.2637H0.846436V68.37H47.9461V65.2637Z" fill="#1A1A1A"/>
<path d="M46.4755 61.8425C46.5341 61.8425 46.5879 61.8376 46.6417 61.8376C46.6906 61.8327 46.7395 61.8229 46.7786 61.8082C46.8226 61.7885 46.852 61.7591 46.8764 61.7247C46.9008 61.6855 46.9106 61.6364 46.9106 61.5726C46.9106 61.5186 46.9008 61.4696 46.8813 61.4401C46.8617 61.4058 46.8324 61.3812 46.7982 61.3665C46.7639 61.3469 46.7297 61.3371 46.6808 61.3272C46.6368 61.3223 46.5977 61.3223 46.5488 61.3223H46.2114V61.8474H46.4755V61.8425ZM46.5879 61.1064C46.7835 61.1064 46.9253 61.1457 47.0231 61.2242C47.116 61.3027 47.1649 61.4205 47.1649 61.5824C47.1649 61.7346 47.1209 61.8376 47.0426 61.9112C46.9595 61.9799 46.8568 62.0192 46.7297 62.0339L47.1991 62.7602H46.9253L46.4755 62.0486H46.2065V62.7602H45.9474V61.1113H46.5879V61.1064ZM45.434 62.4069C45.4878 62.5541 45.5709 62.6866 45.6785 62.7946C45.7812 62.9025 45.9034 62.9859 46.0452 63.0497C46.1821 63.1086 46.3386 63.1381 46.4999 63.1381C46.6662 63.1381 46.8177 63.1086 46.9546 63.0497C47.0964 62.9859 47.2187 62.9025 47.3213 62.7946C47.424 62.6866 47.5071 62.559 47.5609 62.4069C47.6196 62.2596 47.6538 62.1026 47.6538 61.9309C47.6538 61.7591 47.6245 61.6021 47.5609 61.4548C47.5022 61.3076 47.4191 61.18 47.3213 61.0721C47.2138 60.9641 47.0915 60.8807 46.9546 60.8218C46.8177 60.7629 46.6613 60.7285 46.4999 60.7285C46.3386 60.7285 46.1821 60.7629 46.0452 60.8218C45.9034 60.8856 45.7763 60.969 45.6785 61.0721C45.5709 61.18 45.4927 61.3076 45.434 61.4548C45.3753 61.6021 45.346 61.7542 45.346 61.9309C45.3411 62.0977 45.3705 62.2596 45.434 62.4069ZM45.1993 61.3714C45.2727 61.1997 45.3753 61.0573 45.5025 60.9298C45.6296 60.8022 45.7812 60.7089 45.9523 60.6353C46.1234 60.5617 46.3092 60.5273 46.495 60.5273C46.6906 60.5273 46.8715 60.5617 47.0475 60.6353C47.2138 60.7089 47.3653 60.8022 47.4876 60.9298C47.6147 61.0573 47.7223 61.2046 47.7907 61.3714C47.8689 61.5432 47.9032 61.7297 47.9032 61.9309C47.9032 62.1321 47.8689 62.3185 47.7907 62.4903C47.7174 62.667 47.6147 62.8142 47.4876 62.9418C47.3605 63.0743 47.2138 63.1675 47.0475 63.2411C46.8715 63.3098 46.6906 63.3442 46.495 63.3442C46.3043 63.3442 46.1234 63.3098 45.9523 63.2411C45.7812 63.1675 45.6296 63.0743 45.5025 62.9418C45.3753 62.8142 45.2727 62.667 45.1993 62.4903C45.1211 62.3185 45.0918 62.1321 45.0918 61.9309C45.0869 61.7297 45.1211 61.5432 45.1993 61.3714Z" fill="#1A1A1A"/>
<path d="M6.55743 2.48313C6.44497 2.30156 6.30807 2.14452 6.14183 2.01202C5.97559 1.87462 5.7849 1.77156 5.57465 1.69304C5.36441 1.61943 5.14439 1.58017 4.91459 1.58017C4.4941 1.58017 4.13717 1.6636 3.83892 1.82554C3.54555 1.98749 3.30597 2.20832 3.12506 2.48313C2.94415 2.75794 2.80725 3.07201 2.72413 3.42535C2.64101 3.77868 2.59701 4.14182 2.59701 4.51478C2.59701 4.87302 2.63612 5.22144 2.72413 5.56005C2.80725 5.89866 2.93927 6.20292 3.12506 6.47773C3.30597 6.74764 3.54555 6.96847 3.83892 7.13041C4.13228 7.29235 4.48921 7.37578 4.91459 7.37578C5.48665 7.37578 5.93647 7.19911 6.25428 6.85069C6.57698 6.49736 6.77256 6.03607 6.8459 5.4619H8.65987C8.61097 5.99681 8.48874 6.47773 8.28828 6.90958C8.08781 7.34143 7.82867 7.70948 7.50108 8.00883C7.17349 8.31309 6.79212 8.54373 6.35696 8.70568C5.9218 8.86271 5.43775 8.94614 4.91459 8.94614C4.2643 8.94614 3.67757 8.83327 3.1544 8.60262C2.63123 8.37688 2.19608 8.06281 1.83426 7.66041C1.47733 7.26291 1.20353 6.7918 1.01284 6.25199C0.822153 5.71218 0.724365 5.13311 0.724365 4.50987C0.724365 3.87192 0.817264 3.27812 1.01284 2.73341C1.20353 2.18869 1.47733 1.70777 1.83426 1.30536C2.19119 0.898049 2.63123 0.579069 3.1544 0.348423C3.67268 0.117776 4.25941 0 4.91459 0C5.38397 0 5.8289 0.0687031 6.2445 0.201202C6.6601 0.338609 7.03659 0.534904 7.36418 0.794995C7.69177 1.05509 7.96557 1.37406 8.18071 1.75684C8.39584 2.13961 8.53275 2.58128 8.58653 3.07201H6.77256C6.73833 2.85609 6.66988 2.6598 6.55743 2.48313Z" fill="#1A1A1A"/>
<path d="M11.1 7.2626C11.3543 7.50796 11.721 7.63556 12.1952 7.63556C12.5375 7.63556 12.8309 7.55213 13.0802 7.38037C13.3247 7.20861 13.4763 7.02704 13.5349 6.83565H15.0262C14.7866 7.57667 14.4199 8.11157 13.9261 8.43055C13.4323 8.74953 12.8358 8.91147 12.1366 8.91147C11.6525 8.91147 11.2125 8.83295 10.8262 8.67592C10.4351 8.51888 10.1075 8.29805 9.83366 8.01342C9.56474 7.7288 9.3545 7.38528 9.20782 6.98288C9.06113 6.58538 8.98779 6.14371 8.98779 5.6677C8.98779 5.20641 9.06113 4.77456 9.21271 4.37706C9.36428 3.97956 9.57941 3.63114 9.85811 3.3416C10.1368 3.05207 10.4693 2.82142 10.8555 2.65457C11.2418 2.48772 11.6672 2.4043 12.1366 2.4043C12.6597 2.4043 13.1193 2.50735 13.5105 2.70855C13.9016 2.91466 14.2195 3.18457 14.4688 3.52809C14.7182 3.8716 14.8991 4.26419 15.0115 4.70095C15.124 5.1377 15.1631 5.599 15.1289 6.07992H10.6795C10.704 6.61482 10.8409 7.01723 11.1 7.2626ZM13.0118 4.00901C12.8064 3.78818 12.4984 3.67531 12.0877 3.67531C11.8188 3.67531 11.5938 3.71947 11.4129 3.81271C11.232 3.90595 11.0902 4.01882 10.9827 4.15132C10.8751 4.28873 10.8018 4.43104 10.7578 4.58317C10.7138 4.7353 10.6893 4.8678 10.6795 4.99048H13.4372C13.3589 4.55863 13.2171 4.22984 13.0118 4.00901Z" fill="#1A1A1A"/>
<path d="M17.5039 2.55747V3.7058H17.5283C17.6065 3.51441 17.7141 3.33775 17.851 3.1709C17.9879 3.00895 18.1395 2.86664 18.3155 2.75377C18.4915 2.6409 18.6773 2.54766 18.8778 2.48386C19.0783 2.42007 19.2836 2.39062 19.4987 2.39062C19.6112 2.39062 19.7334 2.41025 19.8703 2.44951V4.02969C19.7921 4.01496 19.6943 4.00024 19.5819 3.99043C19.4694 3.98061 19.3618 3.9708 19.2592 3.9708C18.9511 3.9708 18.6871 4.02478 18.472 4.12783C18.2568 4.23089 18.0857 4.3732 17.9537 4.55478C17.8217 4.73635 17.7288 4.94246 17.675 5.18292C17.6212 5.42338 17.5919 5.68347 17.5919 5.96319V8.75549H15.9001V2.55747H17.5039Z" fill="#1A1A1A"/>
<path d="M24.4001 2.55711V3.69562H23.1582V6.76273C23.1582 7.05226 23.2071 7.24365 23.3 7.33689C23.3929 7.43013 23.5885 7.4792 23.8721 7.4792C23.9699 7.4792 24.0579 7.4743 24.1459 7.46939C24.2339 7.45957 24.317 7.44976 24.3952 7.43504V8.75021C24.2534 8.77475 24.0921 8.78947 23.9161 8.79929C23.7401 8.8091 23.5689 8.81401 23.4027 8.81401C23.1387 8.81401 22.8893 8.79438 22.6595 8.76003C22.4248 8.72568 22.2195 8.65697 22.0385 8.54901C21.8576 8.44596 21.7207 8.29873 21.6132 8.10735C21.5105 7.91596 21.4567 7.66568 21.4567 7.35161V3.70053H20.4299V2.56202H21.4567V0.707031H23.1484V2.56202H24.4001V2.55711Z" fill="#1A1A1A"/>
<path d="M25.386 1.59882V0.195312H27.0777V1.59882H25.386ZM27.0777 2.55576V8.74396H25.386V2.55576H27.0777Z" fill="#1A1A1A"/>
<path d="M27.7524 3.69427V2.55576H28.7645V2.07484C28.7645 1.52521 28.9357 1.07373 29.2779 0.720401C29.6202 0.36707 30.1385 0.195312 30.8279 0.195312C30.9794 0.195312 31.131 0.20022 31.2826 0.214942C31.4342 0.224757 31.5808 0.239479 31.7226 0.244386V1.5154C31.5222 1.49086 31.3168 1.48104 31.1017 1.48104C30.8719 1.48104 30.7056 1.53503 30.6079 1.64299C30.5101 1.75095 30.4612 1.93252 30.4612 2.18771V2.56067H31.6297V3.69918H30.4612V8.75377H28.7645V3.69918H27.7524V3.69427Z" fill="#1A1A1A"/>
<path d="M32.7751 1.59882V0.195312H34.4669V1.59882H32.7751ZM34.4718 2.55576V8.74396H32.7751V2.55576H34.4718Z" fill="#1A1A1A"/>
<path d="M37.14 7.26265C37.3943 7.50801 37.761 7.6356 38.2353 7.6356C38.5775 7.6356 38.8709 7.55218 39.1203 7.38042C39.3647 7.20866 39.5163 7.02709 39.575 6.8357H41.0662C40.8267 7.57672 40.46 8.11162 39.971 8.4306C39.4772 8.74958 38.8807 8.91152 38.1815 8.91152C37.6974 8.91152 37.2574 8.833 36.8711 8.67597C36.48 8.51893 36.1524 8.2981 35.8786 8.01347C35.6097 7.72885 35.3994 7.38533 35.2527 6.98293C35.1061 6.58543 35.0327 6.14376 35.0327 5.66775C35.0327 5.20646 35.1109 4.77461 35.2576 4.37711C35.4092 3.96489 35.6243 3.62137 35.903 3.33184C36.1817 3.0423 36.5142 2.81166 36.9005 2.64481C37.2867 2.47796 37.7121 2.39453 38.1815 2.39453C38.7047 2.39453 39.1643 2.49759 39.5554 2.69879C39.9466 2.9049 40.2644 3.1748 40.5137 3.51832C40.7631 3.86184 40.944 4.25443 41.0565 4.69118C41.1689 5.12794 41.208 5.58923 41.1787 6.07015H36.7293C36.7489 6.61487 36.8858 7.01728 37.14 7.26265ZM39.0567 4.00906C38.8562 3.78823 38.5433 3.67536 38.1326 3.67536C37.8637 3.67536 37.6388 3.71952 37.4579 3.81276C37.277 3.906 37.1352 4.01887 37.0276 4.15137C36.92 4.28878 36.8467 4.43109 36.8027 4.58322C36.7587 4.73535 36.7342 4.86785 36.7244 4.99053H39.4772C39.399 4.55868 39.2572 4.22989 39.0567 4.00906Z" fill="#1A1A1A"/>
<path d="M46.3183 7.95973C46.1178 8.29343 45.8587 8.5388 45.536 8.68602C45.2133 8.83324 44.8514 8.90685 44.4456 8.90685C43.986 8.90685 43.5802 8.81852 43.2282 8.63694C42.8761 8.45537 42.5877 8.21491 42.3627 7.90575C42.1378 7.59658 41.9667 7.24325 41.8494 6.84575C41.732 6.44826 41.6782 6.03113 41.6782 5.59928C41.6782 5.18215 41.7369 4.78466 41.8494 4.39697C41.9618 4.00929 42.1378 3.67068 42.3627 3.37133C42.5877 3.07689 42.8761 2.83643 43.2135 2.65977C43.5558 2.47819 43.9518 2.38986 44.4065 2.38986C44.7732 2.38986 45.1204 2.46838 45.448 2.62541C45.7804 2.78245 46.0396 3.00819 46.2303 3.31245H46.2547V0.201172H47.9464V8.74981H46.3378V7.95973H46.3183ZM46.2449 4.89753C46.196 4.66197 46.1178 4.45586 46.0005 4.27429C45.8831 4.09272 45.7364 3.9504 45.5506 3.83753C45.3697 3.72466 45.135 3.67068 44.8612 3.67068C44.5874 3.67068 44.3478 3.72466 44.1572 3.83753C43.9665 3.9504 43.8149 4.09763 43.6975 4.2792C43.5851 4.46077 43.502 4.67179 43.4482 4.90734C43.3944 5.1429 43.37 5.38826 43.37 5.64345C43.37 5.88391 43.3993 6.12437 43.4531 6.35992C43.5069 6.60039 43.5998 6.8114 43.722 7.00279C43.8442 7.18927 44.0007 7.3414 44.1865 7.45917C44.3723 7.57695 44.5972 7.63093 44.8612 7.63093C45.1399 7.63093 45.3697 7.57695 45.5604 7.46408C45.7462 7.35121 45.8978 7.20399 46.0102 7.0126C46.1227 6.82612 46.2009 6.6102 46.2498 6.37465C46.2987 6.13418 46.3232 5.88882 46.3232 5.63363C46.3183 5.37845 46.2938 5.13308 46.2449 4.89753Z" fill="#1A1A1A"/>
<path d="M4.97815 74.4698C4.89503 73.8711 4.32297 73.4148 3.66779 73.4148C2.48456 73.4148 2.03962 74.4257 2.03962 75.4808C2.03962 76.4819 2.48456 77.4928 3.66779 77.4928C4.47455 77.4928 4.92926 76.9382 5.02705 76.1433H6.30807C6.17117 77.6449 5.1395 78.6068 3.66779 78.6068C1.80982 78.6068 0.719482 77.2131 0.719482 75.4808C0.719482 73.6945 1.80982 72.3008 3.66779 72.3008C4.98793 72.3008 6.09294 73.0761 6.25429 74.4698H4.97815Z" fill="#1A1A1A"/>
<path d="M9.05918 73.9883C10.4282 73.9883 11.3083 74.8961 11.3083 76.2898C11.3083 77.6737 10.4282 78.5816 9.05918 78.5816C7.69992 78.5816 6.81494 77.6688 6.81494 76.2898C6.81494 74.9011 7.69992 73.9883 9.05918 73.9883ZM9.05918 77.6835C9.87571 77.6835 10.1153 76.9818 10.1153 76.2947C10.1153 75.593 9.87082 74.8961 9.05918 74.8961C8.25243 74.8961 8.00796 75.5979 8.00796 76.2947C8.00796 76.9818 8.25243 77.6835 9.05918 77.6835Z" fill="#1A1A1A"/>
<path d="M12.0493 74.1022H13.1837V74.9119H13.2032C13.4184 74.3622 14.01 73.9844 14.5918 73.9844C14.6749 73.9844 14.7776 73.9991 14.8509 74.0236V75.1376C14.7385 75.1131 14.5625 75.0984 14.4207 75.0984C13.5455 75.0984 13.2423 75.7314 13.2423 76.497V78.4599H12.0493V74.1022Z" fill="#1A1A1A"/>
<path d="M15.3142 74.1061H16.4486V74.6606H16.4632C16.7468 74.1993 17.2162 73.9883 17.754 73.9883C19.1182 73.9883 19.7293 75.0924 19.7293 76.3291C19.7293 77.4921 19.0937 78.5816 17.8225 78.5816C17.3042 78.5816 16.8055 78.3558 16.5219 77.924H16.5023V79.9998H15.3093V74.1061H15.3142ZM18.5363 76.2996C18.5363 75.6077 18.2576 74.8912 17.4949 74.8912C16.7126 74.8912 16.4632 75.593 16.4632 76.2996C16.4632 77.0063 16.7321 77.6835 17.5047 77.6835C18.287 77.6835 18.5363 77.0063 18.5363 76.2996Z" fill="#1A1A1A"/>
<path d="M22.3453 73.9883C23.7143 73.9883 24.5993 74.8961 24.5993 76.2898C24.5993 77.6737 23.7143 78.5816 22.3453 78.5816C20.986 78.5816 20.106 77.6688 20.106 76.2898C20.106 74.9011 20.986 73.9883 22.3453 73.9883ZM22.3453 77.6835C23.1618 77.6835 23.4063 76.9818 23.4063 76.2947C23.4063 75.593 23.1618 74.8961 22.3453 74.8961C21.5386 74.8961 21.2941 75.5979 21.2941 76.2947C21.299 76.9818 21.5434 77.6835 22.3453 77.6835Z" fill="#1A1A1A"/>
<path d="M25.3386 74.1022H26.473V74.9119H26.4925C26.7077 74.3622 27.2993 73.9844 27.8762 73.9844C27.9594 73.9844 28.062 73.9991 28.1354 74.0236V75.1376C28.0278 75.1131 27.8518 75.0984 27.7051 75.0984C26.8299 75.0984 26.5268 75.7314 26.5268 76.497V78.4599H25.3337V74.1022H25.3386Z" fill="#1A1A1A"/>
<path d="M28.4868 75.4458C28.5552 74.322 29.5526 73.9883 30.5305 73.9883C31.3959 73.9883 32.4374 74.1797 32.4374 75.2249V77.4921C32.4374 77.8896 32.4765 78.2822 32.589 78.4638H31.3764C31.3373 78.3264 31.2982 78.1841 31.2933 78.0418C30.9168 78.4393 30.3643 78.5816 29.8313 78.5816C29.0099 78.5816 28.3547 78.1694 28.3547 77.2762C28.3547 76.2898 29.093 76.0543 29.8313 75.9512C30.5647 75.8433 31.2444 75.8678 31.2444 75.3771C31.2444 74.8618 30.8874 74.7882 30.4718 74.7882C30.0171 74.7882 29.7238 74.9747 29.6798 75.4458H28.4868ZM31.2395 76.334C31.0341 76.5107 30.6185 76.5205 30.2469 76.5892C29.8753 76.6628 29.5429 76.7904 29.5429 77.2321C29.5429 77.6786 29.8851 77.7866 30.2763 77.7866C31.2053 77.7866 31.2444 77.0456 31.2444 76.7855V76.334H31.2395Z" fill="#1A1A1A"/>
<path d="M34.8432 74.1071H35.7184V74.907H34.8432V77.0662C34.8432 77.4736 34.9458 77.5717 35.3468 77.5717C35.4739 77.5717 35.5912 77.5619 35.7184 77.5373V78.4747C35.5179 78.509 35.2539 78.5188 35.0192 78.5188C34.2907 78.5188 33.6501 78.3471 33.6501 77.4834V74.9119H32.9265V74.112H33.6501V72.8066H34.8432V74.1071Z" fill="#1A1A1A"/>
<path d="M37.8095 73.4336H36.6165V72.4473H37.8095V73.4336ZM36.6165 74.106H37.8095V78.4637H36.6165V74.106Z" fill="#1A1A1A"/>
<path d="M40.8529 73.9883C42.2219 73.9883 43.1069 74.8961 43.1069 76.2898C43.1069 77.6737 42.2219 78.5816 40.8529 78.5816C39.4936 78.5816 38.6135 77.6688 38.6135 76.2898C38.6135 74.9011 39.4936 73.9883 40.8529 73.9883ZM40.8529 77.6835C41.6694 77.6835 41.9139 76.9818 41.9139 76.2947C41.9139 75.593 41.6694 74.8961 40.8529 74.8961C40.0461 74.8961 39.8017 75.5979 39.8017 76.2947C39.8017 76.9818 40.0461 77.6835 40.8529 77.6835Z" fill="#1A1A1A"/>
<path d="M43.8738 74.1061H45.0081V74.7146H45.0326C45.3357 74.2238 45.854 73.9883 46.3625 73.9883C47.6288 73.9883 47.9515 74.7048 47.9515 75.7844V78.4638H46.7585V76.0003C46.7585 75.2838 46.5483 74.9305 45.9958 74.9305C45.3455 74.9305 45.0717 75.2936 45.0717 76.1819V78.4687H43.8787V74.1061H43.8738Z" fill="#1A1A1A"/>
</svg>
