<svg width="36" height="41" viewBox="0 0 36 41" fill="none" xmlns="http://www.w3.org/2000/svg">
<path d="M10.9961 7.83203H18.1721C19.9185 7.83203 22.2176 7.83203 23.409 8.54248C24.1287 8.95603 24.7237 9.55139 25.1326 10.2672C25.5416 10.9831 25.7497 11.7935 25.7356 12.6151C25.7356 14.6899 24.6291 16.2454 22.8001 16.9819V17.0373C25.2391 17.5283 26.5681 19.3304 26.5681 21.7333C26.5681 24.5988 24.4892 27.3298 20.5549 27.3298H10.9961V7.83203ZM13.6266 16.2137H18.8945C21.8851 16.2137 23.1051 15.1492 23.1051 13.1004C23.1051 10.3978 21.1672 10.0165 18.8945 10.0165H13.6266V16.2137ZM13.6266 25.1407H20.2235C22.4939 25.1407 23.9365 23.7753 23.9365 21.6473C23.9365 19.1076 21.8575 18.3971 19.6398 18.3971H13.6266V25.1407Z" fill="#1A1A1A"/>
<path d="M33.2979 17.5824C33.2979 25.7707 26.5611 32.4091 18.2487 32.4091C16.2642 32.4262 14.2958 32.0553 12.4574 31.3179C10.6189 30.5805 8.94664 29.4911 7.53719 28.1127C6.12774 26.7343 5.00898 25.0941 4.2455 23.2868C3.48201 21.4795 3.08893 19.541 3.08893 17.583C3.08893 15.625 3.48201 13.6865 4.2455 11.8792C5.00898 10.0719 6.12774 8.43171 7.53719 7.05329C8.94664 5.67486 10.6189 4.5855 12.4574 3.84809C14.2958 3.11067 16.2642 2.73981 18.2487 2.75692C26.5611 2.75692 33.2979 9.39418 33.2979 17.5768M18.2487 0.5C8.67729 0.5 0.916504 8.14637 0.916504 17.5824C0.916504 27.0185 8.67729 34.6649 18.2487 34.6649C27.8201 34.6649 35.5832 27.0174 35.5832 17.5824C35.5832 8.1475 27.8224 0.5 18.2487 0.5ZM0.952051 38.259H35.5477V40.5H0.952051V38.259ZM34.6005 37.3494C34.4341 37.3492 34.2715 37.3003 34.1332 37.2089C33.9949 37.1175 33.8872 36.9878 33.8237 36.836C33.7602 36.6843 33.7437 36.5174 33.7763 36.3564C33.8089 36.1954 33.8891 36.0475 34.0069 35.9315C34.1246 35.8155 34.2746 35.7365 34.4379 35.7046C34.6011 35.6726 34.7703 35.6891 34.924 35.752C35.0777 35.8149 35.2091 35.9213 35.3015 36.0578C35.394 36.1944 35.4433 36.3549 35.4433 36.519C35.4472 36.6292 35.428 36.739 35.387 36.8415C35.346 36.944 35.284 37.0372 35.2049 37.1151C35.1259 37.1929 35.0314 37.2539 34.9274 37.2943C34.8234 37.3346 34.7121 37.3534 34.6005 37.3494ZM34.6005 35.8787C34.4376 35.8905 34.2852 35.9626 34.1739 36.0807C34.0627 36.1987 34.0009 36.3539 34.0009 36.5151C34.0009 36.6763 34.0627 36.8315 34.1739 36.9495C34.2852 37.0675 34.4376 37.1397 34.6005 37.1514C34.7637 37.1397 34.9164 37.0674 35.0278 36.9492C35.1392 36.8309 35.2012 36.6754 35.2012 36.514C35.2012 36.3525 35.1392 36.197 35.0278 36.0788C34.9164 35.9605 34.7637 35.8882 34.6005 35.8765V35.8787ZM34.4594 36.9602H34.2668V36.0677H34.6039C34.8333 36.0677 34.9755 36.1333 34.9755 36.3369C34.9789 36.3668 34.9758 36.3971 34.9664 36.4257C34.9569 36.4543 34.9413 36.4806 34.9206 36.5027C34.9 36.5248 34.8747 36.5423 34.8466 36.5539C34.8184 36.5655 34.7881 36.571 34.7576 36.57L34.9869 36.9602H34.7576L34.5512 36.5881H34.4594V36.9602ZM34.6314 36.4342C34.7174 36.4342 34.7691 36.4161 34.7691 36.3211C34.7691 36.226 34.6693 36.2226 34.5959 36.2226H34.4594V36.4376L34.6314 36.4342Z" fill="#1A1A1A"/>
</svg>

