<svg width="20" height="20" viewBox="0 0 20 20" fill="none" xmlns="http://www.w3.org/2000/svg">
<path d="M10 18.75C5.16751 18.75 1.25 14.8325 1.25 10C1.25 5.16751 5.16751 1.25 10 1.25C14.8325 1.25 18.75 5.16751 18.75 10C18.75 14.8325 14.8325 18.75 10 18.75ZM10 20C15.5228 20 20 15.5228 20 10C20 4.47715 15.5228 0 10 0C4.47715 0 0 4.47715 0 10C0 15.5228 4.47715 20 10 20Z" fill="white"/>
<path d="M14.1919 5.80806C13.9479 5.56398 13.5521 5.56398 13.3081 5.80806L5.80806 13.3081C5.56398 13.5521 5.56398 13.9479 5.80806 14.1919C6.05214 14.436 6.44786 14.436 6.69194 14.1919L14.1919 6.69194C14.436 6.44786 14.436 6.05214 14.1919 5.80806Z" fill="white"/>
</svg>
