<svg width="144" height="144" viewBox="0 0 144 144" fill="none" xmlns="http://www.w3.org/2000/svg">
<path d="M94.5 72.0019C94.5 84.4284 84.4264 94.5019 72 94.5019C59.5736 94.5019 49.5 84.4284 49.5 72.0019C49.5 59.5755 59.5736 49.5019 72 49.5019C84.4264 49.5019 94.5 59.5755 94.5 72.0019Z" fill="#1A1A1A"/>
<path d="M0 72.0019C0 72.0019 27 22.502 72 22.502C117 22.502 144 72.0019 144 72.0019C144 72.0019 117 121.502 72 121.502C27 121.502 0 72.0019 0 72.0019ZM72 103.502C89.397 103.502 103.5 89.3989 103.5 72.0019C103.5 54.605 89.397 40.502 72 40.502C54.603 40.502 40.5 54.605 40.5 72.0019C40.5 89.3989 54.603 103.502 72 103.502Z" fill="#1A1A1A"/>
</svg>
