<svg width="16" height="16" viewBox="0 0 16 16" fill="none" xmlns="http://www.w3.org/2000/svg">
<path d="M0.683059 1.56694C0.43898 1.32286 0.43898 0.927136 0.683059 0.683058C0.927136 0.438981 1.32287 0.438981 1.56694 0.683058L8 7.11612L14.4331 0.683058C14.6771 0.438981 15.0729 0.438981 15.3169 0.683058C15.561 0.927136 15.561 1.32286 15.3169 1.56694L8.88388 8L15.3169 14.4331C15.561 14.6771 15.561 15.0729 15.3169 15.3169C15.0729 15.561 14.6771 15.561 14.4331 15.3169L8 8.88388L1.56694 15.3169C1.32287 15.561 0.927137 15.561 0.683059 15.3169C0.438981 15.0729 0.438981 14.6771 0.683059 14.4331L7.11612 8L0.683059 1.56694Z" fill="#1A1A1A"/>
</svg>
