<svg width="20" height="20" viewBox="0 0 20 20" fill="none" xmlns="http://www.w3.org/2000/svg">
<path d="M17.5 1.25C18.1904 1.25 18.75 1.80964 18.75 2.5V12.5C18.75 13.1904 18.1904 13.75 17.5 13.75H14.375C13.5881 13.75 12.8471 14.1205 12.375 14.75L10 17.9167L7.625 14.75C7.15286 14.1205 6.41189 13.75 5.625 13.75H2.5C1.80964 13.75 1.25 13.1904 1.25 12.5V2.5C1.25 1.80964 1.80964 1.25 2.5 1.25H17.5ZM2.5 0C1.11929 0 0 1.11929 0 2.5V12.5C0 13.8807 1.11929 15 2.5 15H5.625C6.01845 15 6.38893 15.1852 6.625 15.5L9 18.6667C9.5 19.3333 10.5 19.3333 11 18.6667L13.375 15.5C13.6111 15.1852 13.9816 15 14.375 15H17.5C18.8807 15 20 13.8807 20 12.5V2.5C20 1.11929 18.8807 0 17.5 0H2.5Z" fill="white"/>
</svg>
