<?xml version="1.0" encoding="UTF-8" standalone="no"?>
<svg
   width="82"
   height="82"
   viewBox="0 0 82 82"
   fill="none"
   version="1.1"
   id="svg80"
   sodipodi:docname="Grade=5, Size=60.svg"
   inkscape:version="1.2.1 (9c6d41e, 2022-07-14)"
   xmlns:inkscape="http://www.inkscape.org/namespaces/inkscape"
   xmlns:sodipodi="http://sodipodi.sourceforge.net/DTD/sodipodi-0.dtd"
   xmlns="http://www.w3.org/2000/svg"
   xmlns:svg="http://www.w3.org/2000/svg">
  <defs
     id="defs84" />
  <sodipodi:namedview
     id="namedview82"
     pagecolor="#ffffff"
     bordercolor="#000000"
     borderopacity="0.25"
     inkscape:showpageshadow="2"
     inkscape:pageopacity="0.0"
     inkscape:pagecheckerboard="0"
     inkscape:deskcolor="#d1d1d1"
     showgrid="false"
     inkscape:zoom="12.52439"
     inkscape:cx="28.703992"
     inkscape:cy="41"
     inkscape:window-width="1390"
     inkscape:window-height="1205"
     inkscape:window-x="1080"
     inkscape:window-y="25"
     inkscape:window-maximized="0"
     inkscape:current-layer="svg80" />
  <g
     id="g254"
     transform="rotate(-45,41.000012,41.140881)">
    <path
       d="m 29.2447,24.7478 c -2.0107,1.4627 -3.7189,3.2784 -5.0503,5.3446 -0.7184,1.115 -2.0738,1.7062 -3.3353,1.2958 L 6.65973,26.7686 C 5.18873,26.2901 4.4252,24.6598 5.10725,23.2714 7.96507,17.454 12.2046,12.3909 17.4889,8.5468 c 5.2828,-3.84303 11.4,-6.31535 17.8067,-7.2397 1.532,-0.22103 2.8476,1.00973 2.8476,2.55758 l 1e-4,14.95502 c 0,1.3254 -0.98,2.4308 -2.2612,2.7704 -2.3741,0.6293 -4.6267,1.6949 -6.6374,3.1577 z"
       fill="#343434"
       id="path60" />
    <path
       d="m 21.9789,47.137 c 0.7685,2.3681 1.9662,4.557 3.5187,6.4641 0.8361,1.027 0.979,2.4959 0.2013,3.5678 L 16.9215,69.2653 C 16.0118,70.519 14.2223,70.7417 13.1125,69.661 8.47254,65.1428 4.9754,59.5429 2.95774,53.3252 0.939727,47.1065 0.481821,40.5167 1.58402,34.1295 c 0.26332,-1.5259 1.84119,-2.3971 3.3137,-1.918 l 14.19858,4.6192 c 1.26,0.41 2.0081,1.6832 1.9346,3.0061 -0.1364,2.4566 0.1796,4.9322 0.948,7.3002 z"
       fill="#343434"
       id="path62" />
    <path
       d="m 41.0002,60.9744 c 2.4846,0 4.9316,-0.4632 7.2211,-1.3507 1.237,-0.4796 2.6813,-0.1609 3.4605,0.9129 l 8.7781,12.0975 c 0.9083,1.2517 0.5678,3.0188 -0.7998,3.741 C 53.9333,79.3992 47.5316,81 41.0002,81 c -6.5313,0 -12.933,-1.6008 -18.6599,-4.6249 -1.3675,-0.7222 -1.708,-2.4893 -0.7997,-3.741 l 8.7781,-12.0975 c 0.7792,-1.0738 2.2235,-1.3925 3.4605,-0.9129 2.2895,0.8875 4.7365,1.3507 7.221,1.3507 z"
       fill="#343434"
       id="path64" />
    <path
       d="m 60.0211,47.137 c 0.7684,-2.368 1.0844,-4.8436 0.948,-7.3002 -0.0735,-1.3229 0.6746,-2.5961 1.9346,-3.0061 l 14.1986,-4.6192 c 1.4725,-0.4791 3.0504,0.3921 3.3137,1.918 1.1022,6.3872 0.6443,12.977 -1.3737,19.1957 -2.0177,6.2177 -5.5148,11.8176 -10.1548,16.3358 -1.1098,1.0807 -2.8993,0.858 -3.809,-0.3957 L 56.3011,57.1689 c -0.7777,-1.0719 -0.6348,-2.5408 0.2013,-3.5678 1.5525,-1.9071 2.7502,-4.096 3.5187,-6.4641 z"
       fill="#343434"
       id="path66" />
    <path
       d="M 52.7559,24.7478 C 50.7451,23.285 48.4925,22.2194 46.1184,21.5901 44.8372,21.2505 43.8573,20.1451 43.8573,18.8197 V 3.86469 c 0,-1.54786 1.3156,-2.77862 2.8476,-2.55759 6.4068,0.92435 12.524,3.39668 17.8067,7.2397 5.2843,3.8441 9.5239,8.9072 12.3817,14.7246 0.682,1.3884 -0.0815,3.0187 -1.5525,3.4972 L 61.1414,31.3882 C 59.88,31.7986 58.5246,31.2074 57.8061,30.0924 56.4747,28.0262 54.7665,26.2105 52.7559,24.7478 Z"
       fill="#343434"
       id="path68" />
    <path
       d="m 29.2447,24.7478 c -2.0107,1.4627 -3.7189,3.2784 -5.0503,5.3446 -0.7184,1.115 -2.0738,1.7062 -3.3353,1.2958 L 6.65973,26.7686 C 5.18873,26.2901 4.4252,24.6598 5.10725,23.2714 7.96507,17.454 12.2046,12.3909 17.4889,8.5468 c 5.2828,-3.84303 11.4,-6.31535 17.8067,-7.2397 1.532,-0.22103 2.8476,1.00973 2.8476,2.55758 l 1e-4,14.95502 c 0,1.3254 -0.98,2.4308 -2.2612,2.7704 -2.3741,0.6293 -4.6267,1.6949 -6.6374,3.1577 z"
       stroke="#343434"
       stroke-width="1.33333"
       id="path70" />
    <path
       d="m 21.9789,47.137 c 0.7685,2.3681 1.9662,4.557 3.5187,6.4641 0.8361,1.027 0.979,2.4959 0.2013,3.5678 L 16.9215,69.2653 C 16.0118,70.519 14.2223,70.7417 13.1125,69.661 8.47254,65.1428 4.9754,59.5429 2.95774,53.3252 0.939727,47.1065 0.481821,40.5167 1.58402,34.1295 c 0.26332,-1.5259 1.84119,-2.3971 3.3137,-1.918 l 14.19858,4.6192 c 1.26,0.41 2.0081,1.6832 1.9346,3.0061 -0.1364,2.4566 0.1796,4.9322 0.948,7.3002 z"
       stroke="#343434"
       stroke-width="1.33333"
       id="path72" />
    <path
       d="m 41.0002,60.9744 c 2.4846,0 4.9316,-0.4632 7.2211,-1.3507 1.237,-0.4796 2.6813,-0.1609 3.4605,0.9129 l 8.7781,12.0975 c 0.9083,1.2517 0.5678,3.0188 -0.7998,3.741 C 53.9333,79.3992 47.5316,81 41.0002,81 c -6.5313,0 -12.933,-1.6008 -18.6599,-4.6249 -1.3675,-0.7222 -1.708,-2.4893 -0.7997,-3.741 l 8.7781,-12.0975 c 0.7792,-1.0738 2.2235,-1.3925 3.4605,-0.9129 2.2895,0.8875 4.7365,1.3507 7.221,1.3507 z"
       stroke="#343434"
       stroke-width="1.33333"
       id="path74" />
    <path
       d="m 60.0211,47.137 c 0.7684,-2.368 1.0844,-4.8436 0.948,-7.3002 -0.0735,-1.3229 0.6746,-2.5961 1.9346,-3.0061 l 14.1986,-4.6192 c 1.4725,-0.4791 3.0504,0.3921 3.3137,1.918 1.1022,6.3872 0.6443,12.977 -1.3737,19.1957 -2.0177,6.2177 -5.5148,11.8176 -10.1548,16.3358 -1.1098,1.0807 -2.8993,0.858 -3.809,-0.3957 L 56.3011,57.1689 c -0.7777,-1.0719 -0.6348,-2.5408 0.2013,-3.5678 1.5525,-1.9071 2.7502,-4.096 3.5187,-6.4641 z"
       stroke="#343434"
       stroke-width="1.33333"
       id="path76" />
    <path
       d="M 52.7559,24.7478 C 50.7451,23.285 48.4925,22.2194 46.1184,21.5901 44.8372,21.2505 43.8573,20.1451 43.8573,18.8197 V 3.86469 c 0,-1.54786 1.3156,-2.77862 2.8476,-2.55759 6.4068,0.92435 12.524,3.39668 17.8067,7.2397 5.2843,3.8441 9.5239,8.9072 12.3817,14.7246 0.682,1.3884 -0.0815,3.0187 -1.5525,3.4972 L 61.1414,31.3882 C 59.88,31.7986 58.5246,31.2074 57.8061,30.0924 56.4747,28.0262 54.7665,26.2105 52.7559,24.7478 Z"
       stroke="#343434"
       stroke-width="1.33333"
       id="path78" />
  </g>
</svg>
