<svg width="16" height="16" viewBox="0 0 16 16" fill="none" xmlns="http://www.w3.org/2000/svg">
<path fill-rule="evenodd" clip-rule="evenodd" d="M5 2H2C1.44772 2 1 2.44772 1 3V5C1 5.55228 1.44772 6 2 6H5C5.55228 6 6 5.55228 6 5V3C6 2.44772 5.55228 2 5 2ZM5 10H2C1.44772 10 1 10.4477 1 11V13C1 13.5523 1.44772 14 2 14H5C5.55228 14 6 13.5523 6 13V11C6 10.4477 5.55228 10 5 10ZM14 2H11C10.4477 2 10 2.44772 10 3V5C10 5.55228 10.4477 6 11 6H14C14.5523 6 15 5.55228 15 5V3C15 2.44772 14.5523 2 14 2ZM14 10H11C10.4477 10 10 10.4477 10 11V13C10 13.5523 10.4477 14 11 14H14C14.5523 14 15 13.5523 15 13V11C15 10.4477 14.5523 10 14 10ZM2 1C0.895431 1 0 1.89543 0 3V5C0 6.10457 0.89543 7 2 7H5C6.10457 7 7 6.10457 7 5V3C7 1.89543 6.10457 1 5 1H2ZM2 9C0.895431 9 0 9.89543 0 11V13C0 14.1046 0.89543 15 2 15H5C6.10457 15 7 14.1046 7 13V11C7 9.89543 6.10457 9 5 9H2ZM9 3C9 1.89543 9.89543 1 11 1H14C15.1046 1 16 1.89543 16 3V5C16 6.10457 15.1046 7 14 7H11C9.89543 7 9 6.10457 9 5V3ZM11 9C9.89543 9 9 9.89543 9 11V13C9 14.1046 9.89543 15 11 15H14C15.1046 15 16 14.1046 16 13V11C16 9.89543 15.1046 9 14 9H11Z" fill="white"/>
</svg>
