<svg width="21" height="21" viewBox="0 0 21 21" fill="none" xmlns="http://www.w3.org/2000/svg">
<path d="M6.45412 17.2498H17.428C17.8237 17.2498 18.0994 16.5949 17.9055 16.2499C16.6814 14.0716 16.2491 9.64088 16.2491 8.49982C16.2491 8.16984 16.2235 7.84584 16.1743 7.52968L6.45412 17.2498Z" fill="#1A1A1A" fill-opacity="0.7"/>
<path d="M14.3146 3.97883C13.4782 3.18026 12.4206 2.61143 11.243 2.37361C11.247 2.33289 11.2491 2.2916 11.2491 2.24982C11.2491 1.55947 10.6894 0.999823 9.99908 0.999823C9.30873 0.999823 8.74908 1.55947 8.74908 2.24982C8.74908 2.2916 8.75113 2.3329 8.75514 2.37363C5.89934 2.95038 3.74911 5.474 3.74911 8.49982C3.74911 9.62225 3.3308 13.9278 2.15199 16.1414L14.3146 3.97883Z" fill="#1A1A1A" fill-opacity="0.7"/>
<path d="M12.4991 18.4998C12.4991 19.8805 11.3798 20.9998 9.99908 20.9998C8.61837 20.9998 7.49908 19.8805 7.49908 18.4998H12.4991Z" fill="#1A1A1A" fill-opacity="0.7"/>
<path d="M0.7801 19.2811C0.521217 19.54 0.521217 19.9597 0.7801 20.2186C1.03898 20.4775 1.45871 20.4775 1.7176 20.2186L20.1551 1.78108C20.414 1.52219 20.414 1.10246 20.1551 0.843576C19.8962 0.584693 19.4765 0.584693 19.2176 0.843577L0.7801 19.2811Z" fill="#1A1A1A" fill-opacity="0.7"/>
</svg>
