<svg width="24" height="24" viewBox="0 0 24 24" fill="none" xmlns="http://www.w3.org/2000/svg">
<path d="M12 0.571411C12.789 0.571411 13.4286 1.211 13.4286 1.99998V10.5714H22C22.789 10.5714 23.4286 11.211 23.4286 12C23.4286 12.789 22.789 13.4286 22 13.4286H13.4286V22C13.4286 22.789 12.789 23.4286 12 23.4286C11.211 23.4286 10.5714 22.789 10.5714 22V13.4286H1.99998C1.211 13.4286 0.571411 12.789 0.571411 12C0.571411 11.211 1.211 10.5714 1.99998 10.5714H10.5714V1.99998C10.5714 1.211 11.211 0.571411 12 0.571411Z" fill="#1A1A1A"/>
</svg>
