<svg xmlns="http://www.w3.org/2000/svg" width="40" height="40" fill="none"><circle cx="20" cy="20" r="18" fill="#fff"/><path fill="#1A1A1A" d="M18.201 14.181h3.657v14.536a1.823 1.823 0 0 1-1.828 1.817 1.823 1.823 0 0 1-1.829-1.817V14.181ZM18.201 10.547c0-1.003.819-1.817 1.829-1.817s1.828.814 1.828 1.817a1.823 1.823 0 0 1-1.828 1.817 1.823 1.823 0 0 1-1.829-1.817Z"/><path fill="#1A1A1A" d="m10.318 21.634 1.292-1.285a1.836 1.836 0 0 1 2.586 0l8.402 8.351-2.585 2.57-9.696-9.636Z"/><path fill="#1A1A1A" d="M25.804 20.349a1.836 1.836 0 0 1 2.586 0l1.293 1.285-9.696 9.636-2.585-2.57 8.402-8.351Z"/><path fill="#1A1A1A" fill-rule="evenodd" d="M40 20c0 11.046-8.954 20-20 20S0 31.046 0 20 8.954 0 20 0s20 8.954 20 20ZM20 37.46c9.643 0 17.46-7.817 17.46-17.46S29.643 2.54 20 2.54 2.54 10.357 2.54 20 10.357 37.46 20 37.46Z" clip-rule="evenodd"/></svg>