<svg width="40" height="40" viewBox="0 0 40 40" fill="none" xmlns="http://www.w3.org/2000/svg">
<circle cx="20" cy="20" r="18" fill="white"/>
<path d="M18.2015 14.1811H21.8579V28.717C21.8579 29.7204 21.0394 30.5339 20.0297 30.5339C19.02 30.5339 18.2015 29.7204 18.2015 28.717V14.1811Z" fill="#1A1A1A"/>
<path d="M18.2015 10.5471C18.2015 9.54365 19.02 8.73016 20.0297 8.73016C21.0394 8.73016 21.8579 9.54365 21.8579 10.5471C21.8579 11.5506 21.0394 12.3641 20.0297 12.3641C19.02 12.3641 18.2015 11.5506 18.2015 10.5471Z" fill="#1A1A1A"/>
<path d="M10.3175 21.6338L11.6102 20.349C12.3241 19.6395 13.4817 19.6395 14.1956 20.349L22.5983 28.7002L20.0129 31.2698L10.3175 21.6338Z" fill="#1A1A1A"/>
<path d="M25.8044 20.349C26.5183 19.6395 27.6759 19.6395 28.3898 20.349L29.6825 21.6338L19.9871 31.2698L17.4017 28.7002L25.8044 20.349Z" fill="#1A1A1A"/>
<path fill-rule="evenodd" clip-rule="evenodd" d="M40 20C40 31.0457 31.0457 40 20 40C8.95431 40 0 31.0457 0 20C0 8.95431 8.95431 0 20 0C31.0457 0 40 8.95431 40 20ZM20 37.4603C29.6431 37.4603 37.4603 29.6431 37.4603 20C37.4603 10.3569 29.6431 2.53968 20 2.53968C10.3569 2.53968 2.53968 10.3569 2.53968 20C2.53968 29.6431 10.3569 37.4603 20 37.4603Z" fill="#1A1A1A"/>
</svg>

