<svg width="24" height="24" viewBox="0 0 24 24" fill="none" xmlns="http://www.w3.org/2000/svg">
<path d="M19 15.889L11.2222 15.889M5 15.889L6.55556 15.889M19 8.11121L16.6667 8.11121M5 8.11121L12 8.11121" stroke="#343434" stroke-linecap="square"/>
<path d="M8.88932 13.5555C7.60066 13.5555 6.55599 14.6002 6.55599 15.8888C6.55599 17.1775 7.60066 18.2222 8.88932 18.2222C10.178 18.2222 11.2227 17.1775 11.2227 15.8888C11.2227 14.6002 10.178 13.5555 8.88932 13.5555Z" stroke="#343434" stroke-linecap="square"/>
<path d="M14.3337 5.77767C13.045 5.77767 12.0003 6.82234 12.0003 8.111C12.0003 9.39967 13.045 10.4443 14.3337 10.4443C15.6223 10.4443 16.667 9.39967 16.667 8.111C16.667 6.82234 15.6223 5.77767 14.3337 5.77767Z" stroke="#343434" stroke-linecap="square"/>
</svg>
