<svg xmlns="http://www.w3.org/2000/svg" width="40" height="40" fill="none"><path fill="#343434" fill-rule="evenodd" d="M10 14.5a1.5 1.5 0 0 1 1.5-1.5h17a1.5 1.5 0 0 1 1.5 1.5v11a1.5 1.5 0 0 1-1.5 1.5h-1v-1h1a.5.5 0 0 0 .5-.5v-11a.5.5 0 0 0-.5-.5h-17a.5.5 0 0 0-.5.5V18h-1v-3.5Z" clip-rule="evenodd"/><path fill="#343434" fill-rule="evenodd" d="M14 7.5A1.5 1.5 0 0 1 15.5 6h17A1.5 1.5 0 0 1 34 7.5v11a1.5 1.5 0 0 1-1.5 1.5h-1v-1h1a.5.5 0 0 0 .5-.5v-11a.5.5 0 0 0-.5-.5h-17a.5.5 0 0 0-.5.5V11h-1V7.5Z" clip-rule="evenodd"/><rect width="19" height="13" x="6.5" y="20.5" stroke="#343434" rx=".5"/><path fill="#343434" d="M7 22h18v1H7z"/><path stroke="#343434" d="M8.5 24.5h6v6h-6z"/><path stroke="#343434" stroke-width=".5" d="M17.25 24.25h6.5v.5h-6.5zM17.25 26.25h1.5v.5h-1.5zM20.25 26.25h3.5v.5h-3.5zM17.25 28.25h4.5v.5h-4.5zM17.25 30.25h2.5v.5h-2.5zM21.25 30.25h2.5v.5h-2.5zM23.25 28.25h.5v.5h-.5z"/></svg>