<svg width="42" height="42" viewBox="0 0 42 42" fill="none" xmlns="http://www.w3.org/2000/svg">
<path fill-rule="evenodd" clip-rule="evenodd" d="M12.2042 2.09152C16.4351 0.179336 21.185 -0.258634 25.6943 0.847669C30.2035 1.95397 34.2114 4.54062 37.0768 8.19384C39.9423 11.8471 41.4997 16.3558 41.5 20.9988V23.8559C41.5 25.5703 40.8189 27.2145 39.6067 28.4268C38.3944 29.6391 36.7502 30.3202 35.0357 30.3202C33.3213 30.3202 31.6771 29.6391 30.4648 28.4268C29.6864 27.6484 29.127 26.6919 28.8263 25.6531C28.4218 26.3551 27.9241 27.0072 27.3413 27.59C25.5932 29.3381 23.2222 30.3202 20.75 30.3202C18.2778 30.3202 15.9069 29.3381 14.1588 27.59C12.4107 25.8419 11.4286 23.4709 11.4286 20.9988C11.4286 18.5266 12.4107 16.1556 14.1588 14.4075C15.9069 12.6594 18.2778 11.6773 20.75 11.6773C23.2222 11.6773 25.5932 12.6594 27.3413 14.4075C29.0894 16.1556 30.0714 18.5266 30.0714 20.9988V23.8559C30.0714 25.1725 30.5945 26.4352 31.5254 27.3662C32.4564 28.2971 33.7191 28.8202 35.0357 28.8202C36.3523 28.8202 37.615 28.2971 38.546 27.3662C39.477 26.4352 40 25.1725 40 23.8559V20.9988C39.9997 16.6915 38.5549 12.5087 35.8966 9.11959C33.2382 5.73046 29.5201 3.33079 25.3368 2.30446C21.1536 1.27814 16.747 1.68445 12.822 3.4584C8.89691 5.23235 5.68022 8.27144 3.68645 12.0895C1.69267 15.9076 1.03702 20.284 1.82437 24.5188C2.61171 28.7535 4.79657 32.6018 8.02943 35.4481C11.2623 38.2944 15.3564 39.9743 19.6567 40.2189C23.9571 40.4635 28.2152 39.2589 31.75 36.7975L32.6072 38.0285C28.7969 40.6816 24.207 41.9802 19.5715 41.7165C14.9361 41.4528 10.523 39.6421 7.03822 36.574C3.55344 33.5059 1.19834 29.3577 0.349639 24.793C-0.499061 20.2283 0.207683 15.5108 2.35682 11.3952C4.50595 7.27961 7.97329 4.0037 12.2042 2.09152ZM28.5714 20.9988C28.5714 18.9244 27.7474 16.935 26.2806 15.4682C24.8138 14.0014 22.8244 13.1773 20.75 13.1773C18.6756 13.1773 16.6862 14.0014 15.2194 15.4682C13.7526 16.935 12.9286 18.9244 12.9286 20.9988C12.9286 23.0731 13.7526 25.0625 15.2194 26.5293C16.6862 27.9961 18.6756 28.8202 20.75 28.8202C22.8244 28.8202 24.8138 27.9961 26.2806 26.5293C27.7474 25.0625 28.5714 23.0731 28.5714 20.9988Z" fill="#1A1A1A"/>
</svg>

