<svg width="40" height="40" viewBox="0 0 40 40" fill="none" xmlns="http://www.w3.org/2000/svg">
<path d="M26 19.9991V21.9991C26 23.06 26.4214 24.0774 27.1716 24.8275C27.9217 25.5777 28.9391 25.9991 30 25.9991C31.0609 25.9991 32.0783 25.5777 32.8284 24.8275C33.5786 24.0774 34 23.06 34 21.9991V19.9991C33.9998 16.8665 32.949 13.8245 31.0157 11.3597C29.0824 8.89488 26.3782 7.14967 23.3359 6.40325C20.2935 5.65683 17.0887 5.95232 14.2341 7.24247C11.3796 8.53262 9.04016 10.7429 7.59014 13.5197C6.14012 16.2964 5.66328 19.4793 6.2359 22.5591C6.80852 25.6389 8.3975 28.4377 10.7487 30.5077C13.0998 32.5778 16.0773 33.7995 19.2049 33.9774C22.3324 34.1553 25.4292 33.2792 28 31.4891M26 19.9991C26 21.5904 25.3679 23.1165 24.2426 24.2418C23.1174 25.367 21.5913 25.9991 20 25.9991C18.4087 25.9991 16.8826 25.367 15.7574 24.2418C14.6322 23.1165 14 21.5904 14 19.9991C14 18.4078 14.6322 16.8817 15.7574 15.7565C16.8826 14.6313 18.4087 13.9991 20 13.9991C21.5913 13.9991 23.1174 14.6313 24.2426 15.7565C25.3679 16.8817 26 18.4078 26 19.9991V19.9991Z" stroke="#343434"/>
</svg>
