<svg xmlns="http://www.w3.org/2000/svg" width="48" height="48" fill="none"><path fill="#fff" stroke="#343434" d="M.5.5h47v47H.5z" style="fill:none"/><path fill="#fff" stroke="#343434" d="M21.024 8.082c.981-2.776 4.971-2.776 5.952 0l2.23 6.314a3.147 3.147 0 0 0 2.911 2.082l6.791.136c2.986.06 4.22 3.794 1.84 5.57l-5.413 4.039a3.073 3.073 0 0 0-1.112 3.368l1.967 6.398c.864 2.814-2.364 5.122-4.815 3.443l-5.576-3.818a3.192 3.192 0 0 0-3.598 0l-5.576 3.818c-2.451 1.679-5.68-.63-4.815-3.443l1.967-6.398a3.073 3.073 0 0 0-1.112-3.368l-5.412-4.039c-2.38-1.776-1.148-5.51 1.839-5.57l6.79-.136a3.147 3.147 0 0 0 2.912-2.082l2.23-6.314Z" style="fill:none"/></svg>