<svg xmlns="http://www.w3.org/2000/svg" width="48" height="48" fill="none"><path d="M.5.5v47h47V.5H.5zM24 6c1.243 0 2.486.694 2.977 2.082l2.228 6.314a3.147 3.147 0 0 0 2.912 2.083l6.791.134c2.986.06 4.22 3.795 1.84 5.57l-5.414 4.04a3.073 3.073 0 0 0-1.111 3.369l1.966 6.396c.865 2.814-2.362 5.123-4.814 3.444l-5.576-3.819a3.19 3.19 0 0 0-3.598 0l-5.576 3.819c-2.452 1.679-5.68-.63-4.814-3.444l1.966-6.396a3.073 3.073 0 0 0-1.111-3.37l-5.414-4.038c-2.38-1.776-1.147-5.51 1.84-5.57l6.79-.135a3.147 3.147 0 0 0 2.913-2.083l2.228-6.314C21.513 6.694 22.757 6 24 6z" style="fill:#333"/><path stroke="#343434" d="M.5.5h47v47H.5z"/></svg>