<svg width="14" height="14" viewBox="0 0 14 14" fill="none" xmlns="http://www.w3.org/2000/svg">
<path d="M7 10.5C8.933 10.5 10.5 8.933 10.5 7C10.5 5.067 8.933 3.5 7 3.5C5.067 3.5 3.5 5.067 3.5 7C3.5 8.933 5.067 10.5 7 10.5Z" fill="#1A1A1A" fill-opacity="0.7"/>
<path d="M7 0C7.24162 0 7.4375 0.195875 7.4375 0.4375V2.1875C7.4375 2.42912 7.24162 2.625 7 2.625C6.75838 2.625 6.5625 2.42912 6.5625 2.1875V0.4375C6.5625 0.195875 6.75838 0 7 0Z" fill="#1A1A1A" fill-opacity="0.7"/>
<path d="M7 11.375C7.24162 11.375 7.4375 11.5709 7.4375 11.8125V13.5625C7.4375 13.8041 7.24162 14 7 14C6.75838 14 6.5625 13.8041 6.5625 13.5625V11.8125C6.5625 11.5709 6.75838 11.375 7 11.375Z" fill="#1A1A1A" fill-opacity="0.7"/>
<path d="M14 7C14 7.24162 13.8041 7.4375 13.5625 7.4375H11.8125C11.5709 7.4375 11.375 7.24162 11.375 7C11.375 6.75838 11.5709 6.5625 11.8125 6.5625H13.5625C13.8041 6.5625 14 6.75838 14 7Z" fill="#1A1A1A" fill-opacity="0.7"/>
<path d="M2.625 7C2.625 7.24162 2.42912 7.4375 2.1875 7.4375H0.4375C0.195875 7.4375 -1.05617e-08 7.24162 0 7C1.05617e-08 6.75837 0.195875 6.5625 0.4375 6.5625H2.1875C2.42912 6.5625 2.625 6.75837 2.625 7Z" fill="#1A1A1A" fill-opacity="0.7"/>
<path d="M11.9497 2.05028C12.1206 2.22113 12.1206 2.49814 11.9497 2.669L10.7123 3.90644C10.5415 4.07729 10.2644 4.07729 10.0936 3.90644C9.92274 3.73558 9.92274 3.45857 10.0936 3.28772L11.331 2.05028C11.5019 1.87943 11.7789 1.87943 11.9497 2.05028Z" fill="#1A1A1A" fill-opacity="0.7"/>
<path d="M3.90641 10.0936C4.07726 10.2645 4.07726 10.5415 3.90641 10.7123L2.66897 11.9498C2.49812 12.1206 2.22111 12.1206 2.05025 11.9498C1.8794 11.7789 1.8794 11.5019 2.05025 11.3311L3.28769 10.0936C3.45854 9.92277 3.73555 9.92277 3.90641 10.0936Z" fill="#1A1A1A" fill-opacity="0.7"/>
<path d="M11.9497 11.9498C11.7789 12.1206 11.5019 12.1206 11.331 11.9498L10.0936 10.7123C9.92274 10.5415 9.92274 10.2645 10.0936 10.0936C10.2644 9.92278 10.5415 9.92278 10.7123 10.0936L11.9497 11.3311C12.1206 11.5019 12.1206 11.7789 11.9497 11.9498Z" fill="#1A1A1A" fill-opacity="0.7"/>
<path d="M3.90641 3.90645C3.73555 4.0773 3.45854 4.0773 3.28769 3.90645L2.05025 2.66901C1.8794 2.49815 1.8794 2.22114 2.05025 2.05029C2.22111 1.87944 2.49812 1.87944 2.66897 2.05029L3.90641 3.28773C4.07726 3.45858 4.07726 3.73559 3.90641 3.90645Z" fill="#1A1A1A" fill-opacity="0.7"/>
</svg>
