<svg width="20" height="20" viewBox="0 0 20 20" fill="none" xmlns="http://www.w3.org/2000/svg">
<path d="M11.0798 19.593C9.88515 19.8917 8.77609 18.988 8.69538 17.8183C8.60468 16.5038 8.40864 15.2986 8.15946 14.5797C8.00387 14.1307 7.56118 13.3147 6.86099 12.5323C6.16364 11.753 5.25731 11.0589 4.19616 10.7694C3.35687 10.5405 2.5 9.81321 2.5 8.75043V3.74918C2.5 2.69365 3.35291 1.91937 4.3099 1.81789C5.64676 1.67613 6.26475 1.29888 6.89493 0.914185L6.95443 0.877883C7.2954 0.670097 7.6772 0.4413 8.16792 0.272325C8.66368 0.101616 9.2442 0 10 0H14.375C15.5463 0 16.3737 0.597354 16.7927 1.33054C16.9977 1.68936 17.1094 2.0883 17.1094 2.4707C17.1094 2.66115 17.0809 2.86085 17.0133 3.0513C17.2651 3.37917 17.4894 3.773 17.6242 4.17736C17.7613 4.58888 17.8386 5.12923 17.6283 5.61267C17.7147 5.77602 17.7794 5.94885 17.8275 6.11736C17.924 6.45506 17.9687 6.82639 17.9687 7.1875C17.9687 7.54861 17.924 7.91994 17.8275 8.25764C17.7844 8.40857 17.728 8.56297 17.6546 8.71091C18.1479 9.42519 18.1776 10.212 17.947 10.8775C17.6905 11.6176 17.0955 12.252 16.4476 12.4679C15.3887 12.8209 14.1934 12.8128 13.3028 12.7318C13.105 12.7138 12.9191 12.6919 12.7493 12.6687C13.3373 15.166 12.9463 17.2856 12.6707 18.3056C12.499 18.9412 11.9846 19.3668 11.4065 19.5114L11.0798 19.593ZM14.375 1.25002H10C9.36163 1.25002 8.92117 1.335 8.5749 1.45424C8.22359 1.57521 7.94231 1.73971 7.60491 1.94532L7.55503 1.97574C6.86145 2.39888 6.057 2.88965 4.44171 3.06094C4.02569 3.10506 3.75 3.42402 3.75 3.7492V8.75045C3.75 9.06837 4.03237 9.42908 4.52512 9.5635C5.89433 9.93699 6.99606 10.8087 7.79249 11.6987C8.58607 12.5856 9.12288 13.5423 9.34054 14.1703C9.6438 15.0453 9.84913 16.3803 9.94242 17.7323C9.97367 18.1852 10.3933 18.4762 10.7766 18.3804L11.1034 18.2987C11.3041 18.2485 11.4263 18.119 11.464 17.9796C11.7394 16.9599 12.1491 14.6737 11.2821 12.0727C11.2099 11.8563 11.2614 11.6177 11.4164 11.4504C11.5714 11.283 11.8053 11.2135 12.0266 11.2687L12.0298 11.2695L12.047 11.2736C12.0629 11.2773 12.0877 11.283 12.1206 11.2903C12.1864 11.3048 12.2845 11.3253 12.4087 11.3484C12.6578 11.3945 13.0094 11.45 13.416 11.487C14.2441 11.5622 15.2363 11.5541 16.0524 11.2821C16.2717 11.209 16.6142 10.9059 16.7659 10.4682C16.8991 10.084 16.8732 9.63212 16.4331 9.19196L15.9911 8.75002L16.4331 8.30808C16.4862 8.25489 16.5634 8.13187 16.6256 7.91425C16.6854 7.70508 16.7187 7.45141 16.7187 7.18752C16.7187 6.92363 16.6854 6.66996 16.6256 6.46078C16.5634 6.24316 16.4862 6.12015 16.4331 6.06696L15.9911 5.62502L16.4331 5.18308C16.4918 5.12428 16.5683 4.96254 16.4383 4.57266C16.3162 4.20635 16.0601 3.81904 15.8081 3.56696L15.3661 3.12502L15.8081 2.68308C15.8146 2.67653 15.8594 2.62106 15.8594 2.47072C15.8594 2.32578 15.8148 2.13878 15.7073 1.95073C15.5013 1.59016 15.0787 1.25002 14.375 1.25002Z" fill="white"/>
</svg>
