<svg width="28" height="26" viewBox="0 0 28 26" fill="none" xmlns="http://www.w3.org/2000/svg">
<g>
<path d="M16 22.5C10.201 22.5 5.5 17.799 5.5 12C5.5 6.20101 10.201 1.5 16 1.5C21.799 1.5 26.5 6.20101 26.5 12C26.5 17.799 21.799 22.5 16 22.5ZM16 24C22.6274 24 28 18.6274 28 12C28 5.37258 22.6274 0 16 0C9.37258 0 4 5.37258 4 12C4 18.6274 9.37258 24 16 24Z" fill="#C51E1E"/>
<path d="M10.9697 6.96967C11.2626 6.67678 11.7374 6.67678 12.0303 6.96967L16 10.9393L19.9697 6.96967C20.2626 6.67678 20.7374 6.67678 21.0303 6.96967C21.3232 7.26256 21.3232 7.73744 21.0303 8.03033L17.0607 12L21.0303 15.9697C21.3232 16.2626 21.3232 16.7374 21.0303 17.0303C20.7374 17.3232 20.2626 17.3232 19.9697 17.0303L16 13.0607L12.0303 17.0303C11.7374 17.3232 11.2626 17.3232 10.9697 17.0303C10.6768 16.7374 10.6768 16.2626 10.9697 15.9697L14.9393 12L10.9697 8.03033C10.6768 7.73744 10.6768 7.26256 10.9697 6.96967Z" fill="#C51E1E"/>
</g>
</svg>
