<svg xmlns="http://www.w3.org/2000/svg" width="41" height="27" fill="none"><path fill="#1A1A1A" d="m26.19 26.269-5.12-12.046c-2.04 3.976-4.28 8.15-6.2 12.046-.02.02-.94 0-.94 0-2.94-6.892-5.98-13.684-8.94-20.515C4.31 4.076 1.91 1.399.25 1.399V.5h10.12v.899c-1.2 0-3.24.799-2.72 2.097 1.44 3.077 6.48 15.002 7.86 18.039.94-1.878 3.6-6.832 4.74-8.93-.9-1.758-3.74-8.35-4.58-9.988-.64-1.078-2.26-1.218-3.5-1.218 0-.3.02-.5 0-.879l8.92.02v.799c-1.22.06-2.36.48-1.84 1.638 1.2 2.477 1.9 4.255 3 6.552.34-.68 2.14-4.375 3-6.312.52-1.299-.26-1.818-2.42-1.818.02-.24.02-.66.02-.859 2.78-.02 6.96-.02 7.7-.04v.839c-1.42.06-2.88.819-3.64 1.978l-3.66 7.67c.36 1.02 3.92 8.91 4.3 9.789l7.7-17.64c-.6-1.437-2.32-1.737-3-1.737V.5l8 .06v.839c-1.76 0-2.86.999-3.5 2.497-1.6 3.576-6.5 14.962-9.7 22.373h-.86Z"/></svg>