<svg width="41" height="27" viewBox="0 0 41 27" fill="none" xmlns="http://www.w3.org/2000/svg">
<path d="M26.19 26.2689L21.07 14.2234C19.03 18.1986 16.79 22.3736 14.87 26.2689C14.85 26.2889 13.93 26.2689 13.93 26.2689C10.99 19.3772 7.95 12.5854 4.99 5.75366C4.31 4.07568 1.91 1.39891 0.25 1.39891V0.5H10.37V1.39891C9.17 1.39891 7.13 2.19795 7.65 3.49638C9.09 6.57267 14.13 18.4983 15.51 21.5346C16.45 19.6569 19.11 14.7029 20.25 12.6054C19.35 10.8475 16.51 4.25547 15.67 2.61744C15.03 1.53875 13.41 1.39891 12.17 1.39891C12.17 1.09928 12.19 0.899517 12.17 0.519975L21.09 0.539952V1.33899C19.87 1.39891 18.73 1.81841 19.25 2.97701C20.45 5.45402 21.15 7.23187 22.25 9.5291C22.59 8.84992 24.39 5.15438 25.25 3.21672C25.77 1.91829 24.99 1.39891 22.83 1.39891C22.85 1.1592 22.85 0.739711 22.85 0.539952C25.63 0.519976 29.81 0.519976 30.55 0.5V1.33899C29.13 1.39891 27.67 2.158 26.91 3.3166L23.25 10.9873C23.61 12.0061 27.17 19.8966 27.55 20.7755L35.25 3.13682C34.65 1.69855 32.93 1.39891 32.25 1.39891V0.5L40.25 0.559927V1.39891C38.49 1.39891 37.39 2.39771 36.75 3.8959C35.15 7.47159 30.25 18.8578 27.05 26.2689H26.19Z" fill="#1A1A1A"/>
</svg>

