<svg width="16" height="16" viewBox="0 0 16 16" fill="none" xmlns="http://www.w3.org/2000/svg">
<path d="M8.00017 3C8.8286 3 9.50017 2.32843 9.50017 1.5C9.50017 0.671573 8.8286 0 8.00017 0C7.17174 0 6.50017 0.671573 6.50017 1.5C6.50017 2.32843 7.17174 3 8.00017 3Z" fill="#1A1A1A"/>
<path d="M5.92981 6.70351L5.08465 15.1551C5.03942 15.6075 5.39464 16 5.84924 16C6.22486 16 6.54543 15.7284 6.60718 15.3579L7.41797 10.4932C7.4654 10.2086 7.71164 10 8.00017 10C8.2887 10 8.53493 10.2086 8.58237 10.4932L9.39316 15.3579C9.45491 15.7284 9.77548 16 10.1511 16C10.6057 16 10.9609 15.6075 10.9157 15.1551L10.0705 6.70351C10.026 6.25821 10.1837 5.81643 10.5002 5.5L13.0011 2.28446C13.4077 1.7617 13.0352 1 12.3729 1C12.1367 1 11.9127 1.10491 11.7615 1.28636L9.63408 3.8393C9.54576 3.94529 9.4365 4.03208 9.30509 4.07409C9.07451 4.1478 8.63954 4.25 8.00017 4.25C7.3608 4.25 6.92582 4.1478 6.69525 4.07409C6.56384 4.03208 6.45458 3.94529 6.36626 3.8393L4.2388 1.28636C4.0876 1.10491 3.8636 1 3.62741 1C2.96514 1 2.5926 1.7617 2.9992 2.28446L5.50017 5.5C5.81663 5.81643 5.97434 6.25821 5.92981 6.70351Z" fill="#1A1A1A"/>
</svg>
