<svg width="16" height="16" viewBox="0 0 16 16" fill="none" xmlns="http://www.w3.org/2000/svg">
<path d="M5.00045 6.25C5.00045 6.66421 4.66466 7 4.25045 7C3.83623 7 3.50045 6.66421 3.50045 6.25C3.50045 5.83579 3.83623 5.5 4.25045 5.5C4.66466 5.5 5.00045 5.83579 5.00045 6.25Z" fill="#1A1A1A"/>
<path d="M6.13855 4.75355C6.70927 4.58956 7.3236 4.5 7.96471 4.5C8.63071 4.5 9.2678 4.59665 9.85713 4.77299C10.1217 4.85215 10.4003 4.70186 10.4795 4.4373C10.5586 4.17275 10.4083 3.89411 10.1438 3.81496C9.46111 3.61068 8.72744 3.5 7.96471 3.5C7.23048 3.5 6.52318 3.60257 5.86238 3.79245C5.59698 3.86871 5.44365 4.14568 5.51991 4.41109C5.59617 4.67649 5.87315 4.82982 6.13855 4.75355Z" fill="#1A1A1A"/>
<path fill-rule="evenodd" clip-rule="evenodd" d="M7.96479 1.52734C4.98717 1.52734 2.3932 3.23104 1.64402 5.65234H1.09499C0.4742 5.65234 0.00341401 6.21207 0.109782 6.82368L0.363811 8.28436C0.488764 9.00284 1.11236 9.52734 1.84163 9.52734H2.10436C2.40372 10.0403 2.79227 10.5053 3.24991 10.9092L2.52088 13.3862C2.47638 13.5374 2.50576 13.7007 2.60017 13.8269C2.69457 13.953 2.84294 14.0273 3.00053 14.0273H5.00053C5.21194 14.0273 5.4005 13.8944 5.47149 13.6953L5.95335 12.3437C6.588 12.5173 7.26415 12.6107 7.96479 12.6107C8.67126 12.6107 9.35284 12.5157 9.99208 12.3394L10.5357 13.7115C10.6112 13.9021 10.7955 14.0273 11.0005 14.0273H13.0005C13.1589 14.0273 13.3079 13.9523 13.4022 13.8251C13.4965 13.6979 13.525 13.5335 13.4789 13.3819L12.7172 10.8757C13.8104 9.89461 14.5005 8.55873 14.5005 7.06901C14.5005 6.92359 14.494 6.77976 14.4813 6.63767C14.7419 6.52776 14.9883 6.37196 15.1855 6.19376C15.5005 6.5 16.0005 6.5 16.0005 5.77739C16.0005 6 15.5005 6 15.5393 5.75071C15.5809 5.66935 15.6122 5.58403 15.6289 5.49586C15.6723 5.267 15.6131 5.03653 15.4272 4.85061C15.2105 4.63386 14.9292 4.63943 14.7206 4.75324C14.5241 4.86041 14.3698 5.07111 14.3454 5.31503C14.3212 5.55771 14.4278 5.79535 14.6656 5.96871C14.5846 6.02492 14.4973 6.07662 14.4069 6.1218C13.8728 3.45792 11.1228 1.52734 7.96479 1.52734ZM2.51695 6.25973C2.97123 4.1939 5.18358 2.52734 7.96479 2.52734C11.1101 2.52734 13.5005 4.64121 13.5005 7.06901C13.5005 8.32349 12.8766 9.47853 11.8306 10.317C11.6711 10.4448 11.6055 10.6569 11.665 10.8525L12.326 13.0273H11.3403L10.7511 11.5401C10.6524 11.291 10.3748 11.164 10.1217 11.2521C9.4603 11.4825 8.73174 11.6107 7.96479 11.6107C7.19784 11.6107 6.46927 11.4825 5.80785 11.2521C5.54841 11.1617 5.26466 11.2976 5.17241 11.5564L4.64797 13.0273H3.6689L4.30184 10.8769C4.35951 10.6809 4.29218 10.4696 4.13179 10.3431C3.57855 9.90679 3.14041 9.38157 2.84763 8.80192C2.76258 8.63353 2.58999 8.52734 2.40133 8.52734H1.84163C1.59854 8.52734 1.39067 8.35251 1.34902 8.11301L1.09499 6.65234H2.02862C2.26338 6.65234 2.46653 6.48901 2.51695 6.25973ZM15.1376 5.40269C15.1264 5.462 15.0949 5.53377 15.0393 5.6132C15.0235 5.60495 15.0088 5.59659 14.9952 5.58819C14.8499 5.49838 14.8381 5.41297 14.843 5.36478C14.8498 5.29619 14.8987 5.22564 14.96 5.19218C15.0092 5.16536 15.0404 5.17093 15.0737 5.20417C15.1378 5.26826 15.1515 5.32947 15.1376 5.40269Z" fill="#1A1A1A"/>
</svg>
