<svg width="16" height="16" viewBox="0 0 16 16" fill="none" xmlns="http://www.w3.org/2000/svg">
<path d="M1 2.82751C1.88498 2.45774 3.1539 2.05938 4.38768 1.93494C5.71799 1.80076 6.8464 1.99803 7.5 2.68665V12.4325C6.56511 11.9025 5.38065 11.8297 4.28732 11.94C3.10693 12.0591 1.91771 12.4011 1 12.751V2.82751ZM8.5 2.68665C9.1536 1.99803 10.282 1.80076 11.6123 1.93494C12.8461 2.05938 14.115 2.45774 15 2.82751V12.751C14.0823 12.4011 12.8931 12.0591 11.7127 11.94C10.6194 11.8297 9.43489 11.9025 8.5 12.4325V2.68665ZM8 1.783C7.01509 0.936405 5.58683 0.808913 4.28732 0.939987C2.77322 1.09271 1.24459 1.61229 0.293099 2.04478C0.114601 2.12592 0 2.30389 0 2.49996V13.5C0 13.67 0.0863761 13.8283 0.229307 13.9204C0.372238 14.0124 0.55214 14.0255 0.706901 13.9552C1.58875 13.5543 3.01012 13.0739 4.38768 12.9349C5.79565 12.7929 6.97747 13.0222 7.60957 13.8123C7.70445 13.9309 7.84811 14 8 14C8.15189 14 8.29555 13.9309 8.39043 13.8123C9.02253 13.0222 10.2043 12.7929 11.6123 12.9349C12.9899 13.0739 14.4113 13.5543 15.2931 13.9552C15.4479 14.0255 15.6278 14.0124 15.7707 13.9204C15.9136 13.8283 16 13.67 16 13.5V2.49996C16 2.30389 15.8854 2.12592 15.7069 2.04478C14.7554 1.61229 13.2268 1.09271 11.7127 0.939987C10.4132 0.808913 8.98491 0.936405 8 1.783Z" fill="#1A1A1A"/>
</svg>
