<?xml version="1.0" standalone="no"?>
<!DOCTYPE svg PUBLIC "-//W3C//DTD SVG 20010904//EN"
 "http://www.w3.org/TR/2001/REC-SVG-20010904/DTD/svg10.dtd">
<svg version="1.0" xmlns="http://www.w3.org/2000/svg"
 width="520.000000pt" height="520.000000pt" viewBox="0 0 520.000000 520.000000"
 preserveAspectRatio="xMidYMid meet">
<metadata>
Created by potrace 1.11, written by Peter Selinger 2001-2013
</metadata>
<g transform="translate(0.000000,520.000000) scale(0.100000,-0.100000)"
fill="#000000" stroke="none">
<path d="M2136 3839 c-164 -76 -316 -129 -369 -129 -25 0 -108 23 -202 55 -87
30 -176 55 -197 55 -76 0 -101 -21 -346 -289 -63 -68 -92 -107 -88 -117 8 -22
19 -15 58 36 47 62 87 75 176 56 37 -8 92 -25 122 -39 l55 -24 90 48 c155 82
335 164 295 133 -62 -48 -139 -132 -181 -196 -55 -86 -80 -175 -88 -315 l-6
-117 -157 -40 c-159 -42 -195 -56 -142 -56 45 0 172 -38 242 -72 l62 -31 0
-81 0 -82 -132 -34 c-229 -58 -215 -50 -123 -71 91 -19 175 -49 223 -79 l32
-20 0 -344 0 -343 -170 -49 c-94 -26 -170 -50 -170 -53 0 -3 35 -16 78 -29
174 -53 421 -162 578 -258 40 -24 75 -44 77 -44 3 0 40 44 82 98 43 53 145
164 228 246 148 147 149 148 130 168 -20 19 -20 19 -76 -49 -30 -37 -73 -85
-95 -106 -36 -35 -42 -38 -73 -30 l-34 9 -3 1053 -2 1052 37 16 c21 9 85 31
143 49 58 18 105 37 104 43 -1 6 -2 18 -2 26 -3 22 -15 19 -156 -46z m-164
-2087 l-7 -92 -88 42 -87 42 2 890 3 891 23 46 c25 52 79 111 126 140 l31 19
2 -943 c2 -518 0 -984 -5 -1035z"/>
<path d="M2644 3798 c-23 -24 -90 -106 -149 -183 -60 -77 -129 -165 -154 -195
-77 -91 -74 -83 -36 -113 l34 -27 17 32 c43 87 120 208 131 208 18 0 147 -66
203 -103 25 -16 64 -48 88 -70 l42 -41 0 -153 0 -152 -37 -11 c-21 -5 -95 -25
-165 -42 -71 -18 -128 -36 -128 -39 0 -4 23 -9 51 -13 61 -8 179 -49 237 -83
l43 -24 -3 -77 -3 -77 -163 -42 c-159 -40 -196 -53 -155 -53 43 0 182 -42 251
-76 l72 -35 0 -342 0 -342 -180 -80 c-124 -54 -175 -81 -163 -86 10 -3 59 -9
108 -12 222 -16 488 -108 731 -252 l31 -19 89 66 c178 132 443 295 712 438 67
36 122 68 122 73 0 4 -34 24 -75 44 -41 21 -75 43 -75 51 0 7 29 199 65 425
80 507 92 630 77 765 -33 284 -175 506 -394 617 -86 43 -172 62 -195 43 -9 -7
-80 -87 -158 -178 -78 -91 -167 -192 -198 -225 -31 -33 -57 -62 -57 -65 0 -3
15 -17 34 -32 l35 -28 55 93 c30 50 64 106 75 122 l21 30 0 -937 0 -937 -102
35 c-57 20 -132 50 -168 68 l-65 31 -5 865 c-4 747 -7 868 -20 886 -39 54
-203 173 -350 253 -41 22 -77 41 -80 41 -3 0 -24 -19 -46 -42z m947 -248 c81
-25 128 -54 194 -119 46 -45 126 -175 114 -185 -14 -12 -370 -246 -374 -246
-3 0 -5 128 -5 285 0 157 2 285 4 285 2 0 32 -9 67 -20z m329 -381 c4 -13 10
-60 14 -104 l6 -80 -181 -120 c-100 -66 -194 -128 -210 -138 l-29 -19 0 121 0
122 188 124 c103 68 191 123 196 121 6 -1 13 -13 16 -27z m10 -271 c-1 -40
-15 -139 -115 -778 -43 -272 -82 -499 -86 -504 -9 -10 -95 3 -171 24 l-38 11
0 507 1 507 197 132 c108 72 200 132 205 132 4 1 7 -14 7 -31z"/>
</g>
</svg>
